SplineFontDB: 3.0
FontName: 201106051110Neuton-Regular
FullName: Neuton Regular
FamilyName: Neuton
Weight: Regular
Copyright: Copyright 2010 Brian M Zick (http://21326.info)\n\n   Licensed under the Apache License, Version 2.0 (the "License");\n   you may not use this file except in compliance with the License.\n   You may obtain a copy of the License at\n\n       http://www.apache.org/licenses/LICENSE-2.0\n\n   Unless required by applicable law or agreed to in writing, software\n   distributed under the License is distributed on an "AS IS" BASIS,\n   WITHOUT WARRANTIES OR CONDITIONS OF ANY KIND, either express or implied.\n   See the License for the specific language governing permissions and\n   limitations under the License.
Version: 
ItalicAngle: 0
UnderlinePosition: 0
UnderlineWidth: 0
Ascent: 1571
Descent: 477
LayerCount: 2
Layer: 0 0 "Back"  1
Layer: 1 0 "Fore"  0
NeedsXUIDChange: 1
OS2Version: 0
OS2_WeightWidthSlopeOnly: 0
OS2_UseTypoMetrics: 0
CreationTime: 1305772905
ModificationTime: 1307285125
PfmFamily: 0
TTFWeight: 400
TTFWidth: 5
LineGap: 0
VLineGap: 0
OS2TypoAscent: 0
OS2TypoAOffset: 1
OS2TypoDescent: 0
OS2TypoDOffset: 1
OS2TypoLinegap: 0
OS2WinAscent: 2305
OS2WinAOffset: 0
OS2WinDescent: -516
OS2WinDOffset: 0
HheadAscent: 0
HheadAOffset: 1
HheadDescent: 0
HheadDOffset: 1
OS2Vendor: 'PfEd'
Lookup: 258 0 0 "'kern' Horizontal Kerning in Latin lookup 0"  {"'kern' Horizontal Kerning in Latin lookup 0 per glyph data 0"  "'kern' Horizontal Kerning in Latin lookup 0 kerning class 1" [410,0,0] } ['kern' ('latn' <'dflt' > ) ]
MarkAttachClasses: 1
DEI: 91125
KernClass2: 89+ 74 "'kern' Horizontal Kerning in Latin lookup 0 kerning class 1" 
 9 ampersand
 8 asterisk
 2 at
 9 backslash
 5 comma
 10 exclamdown
 4 four
 8 four.osf
 27 guillemotleft guilsinglleft
 29 guillemotright guilsinglright
 20 emdash endash hyphen
 4 nine
 8 nine.osf
 3 one
 7 one.osf
 6 period
 12 questiondown
 22 quotedblleft quoteleft
 13 quotereversed
 24 quotedblright quoteright

StartChar: .notdef
Encoding: 65536 -1 0
Width: 696
VWidth: 0
Flags: W
HStem: 0 68<119 527> 1297 68<119 527>
VStem: 51 68<68 1297> 527 68<68 1297>
LayerCount: 2
Fore
SplineSet
51 0 m 1
 51 1365 l 1
 595 1365 l 1
 595 0 l 1
 51 0 l 1
119 68 m 1
 527 68 l 1
 527 1297 l 1
 119 1297 l 1
 119 68 l 1
EndSplineSet
EndChar

StartChar: A
Encoding: 65 65 1
Width: 1525
VWidth: 0
Flags: W
HStem: 0 99<519.013 532 895 917.387 1508.05 1517> 534 125<501 936> 1546 20G<778.579 883.808>
DStem2: 149 159 316 153 0.367522 0.930015<55.7961 461.217 594.375 979.903> 690 1528 731 1277 0.367522 0.930015<-1408.53 -1010.8 -877.645 -218.365> 877 1566 731 1277 0.322251 -0.946654<226.534 877.628 1007.56 1406.06>
LayerCount: 2
Fore
SplineSet
-46 0 m 1
 -34 91 l 1
 149 159 l 1
 690 1528 l 1
 877 1566 l 1
 1358 153 l 1
 1528 99 l 1
 1517 0 l 1
 881 0 l 1
 895 91 l 1
 1107 159 l 1
 972 534 l 1
 455 534 l 1
 316 153 l 1
 546 99 l 1
 532 0 l 1
 -46 0 l 1
501 659 m 1
 936 659 l 1
 731 1277 l 1
 501 659 l 1
EndSplineSet
EndChar

StartChar: AE
Encoding: 198 198 2
Width: 2080
VWidth: 0
Flags: W
HStem: 0 118<1233 1806> 0 91<476.256 513 803 853.918> 583 119<630 1009> 724 115<1233 1533> 1423 113<1233 1774> 1442 94<660 721.491>
VStem: 1009 224<149 583 702 724 839 1306> 1574 106<524 581.575> 1825 106<1161 1234.65>
DStem2: 130 162 297 155 0.536831 0.84369<83.745 588.715 724.008 724.008>
LayerCount: 2
Fore
SplineSet
-50 1 m 1x7380
 -38 94 l 1
 130 162 l 1
 912 1391 l 1
 647 1442 l 1
 660 1536 l 1
 1971 1536 l 1x7780
 1931 1145 l 1
 1825 1161 l 1
 1774 1423 l 1
 1233 1423 l 1
 1233 839 l 1
 1552 839 l 1
 1604 991 l 1
 1721 1000 l 1
 1680 524 l 1
 1574 505 l 1
 1533 724 l 1
 1233 724 l 1
 1233 118 l 1
 1806 118 l 1xbb80
 1930 406 l 1
 2029 387 l 1
 1992 0 l 1
 793 0 l 1
 803 91 l 1
 1009 149 l 1
 1009 583 l 1
 565 583 l 1
 297 155 l 1
 528 102 l 1
 513 1 l 1
 -50 1 l 1x7380
630 702 m 1
 1009 702 l 1
 1012 1306 l 1
 630 702 l 1
EndSplineSet
EndChar

StartChar: Aacute
Encoding: 193 193 3
Width: 1525
VWidth: 0
Flags: W
HStem: 0 99<519.013 532 895 917.387 1508.05 1517> 534 125<501 936> 1546 20G<778.579 883.808>
DStem2: 149 159 316 153 0.367522 0.930015<55.7961 461.217 594.375 979.903> 690 1528 731 1277 0.367522 0.930015<-1408.53 -1010.8 -877.645 -218.365> 877 1566 731 1277 0.322251 -0.946654<226.534 877.628 1007.56 1406.06>
LayerCount: 2
Fore
SplineSet
-46 0 m 1
 -34 91 l 1
 149 159 l 1
 690 1528 l 1
 877 1566 l 1
 1358 153 l 1
 1528 99 l 1
 1517 0 l 1
 881 0 l 1
 895 91 l 1
 1107 159 l 1
 972 534 l 1
 455 534 l 1
 316 153 l 1
 546 99 l 1
 532 0 l 1
 -46 0 l 1
501 659 m 1
 936 659 l 1
 731 1277 l 1
 501 659 l 1
732 1711 m 1
 884 2112 l 1
 1021 2063 l 1
 794 1672 l 1
 732 1711 l 1
EndSplineSet
EndChar

StartChar: Abreve
Encoding: 258 258 4
Width: 1525
VWidth: 0
Flags: W
HStem: 0 99<519.013 532 895 917.387 1508.05 1517> 534 125<501 936> 1546 20G<778.579 883.808> 1703 134<672.352 913.154>
VStem: 557 68<1895.17 1932.06>
DStem2: 149 159 316 153 0.367522 0.930015<55.7961 461.217 594.375 979.903> 690 1528 731 1277 0.367522 0.930015<-1408.53 -1010.8 -877.645 -218.365> 877 1566 731 1277 0.322251 -0.946654<226.534 877.628 1007.56 1406.06>
LayerCount: 2
Fore
SplineSet
-46 0 m 1
 -34 91 l 1
 149 159 l 1
 690 1528 l 1
 877 1566 l 1
 1358 153 l 1
 1528 99 l 1
 1517 0 l 1
 881 0 l 1
 895 91 l 1
 1107 159 l 1
 972 534 l 1
 455 534 l 1
 316 153 l 1
 546 99 l 1
 532 0 l 1
 -46 0 l 1
501 659 m 1
 936 659 l 1
 731 1277 l 1
 501 659 l 1
557 1922 m 1
 614 1962 l 1
 625 1941 l 1
 649 1892 707 1837 790 1837 c 0
 877 1837 934 1889 967 1942 c 1
 979 1964 l 1
 1029 1928 l 1
 1021 1904 l 2
 987 1805 912 1703 790 1703 c 0
 660 1703 588 1802 564 1897 c 2
 557 1922 l 1
EndSplineSet
EndChar

StartChar: Acaron
Encoding: 461 461 5
Width: 1525
VWidth: 0
Flags: W
HStem: 0 99<519.013 532 895 917.387 1508.05 1517> 534 125<501 936> 1546 20G<778.579 883.808>
DStem2: 149 159 316 153 0.367522 0.930015<55.7961 461.217 594.375 979.903> 629 1962 530 1886 0.733148 -0.680069<0 254.538> 690 1528 731 1277 0.367522 0.930015<-1408.53 -1010.8 -877.645 -218.365> 877 1566 731 1277 0.322251 -0.946654<226.534 877.628 1007.56 1406.06> 824 1785 819 1699 0.69226 0.721648<0 230.069>
LayerCount: 2
Fore
SplineSet
-46 0 m 1
 -34 91 l 1
 149 159 l 1
 690 1528 l 1
 877 1566 l 1
 1358 153 l 1
 1528 99 l 1
 1517 0 l 1
 881 0 l 1
 895 91 l 1
 1107 159 l 1
 972 534 l 1
 455 534 l 1
 316 153 l 1
 546 99 l 1
 532 0 l 1
 -46 0 l 1
501 659 m 1
 936 659 l 1
 731 1277 l 1
 501 659 l 1
530 1886 m 1
 629 1962 l 1
 812 1785 l 1
 824 1785 l 1
 976 1958 l 1
 1031 1920 l 1
 819 1699 l 1
 751 1681 l 1
 530 1886 l 1
EndSplineSet
EndChar

StartChar: Acircumflex
Encoding: 194 194 6
Width: 1525
VWidth: 0
Flags: W
HStem: 0 99<519.013 532 895 917.387 1508.05 1517> 534 125<501 936> 1546 20G<778.579 883.808>
DStem2: 149 159 316 153 0.367522 0.930015<55.7961 461.217 594.375 979.903> 690 1528 731 1277 0.367522 0.930015<-1408.53 -1010.8 -877.645 -218.365> 877 1566 731 1277 0.322251 -0.946654<226.534 877.628 1007.56 1406.06>
LayerCount: 2
Fore
SplineSet
-46 0 m 1
 -34 91 l 1
 149 159 l 1
 690 1528 l 1
 877 1566 l 1
 1358 153 l 1
 1528 99 l 1
 1517 0 l 1
 881 0 l 1
 895 91 l 1
 1107 159 l 1
 972 534 l 1
 455 534 l 1
 316 153 l 1
 546 99 l 1
 532 0 l 1
 -46 0 l 1
501 659 m 1
 936 659 l 1
 731 1277 l 1
 501 659 l 1
547 1719 m 1
 755 1941 l 1
 823 1958 l 1
 1042 1729 l 1
 981 1684 l 1
 780 1818 l 1
 767 1818 l 1
 593 1681 l 1
 547 1719 l 1
EndSplineSet
EndChar

StartChar: Adieresis
Encoding: 196 196 7
Width: 1525
VWidth: 0
Flags: W
HStem: 0 99<519.013 532 895 917.387 1508.05 1517> 534 125<501 936> 1546 20G<778.579 883.808> 1695 195<538.513 714.597 868.513 1046.05>
VStem: 522 209<1712.81 1872.1> 852 211<1714.16 1870.75>
DStem2: 149 159 316 153 0.367522 0.930015<55.7961 461.217 594.375 979.903> 690 1528 731 1277 0.367522 0.930015<-1408.53 -1010.8 -877.645 -218.365> 877 1566 731 1277 0.322251 -0.946654<226.534 877.628 1007.56 1406.06>
LayerCount: 2
Fore
SplineSet
-46 0 m 1
 -34 91 l 1
 149 159 l 1
 690 1528 l 1
 877 1566 l 1
 1358 153 l 1
 1528 99 l 1
 1517 0 l 1
 881 0 l 1
 895 91 l 1
 1107 159 l 1
 972 534 l 1
 455 534 l 1
 316 153 l 1
 546 99 l 1
 532 0 l 1
 -46 0 l 1
501 659 m 1
 936 659 l 1
 731 1277 l 1
 501 659 l 1
522 1794 m 0
 522 1852 575 1890 625 1890 c 0
 679 1890 731 1851 731 1794 c 0
 731 1733 679 1695 625 1695 c 0
 572 1695 522 1733 522 1794 c 0
852 1794 m 0
 852 1852 905 1890 955 1890 c 0
 1009 1890 1063 1851 1063 1794 c 0
 1063 1733 1009 1695 955 1695 c 0
 902 1695 852 1733 852 1794 c 0
EndSplineSet
EndChar

StartChar: Agrave
Encoding: 192 192 8
Width: 1525
VWidth: 0
Flags: W
HStem: 0 99<519.013 532 895 917.387 1508.05 1517> 534 125<501 936> 1546 20G<778.579 883.808>
DStem2: 149 159 316 153 0.367522 0.930015<55.7961 461.217 594.375 979.903> 690 1528 731 1277 0.367522 0.930015<-1408.53 -1010.8 -877.645 -218.365> 877 1566 731 1277 0.327693 -0.944784<225.199 876.253 1404.68 1404.68>
LayerCount: 2
Fore
SplineSet
-46 0 m 1
 -34 91 l 1
 149 159 l 1
 690 1528 l 1
 877 1566 l 1
 1358 153 l 1
 1528 99 l 1
 1517 0 l 1
 881 0 l 1
 895 91 l 1
 1107 159 l 1
 972 534 l 1
 455 534 l 1
 316 153 l 1
 546 99 l 1
 532 0 l 1
 -46 0 l 1
501 659 m 1
 936 659 l 1
 731 1277 l 1
 501 659 l 1
539 2055 m 1
 682 2102 l 1
 845 1689 l 1
 774 1647 l 1
 539 2055 l 1
EndSplineSet
EndChar

StartChar: Amacron
Encoding: 256 256 9
Width: 1525
VWidth: 0
Flags: W
HStem: 0 99<519.013 532 895 917.387 1508.05 1517> 534 125<501 936> 1546 20G<778.579 883.808> 1708 125<530 1057>
DStem2: 149 159 316 153 0.367522 0.930015<55.7961 461.217 594.375 979.903> 690 1528 731 1277 0.367522 0.930015<-1408.53 -1010.8 -877.645 -218.365> 877 1566 731 1277 0.322251 -0.946654<226.534 877.628 1007.56 1406.06>
LayerCount: 2
Fore
SplineSet
-46 0 m 1
 -34 91 l 1
 149 159 l 1
 690 1528 l 1
 877 1566 l 1
 1358 153 l 1
 1528 99 l 1
 1517 0 l 1
 881 0 l 1
 895 91 l 1
 1107 159 l 1
 972 534 l 1
 455 534 l 1
 316 153 l 1
 546 99 l 1
 532 0 l 1
 -46 0 l 1
501 659 m 1
 936 659 l 1
 731 1277 l 1
 501 659 l 1
513 1708 m 1
 530 1833 l 1
 1073 1833 l 1
 1057 1708 l 1
 513 1708 l 1
EndSplineSet
EndChar

StartChar: Aogonek
Encoding: 260 260 10
Width: 1525
VWidth: 0
Flags: W
HStem: 0 99<519.013 532 895 917.387 1508.05 1517> 534 125<501 936> 1546 20G<778.579 883.808>
VStem: 1158 184<-316.521 -129.358>
DStem2: 149 159 316 153 0.367522 0.930015<55.7961 461.217 594.375 979.903> 690 1528 731 1277 0.367522 0.930015<-1408.53 -1010.8 -877.645 -218.365> 877 1566 731 1277 0.322251 -0.946654<226.534 877.628 1007.56 1406.06>
LayerCount: 2
Fore
SplineSet
-46 0 m 1
 -34 91 l 1
 149 159 l 1
 690 1528 l 1
 877 1566 l 1
 1358 153 l 1
 1528 99 l 1
 1517 0 l 1
 1415 0 l 1
 1344 -117 1342 -161 1342 -183 c 0
 1342 -260 1384 -349 1495 -414 c 1
 1452 -477 l 1
 1274 -459 1158 -363 1158 -257 c 0
 1158 -193 1179 -128 1324 0 c 1
 881 0 l 1
 895 91 l 1
 1107 159 l 1
 972 534 l 1
 455 534 l 1
 316 153 l 1
 546 99 l 1
 532 0 l 1
 -46 0 l 1
501 659 m 1
 936 659 l 1
 731 1277 l 1
 501 659 l 1
EndSplineSet
EndChar

StartChar: Aring
Encoding: 197 197 11
Width: 1525
VWidth: 0
Flags: W
HStem: 0 99<519.013 532 895 917.387 1508.05 1517> 534 125<501 936> 1546 20G<778.579 883.808> 1688 60<728.443 871.447> 2045 59<719.504 857.799>
VStem: 593 89<1780.26 2021.23> 906 87<1773.12 2009.12>
DStem2: 149 159 316 153 0.367522 0.930015<55.7961 461.217 594.375 979.903> 690 1528 731 1277 0.367522 0.930015<-1408.53 -1010.8 -877.645 -218.365> 877 1566 731 1277 0.322251 -0.946654<226.534 877.628 1007.56 1406.06>
LayerCount: 2
Fore
SplineSet
-46 0 m 1
 -34 91 l 1
 149 159 l 1
 690 1528 l 1
 877 1566 l 1
 1358 153 l 1
 1528 99 l 1
 1517 0 l 1
 881 0 l 1
 895 91 l 1
 1107 159 l 1
 972 534 l 1
 455 534 l 1
 316 153 l 1
 546 99 l 1
 532 0 l 1
 -46 0 l 1
501 659 m 1
 936 659 l 1
 731 1277 l 1
 501 659 l 1
593 1892 m 0
 593 2006 686 2104 801 2104 c 0
 919 2104 993 2019 993 1904 c 0
 993 1793 911 1688 785 1688 c 0
 671 1688 593 1766 593 1892 c 0
682 1905 m 0
 682 1830 720 1748 799 1748 c 0
 866 1748 906 1798 906 1888 c 0
 906 1965 863 2045 786 2045 c 0
 713 2045 682 1974 682 1905 c 0
EndSplineSet
EndChar

StartChar: Atilde
Encoding: 195 195 12
Width: 1525
VWidth: 0
Flags: W
HStem: 0 99<519.013 532 895 917.387 1508.05 1517> 534 125<501 936> 1546 20G<778.579 883.808> 1718 129<837.836 1008.03> 1757 128<566.066 730.125>
DStem2: 149 159 316 153 0.367522 0.930015<55.7961 461.217 594.375 979.903> 670 1884 626 1757 0.990655 -0.136394<-16.7439 267.101> 690 1528 731 1277 0.367522 0.930015<-1408.53 -1010.8 -877.645 -218.365> 877 1566 731 1277 0.322251 -0.946654<226.534 877.628 1007.56 1406.06>
LayerCount: 2
Fore
SplineSet
-46 0 m 1xe0
 -34 91 l 1
 149 159 l 1
 690 1528 l 1
 877 1566 l 1
 1358 153 l 1
 1528 99 l 1
 1517 0 l 1
 881 0 l 1
 895 91 l 1
 1107 159 l 1
 972 534 l 1
 455 534 l 1
 316 153 l 1
 546 99 l 1
 532 0 l 1
 -46 0 l 1xe0
501 659 m 1
 936 659 l 1
 731 1277 l 1
 501 659 l 1
502 1708 m 1
 502 1708 543 1885 653 1885 c 0xe8
 658 1885 665 1885 670 1884 c 2
 944 1847 l 1
 949 1847 l 2
 980 1847 1019 1897 1019 1897 c 1
 1077 1896 l 1
 1077 1896 1031 1718 917 1718 c 0xf0
 912 1718 907 1718 902 1719 c 2
 626 1757 l 1
 623 1757 l 2xe8
 588 1757 550 1699 550 1699 c 1
 502 1708 l 1
EndSplineSet
EndChar

StartChar: B
Encoding: 66 66 13
Width: 1417
VWidth: 0
Flags: W
HStem: 0 118<519 963.629> 0 91<75 126.165> 747 103<519 903.925> 1400 95<83 155.025> 1446 106<524.243 838.332>
VStem: 282 237<149 747 850 1364> 998 232<1012.33 1294.27> 1116 242<275.425 594.528>
LayerCount: 2
Fore
SplineSet
62 0 m 1x65
 75 91 l 1
 282 149 l 1
 282 1364 l 1
 71 1400 l 1
 83 1495 l 1x75
 262 1521 471 1552 690 1552 c 0
 1073 1552 1230 1380 1230 1194 c 0x2e
 1230 1066 1170 910 976 839 c 1
 976 830 l 1
 1229 816 1358 632 1358 469 c 0
 1358 237 1198 0 701 0 c 2xad
 62 0 l 1x65
519 118 m 1xa5
 790 118 l 2
 1005 118 1116 270 1116 429 c 0
 1116 582 1010 747 794 747 c 2
 519 747 l 1
 519 118 l 1xa5
519 850 m 1
 837 850 l 1
 943 895 998 982 998 1123 c 0
 998 1276 917 1446 617 1446 c 0x2e
 587 1446 552 1443 519 1438 c 1
 519 850 l 1
EndSplineSet
EndChar

StartChar: C
Encoding: 67 67 14
Width: 1424
VWidth: 0
Flags: W
HStem: -30 167<693.241 1051.25> 1450 117<623.608 1012.44>
VStem: 75 265<535.032 1008.19> 1169 109<1050 1126.18>
LayerCount: 2
Fore
SplineSet
75 728 m 0
 75 1092 304 1567 869 1567 c 0
 1032 1567 1198 1534 1316 1444 c 1
 1278 1034 l 1
 1169 1050 l 1
 1118 1321 l 1
 1061 1394 958 1450 799 1450 c 0
 542 1450 340 1211 340 813 c 0
 340 370 606 137 899 137 c 0
 1065 137 1225 224 1331 322 c 1
 1374 228 l 1
 1276 110 1061 -30 804 -30 c 0
 425 -30 75 235 75 728 c 0
EndSplineSet
EndChar

StartChar: Cacute
Encoding: 262 262 15
Width: 1424
VWidth: 0
Flags: W
HStem: -30 167<693.241 1051.25> 1450 117<623.608 1012.44>
VStem: 75 265<535.032 1008.19> 1169 109<1050 1126.18>
LayerCount: 2
Fore
SplineSet
75 728 m 0
 75 1092 304 1567 869 1567 c 0
 1032 1567 1198 1534 1316 1444 c 1
 1278 1034 l 1
 1169 1050 l 1
 1118 1321 l 1
 1061 1394 958 1450 799 1450 c 0
 542 1450 340 1211 340 813 c 0
 340 370 606 137 899 137 c 0
 1065 137 1225 224 1331 322 c 1
 1374 228 l 1
 1276 110 1061 -30 804 -30 c 0
 425 -30 75 235 75 728 c 0
746 1711 m 1
 896 2112 l 1
 1035 2063 l 1
 808 1672 l 1
 746 1711 l 1
EndSplineSet
EndChar

StartChar: Ccaron
Encoding: 268 268 16
Width: 1424
VWidth: 0
Flags: W
HStem: -30 167<693.241 1051.25> 1450 117<623.608 1012.44>
VStem: 75 265<535.032 1008.19> 1169 109<1050 1126.18>
DStem2: 682 1962 583 1886 0.733148 -0.680069<0 255.271> 879 1785 872 1699 0.693955 0.720019<0 230.044>
LayerCount: 2
Fore
SplineSet
75 728 m 0
 75 1092 304 1567 869 1567 c 0
 1032 1567 1198 1534 1316 1444 c 1
 1278 1034 l 1
 1169 1050 l 1
 1118 1321 l 1
 1061 1394 958 1450 799 1450 c 0
 542 1450 340 1211 340 813 c 0
 340 370 606 137 899 137 c 0
 1065 137 1225 224 1331 322 c 1
 1374 228 l 1
 1276 110 1061 -30 804 -30 c 0
 425 -30 75 235 75 728 c 0
583 1886 m 1
 682 1962 l 1
 866 1785 l 1
 879 1785 l 1
 1031 1958 l 1
 1085 1920 l 1
 872 1699 l 1
 804 1681 l 1
 583 1886 l 1
EndSplineSet
EndChar

StartChar: Ccedilla
Encoding: 199 199 17
Width: 1425
VWidth: 0
Flags: W
HStem: -481 72<726.022 770.137> -30 167<699.411 819> 1450 117<624.543 1009.87>
VStem: 75 265<535.032 1008.19> 813 165<-376.404 -218.266> 1169 109<1050 1127.7>
LayerCount: 2
Fore
SplineSet
75 728 m 0
 75 1092 306 1567 871 1567 c 0
 1034 1567 1199 1534 1317 1444 c 1
 1278 1034 l 1
 1169 1050 l 1
 1119 1321 l 1
 1062 1394 958 1450 799 1450 c 0
 542 1450 340 1211 340 813 c 0
 340 370 607 137 900 137 c 0
 1066 137 1225 224 1331 322 c 1
 1376 228 l 1
 1293 128 1124 11 918 -22 c 1
 868 -94 l 1
 914 -135 978 -197 978 -280 c 0
 978 -378 874 -439 731 -481 c 1
 706 -409 l 1
 777 -385 813 -343 813 -306 c 0
 813 -264 768 -212 723 -170 c 1
 819 -30 l 1
 805 -30 l 2
 426 -30 75 235 75 728 c 0
EndSplineSet
EndChar

StartChar: D
Encoding: 68 68 19
Width: 1685
VWidth: 0
Flags: W
HStem: 0 128<524 965.478> 0 91<75 119.905> 1399 94<86 157.529> 1427 127<529.776 934.706>
VStem: 288 236<159 1362> 1350 261<542.466 1003.19>
LayerCount: 2
Fore
SplineSet
58 0 m 1x4c
 75 91 l 1
 288 159 l 1
 288 1362 l 1
 75 1399 l 1
 86 1493 l 1x6c
 329 1531 541 1554 720 1554 c 0
 1414 1554 1611 1187 1611 807 c 0
 1611 385 1300 0 668 0 c 2x9c
 58 0 l 1x4c
524 128 m 1x9c
 703 128 l 2
 1142 128 1350 409 1350 739 c 0
 1350 1118 1129 1427 674 1427 c 0
 624 1427 574 1426 524 1421 c 1
 524 128 l 1x9c
EndSplineSet
EndChar

StartChar: Dcaron
Encoding: 270 270 20
Width: 1685
VWidth: 0
Flags: W
HStem: 0 128<524 965.478> 0 91<75 119.905> 1399 94<86 157.529> 1427 127<529.776 934.706>
VStem: 288 236<159 1362> 1350 261<542.466 1003.19>
DStem2: 652 1962 553 1886 0.733148 -0.680069<0 254.538> 847 1785 842 1699 0.69226 0.721648<0 231.453>
LayerCount: 2
Fore
SplineSet
58 0 m 1x4c
 75 91 l 1
 288 159 l 1
 288 1362 l 1
 75 1399 l 1
 86 1493 l 1x6c
 329 1531 541 1554 720 1554 c 0
 1414 1554 1611 1187 1611 807 c 0
 1611 385 1300 0 668 0 c 2x9c
 58 0 l 1x4c
524 128 m 1x9c
 703 128 l 2
 1142 128 1350 409 1350 739 c 0
 1350 1118 1129 1427 674 1427 c 0
 624 1427 574 1426 524 1421 c 1
 524 128 l 1x9c
553 1886 m 1
 652 1962 l 1
 835 1785 l 1
 847 1785 l 1
 1001 1958 l 1
 1054 1920 l 1
 842 1699 l 1
 774 1681 l 1
 553 1886 l 1
EndSplineSet
EndChar

StartChar: Dcroat
Encoding: 272 272 21
Width: 1709
VWidth: 0
Flags: W
HStem: 0 128<535 1014.9> 0 91<87 131.695> 1400 95<96 171.423> 1429 127<540.65 948.148>
VStem: 299 236<159 703 830 1364> 1373 265<567.854 1006.19>
DStem2: 91 799 76 686 0.997221 0.0744975<0 200.27 445.076 741.75>
LayerCount: 2
Fore
SplineSet
76 686 m 1x4c
 91 799 l 1
 299 815 l 1
 299 1364 l 1
 87 1400 l 1
 96 1495 l 1x6c
 339 1533 552 1556 731 1556 c 0
 1425 1556 1638 1193 1638 813 c 0
 1638 411 1312 0 702 0 c 2x9c
 71 0 l 1
 87 91 l 1
 299 159 l 1
 299 703 l 1
 76 686 l 1x4c
535 128 m 1x9c
 796 128 l 2
 1202 128 1373 423 1373 739 c 0
 1373 1118 1146 1429 686 1429 c 0
 636 1429 585 1426 535 1421 c 1
 535 830 l 1
 853 856 l 1
 839 743 l 1
 535 718 l 1
 535 128 l 1x9c
EndSplineSet
EndChar

StartChar: E
Encoding: 69 69 22
Width: 1411
VWidth: 0
Flags: W
HStem: 0 118<526 1138> 0 91<80 131.165> 720 115<526 865> 1423 113<526 1108> 1442 94<75 125.247>
VStem: 287 239<149 720 835 1391> 906 106<520 579.526> 1158 108<1157 1233.27>
LayerCount: 2
Fore
SplineSet
62 1442 m 1x6f
 75 1536 l 1
 1304 1536 l 1x6f
 1266 1141 l 1
 1158 1157 l 1
 1108 1423 l 1
 526 1423 l 1
 526 835 l 1
 884 835 l 1
 936 983 l 1
 1053 1000 l 1
 1012 520 l 1
 906 504 l 1
 865 720 l 1
 526 720 l 1
 526 118 l 1
 1138 118 l 1xb7
 1259 402 l 1
 1361 387 l 1
 1324 0 l 1
 71 0 l 1
 80 91 l 1
 287 149 l 1
 287 1391 l 1
 62 1442 l 1x6f
EndSplineSet
EndChar

StartChar: Eacute
Encoding: 201 201 23
Width: 1411
VWidth: 0
Flags: W
HStem: 0 118<526 1138> 0 91<80 131.165> 720 115<526 865> 1423 113<526 1108> 1442 94<75 125.247>
VStem: 287 239<149 720 835 1391> 906 106<520 579.526> 1158 108<1157 1233.27>
LayerCount: 2
Fore
SplineSet
62 1442 m 1x6f
 75 1536 l 1
 1304 1536 l 1x6f
 1266 1141 l 1
 1158 1157 l 1
 1108 1423 l 1
 526 1423 l 1
 526 835 l 1
 884 835 l 1
 936 983 l 1
 1053 1000 l 1
 1012 520 l 1
 906 504 l 1
 865 720 l 1
 526 720 l 1
 526 118 l 1
 1138 118 l 1xb7
 1259 402 l 1
 1361 387 l 1
 1324 0 l 1
 71 0 l 1
 80 91 l 1
 287 149 l 1
 287 1391 l 1
 62 1442 l 1x6f
638 1711 m 1
 790 2112 l 1
 928 2063 l 1
 702 1672 l 1
 638 1711 l 1
EndSplineSet
EndChar

StartChar: Ecaron
Encoding: 282 282 24
Width: 1411
VWidth: 0
Flags: W
HStem: 0 118<526 1138> 0 91<80 131.165> 720 115<526 865> 1423 113<526 1108> 1442 94<75 125.247>
VStem: 287 239<149 720 835 1391> 906 106<520 579.526> 1158 108<1157 1233.27>
DStem2: 576 1962 477 1886 0.733148 -0.680069<0 254.538> 771 1785 766 1699 0.69226 0.721648<0 230.761>
LayerCount: 2
Fore
SplineSet
62 1442 m 1x6f
 75 1536 l 1
 1304 1536 l 1x6f
 1266 1141 l 1
 1158 1157 l 1
 1108 1423 l 1
 526 1423 l 1
 526 835 l 1
 884 835 l 1
 936 983 l 1
 1053 1000 l 1
 1012 520 l 1
 906 504 l 1
 865 720 l 1
 526 720 l 1
 526 118 l 1
 1138 118 l 1xb7
 1259 402 l 1
 1361 387 l 1
 1324 0 l 1
 71 0 l 1
 80 91 l 1
 287 149 l 1
 287 1391 l 1
 62 1442 l 1x6f
477 1886 m 1
 576 1962 l 1
 759 1785 l 1
 771 1785 l 1
 924 1958 l 1
 978 1920 l 1
 766 1699 l 1
 698 1681 l 1
 477 1886 l 1
EndSplineSet
EndChar

StartChar: Edieresis
Encoding: 203 203 26
Width: 1411
VWidth: 0
Flags: W
HStem: 0 118<526 1138> 0 91<80 131.165> 720 115<526 865> 1423 113<526 1108> 1442 94<75 125.247> 1695 195<485.513 661.597 815.513 993.051>
VStem: 287 239<149 720 835 1391> 469 209<1712.81 1872.1> 799 211<1714.16 1870.75> 906 106<520 579.526> 1158 108<1157 1233.27>
LayerCount: 2
Fore
SplineSet
62 1442 m 1x6e60
 75 1536 l 1
 1304 1536 l 1x6e60
 1266 1141 l 1
 1158 1157 l 1
 1108 1423 l 1
 526 1423 l 1
 526 835 l 1
 884 835 l 1
 936 983 l 1
 1053 1000 l 1
 1012 520 l 1
 906 504 l 1
 865 720 l 1
 526 720 l 1
 526 118 l 1
 1138 118 l 1xb660
 1259 402 l 1
 1361 387 l 1
 1324 0 l 1
 71 0 l 1
 80 91 l 1
 287 149 l 1
 287 1391 l 1
 62 1442 l 1x6e60
469 1794 m 0x2520
 469 1852 522 1890 572 1890 c 0
 626 1890 678 1851 678 1794 c 0
 678 1733 626 1695 572 1695 c 0
 519 1695 469 1733 469 1794 c 0x2520
799 1794 m 0x24a0
 799 1852 852 1890 902 1890 c 0
 956 1890 1010 1851 1010 1794 c 0
 1010 1733 956 1695 902 1695 c 0
 849 1695 799 1733 799 1794 c 0x24a0
EndSplineSet
EndChar

StartChar: Edotaccent
Encoding: 278 278 27
Width: 1411
VWidth: 0
Flags: W
HStem: 0 118<526 1138> 0 91<80 131.165> 720 115<526 865> 1423 113<526 1108> 1442 94<75 125.247> 1675 264<640.154 837.084>
VStem: 287 239<149 720 835 1391> 606 266<1709.71 1904.85> 906 106<520 579.526> 1158 108<1157 1233.27>
LayerCount: 2
Fore
SplineSet
62 1442 m 1x6fc0
 75 1536 l 1
 1304 1536 l 1x6fc0
 1266 1141 l 1
 1158 1157 l 1
 1108 1423 l 1
 526 1423 l 1
 526 835 l 1
 884 835 l 1
 936 983 l 1
 1053 1000 l 1
 1012 520 l 1
 906 504 l 1
 865 720 l 1
 526 720 l 1
 526 118 l 1
 1138 118 l 1xb7c0
 1259 402 l 1
 1361 387 l 1
 1324 0 l 1
 71 0 l 1
 80 91 l 1
 287 149 l 1
 287 1391 l 1
 62 1442 l 1x6fc0
606 1808 m 0
 606 1880 665 1939 737 1939 c 0
 810 1939 872 1881 872 1808 c 0
 872 1733 812 1675 737 1675 c 0
 664 1675 606 1735 606 1808 c 0
EndSplineSet
EndChar

StartChar: Egrave
Encoding: 200 200 28
Width: 1411
VWidth: 0
Flags: W
HStem: 0 118<526 1138> 0 91<80 131.165> 720 115<526 865> 1423 113<526 1108> 1442 94<75 125.247>
VStem: 287 239<149 720 835 1391> 906 106<520 579.526> 1158 108<1157 1233.27>
LayerCount: 2
Fore
SplineSet
62 1442 m 1x6f
 75 1536 l 1
 1304 1536 l 1x6f
 1266 1141 l 1
 1158 1157 l 1
 1108 1423 l 1
 526 1423 l 1
 526 835 l 1
 884 835 l 1
 936 983 l 1
 1053 1000 l 1
 1012 520 l 1
 906 504 l 1
 865 720 l 1
 526 720 l 1
 526 118 l 1
 1138 118 l 1xb7
 1259 402 l 1
 1361 387 l 1
 1324 0 l 1
 71 0 l 1
 80 91 l 1
 287 149 l 1
 287 1391 l 1
 62 1442 l 1x6f
547 2055 m 1
 690 2102 l 1
 853 1689 l 1
 782 1647 l 1
 547 2055 l 1
EndSplineSet
EndChar

StartChar: Emacron
Encoding: 274 274 29
Width: 1411
VWidth: 0
Flags: W
HStem: 0 118<526 1138> 0 91<80 131.165> 720 115<526 865> 1423 113<526 1108> 1442 94<75 125.247> 1708 125<477 1004>
VStem: 287 239<149 720 835 1391> 906 106<520 579.526> 1158 108<1157 1233.27>
LayerCount: 2
Fore
SplineSet
62 1442 m 1x6f80
 75 1536 l 1
 1304 1536 l 1x6f80
 1266 1141 l 1
 1158 1157 l 1
 1108 1423 l 1
 526 1423 l 1
 526 835 l 1
 884 835 l 1
 936 983 l 1
 1053 1000 l 1
 1012 520 l 1
 906 504 l 1
 865 720 l 1
 526 720 l 1
 526 118 l 1
 1138 118 l 1xb780
 1259 402 l 1
 1361 387 l 1
 1324 0 l 1
 71 0 l 1
 80 91 l 1
 287 149 l 1
 287 1391 l 1
 62 1442 l 1x6f80
460 1708 m 1
 477 1833 l 1
 1020 1833 l 1
 1004 1708 l 1
 460 1708 l 1
EndSplineSet
EndChar

StartChar: Eng
Encoding: 330 330 30
Width: 1717
VWidth: 0
Flags: W
HStem: -473 21G<1020.81 1068> 0 91<80 131.165 605.201 657> 1442 94<75 114.026 1088 1137.37 1595.17 1658>
VStem: 287 157<149 1187> 1302 150<335 1391>
DStem2: 509 1536 444 1187 0.551007 -0.834501<255.425 1439.18>
LayerCount: 2
Fore
SplineSet
62 1442 m 5
 75 1536 l 1
 509 1536 l 1
 1302 335 l 1
 1302 1391 l 1
 1073 1442 l 1
 1088 1536 l 1
 1675 1536 l 1
 1658 1442 l 1
 1452 1395 l 1
 1452 186 l 2
 1452 -162 1273 -338 1086 -443 c 2
 1032 -473 l 1
 971 -364 l 1
 1076 -287 1183 -183 1225 19 c 1
 444 1187 l 1
 444 141 l 1
 670 99 l 1
 657 0 l 1
 71 0 l 1
 80 91 l 1
 287 149 l 1
 287 1380 l 1
 62 1442 l 5
EndSplineSet
EndChar

StartChar: Eogonek
Encoding: 280 280 31
Width: 1411
VWidth: 0
Flags: W
HStem: -477 63<1285.19 1295.56> 0 118<526 1138> 0 91<80 131.165> 720 115<526 865> 1423 113<526 1108> 1442 94<75 125.247>
VStem: 287 239<149 720 835 1391> 906 106<520 579.526> 993 182<-316.521 -128.045> 1158 108<1157 1233.27>
LayerCount: 2
Fore
SplineSet
62 1442 m 1xb680
 75 1536 l 1
 1304 1536 l 1xb680
 1266 1141 l 1
 1158 1157 l 1
 1108 1423 l 1
 526 1423 l 1
 526 835 l 1
 884 835 l 1
 936 983 l 1
 1053 1000 l 1
 1012 520 l 1
 906 504 l 1
 865 720 l 1
 526 720 l 1
 526 118 l 1
 1138 118 l 1xdb40
 1259 402 l 1
 1361 387 l 1
 1324 0 l 1
 1249 0 l 1
 1178 -117 1175 -161 1175 -183 c 0
 1175 -260 1217 -349 1328 -414 c 1
 1286 -477 l 1
 1108 -459 993 -363 993 -257 c 0
 993 -193 1012 -128 1157 0 c 1
 71 0 l 1
 80 91 l 1
 287 149 l 1
 287 1391 l 1
 62 1442 l 1xb680
EndSplineSet
EndChar

StartChar: Eth
Encoding: 208 208 32
Width: 1698
VWidth: 0
Flags: W
HStem: 0 128<524 1003.9> 0 91<75 119.905> 1400 95<86 159.821> 1429 127<529.776 936.71>
VStem: 288 236<159 703 830 1364> 1362 265<567.854 1006.19>
DStem2: 79 799 65 686 0.997221 0.0744975<0 201.267 446.073 741.75>
LayerCount: 2
Fore
SplineSet
65 686 m 1x4c
 79 799 l 1
 288 815 l 1
 288 1364 l 1
 75 1400 l 1
 86 1495 l 1x6c
 329 1533 541 1556 720 1556 c 0
 1414 1556 1627 1193 1627 813 c 0
 1627 411 1301 0 691 0 c 2x9c
 58 0 l 1
 75 91 l 1
 288 159 l 1
 288 703 l 1
 65 686 l 1x4c
524 128 m 1x9c
 785 128 l 2
 1191 128 1362 423 1362 739 c 0
 1362 1118 1134 1429 674 1429 c 0
 624 1429 574 1426 524 1421 c 1
 524 830 l 1
 842 856 l 1
 827 743 l 1
 524 718 l 1
 524 128 l 1x9c
EndSplineSet
EndChar

StartChar: Euro
Encoding: 8364 8364 33
Width: 1434
VWidth: 0
Flags: W
HStem: -30 133<746.124 1081.34> 578 122<-5 1022> 804 122<7 1083> 1450 117<686.916 1043.24>
VStem: 175 262<613.282 927.944> 1186 108<1050 1124.71> 1206 109<417.806 495>
LayerCount: 2
Back
SplineSet
-43 638 m 1
 -41 720 l 1
 940 720 l 1
 924 638 l 1
 -43 638 l 1
-35 854 m 1
 -33 935 l 1
 997 935 l 1
 981 854 l 1
 -35 854 l 1
175 720 m 0
 175 1185 388 1567 847 1567 c 0
 1011 1567 1105 1534 1224 1444 c 1
 1184 1028 l 1
 1130 1038 l 1
 1093 1358 l 1
 1044 1441 981 1487 842 1487 c 0
 507 1487 326 1207 326 759 c 0
 326 285 527 53 840 53 c 0
 918 53 1030 99 1112 212 c 1
 1150 533 l 1
 1205 540 l 1
 1244 127 l 1
 1099 24 979 -31 777 -31 c 0
 424 -31 175 265 175 720 c 0
EndSplineSet
Fore
SplineSet
-17 578 m 1xf8
 -5 700 l 1
 1048 700 l 1
 1022 578 l 1
 -17 578 l 1xf8
175 785 m 0
 175 1132 428.289 1567 926 1567 c 0
 1089 1567 1214 1534 1332 1444 c 1
 1294 1034 l 1
 1186 1050 l 1xfc
 1134 1321 l 1
 1077 1394 1015 1450 856 1450 c 0
 577.025 1450 437 1192 437 823 c 3
 437 424 612.894 103 926 103 c 0
 1003 103 1096 134 1154 215 c 1
 1206 495 l 1
 1315 511 l 1xfa
 1353 137 l 1
 1198 15 1067 -30 865 -30 c 0
 448 -30 175 288 175 785 c 0
-5 804 m 1
 7 926 l 1
 1109 926 l 1
 1083 804 l 1
 -5 804 l 1
EndSplineSet
Colour: ff0000
EndChar

StartChar: F
Encoding: 70 70 34
Width: 1315
VWidth: 0
Flags: W
HStem: 0 91<80 131.165 745.993 800> 714 113<526 864> 1423 113<526 1100> 1442 94<75 125.247>
VStem: 287 239<151 714 827 1391> 902 108<509 575.752> 1142 109<1156 1247.14>
LayerCount: 2
Fore
SplineSet
62 1442 m 1xde
 75 1536 l 1
 1302 1536 l 1xde
 1251 1139 l 1
 1142 1156 l 1
 1100 1423 l 1
 526 1423 l 1xee
 526 827 l 1
 880 827 l 1
 932 976 l 1
 1043 993 l 1
 1010 509 l 1
 902 492 l 1
 864 714 l 1
 526 714 l 1
 523 151 l 1
 816 103 l 1
 800 0 l 1
 71 0 l 1
 80 91 l 1
 287 149 l 1
 287 1391 l 1
 62 1442 l 1xde
EndSplineSet
EndChar

StartChar: G
Encoding: 71 71 35
Width: 1605
VWidth: 0
Flags: W
HStem: -38 133<728.372 1150.13> 583 103<888 962.066> 1434 122<637.549 1061.53>
VStem: 75 266<529.17 990.007> 1165 242<126.077 536> 1270 107<1057 1132.18>
LayerCount: 2
Fore
SplineSet
75 714 m 0xf8
 75 1244 475 1556 885 1556 c 0
 1104 1556 1285 1509 1407 1436 c 1xf8
 1377 1038 l 1
 1270 1057 l 1xf4
 1225 1293 l 1
 1168 1350 1018 1434 824 1434 c 0
 581 1434 341 1251 341 799 c 0
 341 432 560 95 952 95 c 0
 1051 95 1131 127 1165 147 c 1
 1165 536 l 1
 873 583 l 1
 888 686 l 1
 1575 686 l 1
 1560 593 l 1
 1407 542 l 1
 1407 98 l 1
 1244 0 1059 -38 812 -38 c 0
 315 -38 75 293 75 714 c 0xf8
EndSplineSet
EndChar

StartChar: Gbreve
Encoding: 286 286 36
Width: 1605
VWidth: 0
Flags: W
HStem: -38 133<728.372 1150.13> 583 103<888 962.066> 1434 122<637.549 1061.53> 1703 134<807.442 1048.51>
VStem: 75 266<529.17 990.007> 693 66<1895.17 1932.06> 1165 242<126.077 536> 1270 107<1057 1132.18>
LayerCount: 2
Fore
SplineSet
75 714 m 0xfe
 75 1244 475 1556 885 1556 c 0
 1104 1556 1285 1509 1407 1436 c 1xfe
 1377 1038 l 1
 1270 1057 l 1xfd
 1225 1293 l 1
 1168 1350 1018 1434 824 1434 c 0
 581 1434 341 1251 341 799 c 0
 341 432 560 95 952 95 c 0
 1051 95 1131 127 1165 147 c 1
 1165 536 l 1
 873 583 l 1
 888 686 l 1
 1575 686 l 1
 1560 593 l 1
 1407 542 l 1
 1407 98 l 1
 1244 0 1059 -38 812 -38 c 0
 315 -38 75 293 75 714 c 0xfe
693 1922 m 1
 750 1962 l 1
 759 1941 l 1
 783 1892 843 1837 926 1837 c 0
 1013 1837 1068 1889 1101 1942 c 1
 1114 1964 l 1
 1165 1928 l 1
 1157 1904 l 2
 1123 1805 1048 1703 926 1703 c 0
 796 1703 722 1802 698 1897 c 2
 693 1922 l 1
EndSplineSet
EndChar

StartChar: Gcommaaccent
Encoding: 290 290 37
Width: 1605
VWidth: 0
Flags: W
HStem: -481 65<776.148 828.907> -38 133<728.372 1150.13> 583 103<888 962.066> 1434 122<637.549 1061.53>
VStem: 75 266<529.17 990.007> 873 136<-372.478 -238.791> 1165 242<126.077 536> 1270 107<1057 1132.18>
LayerCount: 2
Fore
SplineSet
75 714 m 0xfe
 75 1244 475 1556 885 1556 c 0
 1104 1556 1285 1509 1407 1436 c 1xfe
 1377 1038 l 1
 1270 1057 l 1xfd
 1225 1293 l 1
 1168 1350 1018 1434 824 1434 c 0
 581 1434 341 1251 341 799 c 0
 341 432 560 95 952 95 c 0
 1051 95 1131 127 1165 147 c 1
 1165 536 l 1
 873 583 l 1
 888 686 l 1
 1575 686 l 1
 1560 593 l 1
 1407 542 l 1
 1407 98 l 1
 1244 0 1059 -38 812 -38 c 0
 315 -38 75 293 75 714 c 0xfe
759 -416 m 1
 846 -394 873 -349 873 -304 c 0
 873 -263 802 -211 775 -208 c 1
 786 -155 826 -105 884 -105 c 0
 933 -105 1009 -141 1009 -251 c 0
 1009 -318 964 -438 781 -481 c 1
 759 -416 l 1
EndSplineSet
EndChar

StartChar: Germandbls
Encoding: 7838 7838 39
Width: 1585
VWidth: 0
Flags: W
HStem: -30 124<883.384 1218.09> 0 90<42 93.0563> 1108 21G<1273 1343> 1434 110<656.356 935.591>
VStem: 245 235<147 1205.56> 626 117<374.646 446> 643 210<1003.93 1219.86> 1297 225<197.07 431.772>
LayerCount: 2
Fore
SplineSet
32 0 m 1x7b
 42 90 l 1
 245 147 l 1
 245 928 l 2
 245 1362 486 1544 851 1544 c 0
 1080 1544 1444 1492 1444 1275 c 0
 1444 1181 1391 1140 1295 1108 c 1
 1251 1237 1205 1373 1064 1373 c 0
 960 1373 853 1270 853 1146 c 0x7b
 853 787 1522 840 1522 390 c 0
 1522 111 1297 -30 1020 -30 c 0
 845 -30 678 37 610 149 c 1
 626 464 l 1
 743 446 l 1
 787 227 l 1
 831 157 934 94 1048 94 c 0xbd
 1177 94 1297 136 1297 309 c 0
 1297 622 643 578 643 1024 c 0
 643 1225 767 1386 940 1426 c 1
 942 1430 l 1
 918 1432 859 1434 835 1434 c 0
 594 1434 478 1269 478 956 c 2
 480 0 l 1
 32 0 l 1x7b
EndSplineSet
EndChar

StartChar: Germandbls.alt
Encoding: 65537 -1 40
Width: 1585
VWidth: 0
Flags: W
HStem: -30 124<899.351 1204.73> 0 90<41 92.0563> 1434 110<644.158 1115.1>
VStem: 244 235<147 1175.28> 625 125<397.605 466> 1296 225<213.586 454.428>
DStem2: 724 849 1031 928 0.590391 0.807117<245.012 669.048>
LayerCount: 2
Fore
SplineSet
31 0 m 1x7c
 41 90 l 1x7c
 244 147 l 1
 244 837 l 2
 244 1377 485 1544 850 1544 c 0
 1051 1544 1328 1522 1400 1498 c 1
 1402 1410 l 1
 1031 928 l 1
 1139 852 1521 735 1521 410 c 0
 1521 131 1296 -30 1019 -30 c 0
 844 -30 677 47 609 159 c 1
 625 484 l 1
 750 466 l 1
 798 237 l 1
 842 167 933 94 1047 94 c 0xbc
 1176 94 1296 156 1296 329 c 0
 1296 534 953 673 752 789 c 1
 724 849 l 1
 1119 1389 l 1
 1119 1395 l 1
 1067 1417 858 1434 834 1434 c 0
 593 1434 477 1301 477 865 c 1
 479 0 l 1
 31 0 l 1x7c
EndSplineSet
EndChar

StartChar: Germandbls.alt2
Encoding: 65538 -1 41
Width: 1585
VWidth: 0
Flags: W
HStem: -30 124<890.528 1218.09> 0 90<42 93.0563> 1434 110<656.356 938.516>
VStem: 245 235<147 1205.56> 626 125<387.605 456> 643 210<1023.73 1233.9> 1269 120<1092 1191.01> 1297 225<197.07 432.458>
LayerCount: 2
Fore
SplineSet
32 0 m 1x75
 42 90 l 1
 245 147 l 1
 245 928 l 2
 245 1362 486 1544 851 1544 c 0
 1080 1544 1298 1496 1414 1422 c 1
 1389 1078 l 1
 1269 1092 l 1
 1237 1313 l 1
 1201 1341 1138 1375 1054 1375 c 0
 966 1375 853 1291 853 1167 c 0x76
 853 808 1522 840 1522 390 c 0
 1522 111 1297 -30 1020 -30 c 0
 845 -30 678 37 610 149 c 1
 626 474 l 1
 751 456 l 1
 799 227 l 1
 843 157 934 94 1048 94 c 0xb9
 1177 94 1297 136 1297 309 c 0
 1297 622 643 598 643 1044 c 0
 643 1245 767 1386 940 1426 c 1
 942 1430 l 1
 918 1432 859 1434 835 1434 c 0
 594 1434 478 1269 478 956 c 2
 480 0 l 1
 32 0 l 1x75
EndSplineSet
EndChar

StartChar: H
Encoding: 72 72 42
Width: 1826
VWidth: 0
Flags: W
HStem: 0 91<80 131.165 689.628 739 1097 1147.67 1702.77 1755> 728 126<527 1302> 1442 94<75 125.247 671.556 735 1089 1139.53 1686.17 1749>
VStem: 287 240<149 728 854 1391> 1302 241<149 731 854 1391>
LayerCount: 2
Fore
SplineSet
62 1442 m 5
 75 1536 l 5
 747 1536 l 5
 735 1442 l 1
 527 1395 l 1
 527 854 l 1
 1302 854 l 1
 1302 1391 l 1
 1076 1442 l 1
 1089 1536 l 1
 1763 1536 l 1
 1749 1442 l 1
 1543 1395 l 1
 1543 141 l 1
 1767 99 l 1
 1755 0 l 1
 1084 0 l 1
 1097 91 l 1
 1302 149 l 1
 1302 731 l 1
 527 728 l 1
 527 141 l 1
 755 99 l 1
 739 0 l 1
 71 0 l 1
 80 91 l 1
 287 149 l 1
 287 1391 l 5
 62 1442 l 5
EndSplineSet
EndChar

StartChar: Hbar
Encoding: 294 294 43
Width: 1836
VWidth: 0
Flags: W
HStem: 0 91<115 166.165 724.628 774 1132 1182.67 1737.77 1790> 728 126<562 1337> 1078 145<163 401 1466 1691> 1097 106<442 1436> 1442 94<110 160.247 706.556 770 1124 1174.53 1721.17 1784>
VStem: 322 240<149 728 854 1391> 1337 241<149 731 854 1391>
LayerCount: 2
Fore
SplineSet
152 1078 m 1xee
 163 1223 l 1
 401 1223 l 1xee
 442 1203 l 1
 1436 1203 l 1xde
 1460 1223 l 1
 1699 1223 l 1
 1691 1078 l 1
 1466 1078 l 1xee
 1436 1097 l 1
 435 1097 l 1xde
 401 1078 l 1
 152 1078 l 1xee
EndSplineSet
Refer: 42 72 N 1 0 0 1 35 0 2
EndChar

StartChar: I
Encoding: 73 73 44
Width: 810
VWidth: 0
Flags: W
HStem: 0 91<80 131.165 685.775 737> 1442 94<75 125.247 671.251 735>
VStem: 287 239<149 1391>
LayerCount: 2
Fore
SplineSet
62 1442 m 1
 75 1536 l 1
 747 1536 l 1
 735 1442 l 1
 526 1395 l 1
 526 141 l 5
 750 99 l 5
 737 0 l 5
 71 0 l 5
 80 91 l 5
 287 149 l 5
 287 1391 l 1
 62 1442 l 1
EndSplineSet
EndChar

StartChar: Iacute
Encoding: 205 205 45
Width: 810
VWidth: 0
Flags: W
HStem: 0 91<80 131.165 685.775 737> 1442 94<75 125.247 671.251 735>
VStem: 287 239<149 1391>
LayerCount: 2
Fore
SplineSet
62 1442 m 1
 75 1536 l 1
 747 1536 l 1
 735 1442 l 1
 526 1395 l 1
 526 141 l 1
 750 99 l 1
 737 0 l 1
 71 0 l 1
 80 91 l 1
 287 149 l 1
 287 1391 l 1
 62 1442 l 1
357 1711 m 1
 509 2112 l 1
 646 2063 l 1
 421 1672 l 1
 357 1711 l 1
EndSplineSet
EndChar

StartChar: Icaron
Encoding: 463 463 46
Width: 810
VWidth: 0
Flags: W
HStem: 0 91<80 131.165 685.775 737> 1442 94<75 125.247 671.251 735>
VStem: 287 239<149 1391>
DStem2: 243 1962 144 1886 0.733148 -0.680069<0 256.005> 440 1785 433 1699 0.693955 0.720019<0 230.044>
LayerCount: 2
Fore
SplineSet
62 1442 m 1
 75 1536 l 1
 747 1536 l 1
 735 1442 l 1
 526 1395 l 1
 526 141 l 1
 750 99 l 1
 737 0 l 1
 71 0 l 1
 80 91 l 1
 287 149 l 1
 287 1391 l 1
 62 1442 l 1
144 1886 m 1
 243 1962 l 1
 428 1785 l 1
 440 1785 l 1
 592 1958 l 1
 646 1920 l 1
 433 1699 l 1
 365 1681 l 1
 144 1886 l 1
EndSplineSet
EndChar

StartChar: Icircumflex
Encoding: 206 206 47
Width: 810
VWidth: 0
Flags: W
HStem: 0 91<80 131.165 685.775 737> 1442 94<75 125.247 671.251 735>
VStem: 287 239<149 1391>
LayerCount: 2
Fore
SplineSet
62 1442 m 1
 75 1536 l 1
 747 1536 l 1
 735 1442 l 1
 526 1395 l 1
 526 141 l 1
 750 99 l 1
 737 0 l 1
 71 0 l 1
 80 91 l 1
 287 149 l 1
 287 1391 l 1
 62 1442 l 1
163 1719 m 1
 369 1941 l 1
 437 1958 l 1
 657 1729 l 1
 596 1684 l 1
 394 1818 l 1
 382 1818 l 1
 209 1681 l 1
 163 1719 l 1
EndSplineSet
EndChar

StartChar: Idieresis
Encoding: 207 207 48
Width: 810
VWidth: 0
Flags: W
HStem: 0 91<80 131.165 685.775 737> 1442 94<75 125.247 671.251 735> 1695 195<152.513 328.597 482.513 660.778>
VStem: 136 209<1712.81 1872.1> 287 239<149 1391> 466 212<1714.16 1870.75>
LayerCount: 2
Fore
SplineSet
62 1442 m 1xe8
 75 1536 l 1
 747 1536 l 1
 735 1442 l 1
 526 1395 l 1
 526 141 l 1
 750 99 l 1
 737 0 l 1
 71 0 l 1
 80 91 l 1
 287 149 l 1
 287 1391 l 1
 62 1442 l 1xe8
136 1794 m 0xf0
 136 1852 189 1890 239 1890 c 0
 293 1890 345 1851 345 1794 c 0
 345 1733 293 1695 239 1695 c 0
 186 1695 136 1733 136 1794 c 0xf0
466 1794 m 0xe4
 466 1852 519 1890 569 1890 c 0
 623 1890 678 1851 678 1794 c 0
 678 1733 623 1695 569 1695 c 0
 516 1695 466 1733 466 1794 c 0xe4
EndSplineSet
EndChar

StartChar: Idotaccent
Encoding: 304 304 49
Width: 810
VWidth: 0
Flags: W
HStem: 0 91<80 131.165 685.775 737> 1442 94<75 125.247 671.251 735> 1680 292<300.651 508.375>
VStem: 255 299<1726.97 1928.72> 287 239<149 1391>
LayerCount: 2
Fore
SplineSet
62 1442 m 1xe8
 75 1536 l 1
 747 1536 l 1
 735 1442 l 1
 526 1395 l 1
 526 141 l 1
 750 99 l 1
 737 0 l 1
 71 0 l 1
 80 91 l 1
 287 149 l 1
 287 1391 l 1
 62 1442 l 1xe8
255 1833 m 0xf0
 255 1912 325 1972 402 1972 c 0
 483 1972 554 1910 554 1831 c 0
 554 1748 483 1680 402 1680 c 0
 321 1680 255 1750 255 1833 c 0xf0
EndSplineSet
EndChar

StartChar: Igrave
Encoding: 204 204 50
Width: 810
VWidth: 0
Flags: W
HStem: 0 91<80 131.165 685.775 737> 1442 94<75 125.247 671.251 735>
VStem: 287 239<149 1391>
LayerCount: 2
Fore
SplineSet
62 1442 m 1
 75 1536 l 1
 747 1536 l 1
 735 1442 l 1
 526 1395 l 1
 526 141 l 1
 750 99 l 1
 737 0 l 1
 71 0 l 1
 80 91 l 1
 287 149 l 1
 287 1391 l 1
 62 1442 l 1
164 2055 m 1
 307 2102 l 1
 470 1689 l 1
 399 1647 l 1
 164 2055 l 1
EndSplineSet
EndChar

StartChar: Imacron
Encoding: 298 298 51
Width: 810
VWidth: 0
Flags: W
HStem: 0 91<80 131.165 685.775 737> 1442 94<75 125.247 671.251 735> 1708 125<144 672>
VStem: 287 239<149 1391>
LayerCount: 2
Fore
SplineSet
62 1442 m 1
 75 1536 l 1
 747 1536 l 1
 735 1442 l 1
 526 1395 l 1
 526 141 l 1
 750 99 l 1
 737 0 l 1
 71 0 l 1
 80 91 l 1
 287 149 l 1
 287 1391 l 1
 62 1442 l 1
128 1708 m 1
 144 1833 l 1
 689 1833 l 1
 672 1708 l 1
 128 1708 l 1
EndSplineSet
EndChar

StartChar: Iogonek
Encoding: 302 302 52
Width: 821
VWidth: 0
Flags: W
HStem: 0 91<80 131.165 694.479 737> 1442 94<75 125.247 671.251 735>
VStem: 287 239<149 1391> 462 183<-314.664 -128.045>
LayerCount: 2
Fore
SplineSet
62 1442 m 1xe0
 75 1536 l 1
 747 1536 l 1
 735 1442 l 1
 526 1395 l 1
 526 141 l 1xe0
 750 99 l 1
 737 0 l 1
 718 0 l 1
 647 -117 645 -161 645 -183 c 0
 645 -260 688 -349 799 -414 c 1
 755 -477 l 1
 577 -459 462 -363 462 -257 c 0xd0
 462 -193 482 -128 627 0 c 1
 71 0 l 1
 80 91 l 1
 287 149 l 1
 287 1391 l 1
 62 1442 l 1xe0
EndSplineSet
EndChar

StartChar: J
Encoding: 74 74 53
Width: 789
VWidth: 0
Flags: W
HStem: 1442 94<76 126.966 672.946 737>
VStem: 287 239<67.6045 1391>
LayerCount: 2
Fore
SplineSet
-5 -293 m 1
 186 -111 287 45 287 243 c 2
 288 1391 l 1
 64 1442 l 1
 76 1536 l 1
 750 1536 l 1
 737 1442 l 1
 527 1395 l 1
 526 475 l 2
 525 -30 416 -170 62 -402 c 1
 -5 -293 l 1
EndSplineSet
EndChar

StartChar: K
Encoding: 75 75 54
Width: 1529
VWidth: 0
Flags: W
HStem: -26 21G<1266 1394> 0 91<79 123.695 709.124 750> 1442 94<75 111.876 689.599 742 869 907.21 1409.12 1463>
VStem: 291 239<159 1380>
DStem2: 747 985 784 807 0.6242 0.781265<-115.97 501.481>
LayerCount: 2
Fore
SplineSet
58 1442 m 1
 75 1536 l 1
 754 1536 l 1
 742 1442 l 1
 530 1384 l 1
 530 153 l 1
 763 99 l 1
 750 0 l 1
 67 0 l 1
 79 91 l 1
 291 159 l 1
 291 1380 l 1
 58 1442 l 1
560 773 m 1
 594 807 709 935 747 985 c 2
 1051 1384 l 1
 860 1442 l 1
 869 1536 l 1
 1478 1536 l 1
 1463 1442 l 1
 1245 1384 l 1
 784 807 l 1
 1065 475 l 2
 1252 254 1340 151 1498 102 c 2
 1544 87 l 1
 1531 1 l 1
 1474 -19 1419 -26 1369 -26 c 0
 1163 -26 1013 128 872 322 c 2
 561 747 l 1
 560 773 l 1
EndSplineSet
EndChar

StartChar: Kcommaaccent
Encoding: 310 310 55
Width: 1529
VWidth: 0
Flags: W
HStem: -507 66<814.004 866.907> -26 21G<1266 1394> 0 91<79 123.695 709.124 750> 1442 94<75 111.876 689.599 742 869 907.21 1409.12 1463>
VStem: 291 239<159 1380> 911 136<-397.931 -264.574>
DStem2: 747 985 784 807 0.6242 0.781265<-115.97 501.481>
LayerCount: 2
Fore
SplineSet
58 1442 m 1
 75 1536 l 1
 754 1536 l 1
 742 1442 l 1
 530 1384 l 1
 530 153 l 1
 763 99 l 1
 750 0 l 1
 67 0 l 1
 79 91 l 1
 291 159 l 1
 291 1380 l 1
 58 1442 l 1
560 773 m 1
 594 807 709 935 747 985 c 2
 1051 1384 l 1
 860 1442 l 1
 869 1536 l 1
 1478 1536 l 1
 1463 1442 l 1
 1245 1384 l 1
 784 807 l 1
 1065 475 l 2
 1252 254 1340 151 1498 102 c 2
 1544 87 l 1
 1531 1 l 1
 1474 -19 1419 -26 1369 -26 c 0
 1163 -26 1013 128 872 322 c 2
 561 747 l 1
 560 773 l 1
796 -441 m 1
 883 -419 911 -375 911 -330 c 0
 911 -289 839 -235 812 -232 c 1
 823 -179 864 -130 922 -130 c 0
 971 -130 1047 -166 1047 -276 c 0
 1047 -343 1002 -464 819 -507 c 1
 796 -441 l 1
EndSplineSet
EndChar

StartChar: L
Encoding: 76 76 56
Width: 1355
VWidth: 0
Flags: W
HStem: 0 118<527 1073> 0 91<83 133.67> 1442 94<72 109.644 686.599 739>
VStem: 288 239<149 1380>
LayerCount: 2
Fore
SplineSet
72 0 m 5x70
 83 91 l 5x70
 288 149 l 5
 288 1380 l 5
 56 1442 l 5
 72 1536 l 5
 751 1536 l 5
 739 1442 l 5
 527 1384 l 5
 527 118 l 5
 1073 118 l 5xb0
 1235 425 l 5
 1340 409 l 5
 1294 0 l 5
 72 0 l 5x70
EndSplineSet
EndChar

StartChar: Lacute
Encoding: 313 313 57
Width: 1355
VWidth: 0
Flags: W
HStem: 0 118<527 1073> 0 91<83 133.67> 1442 94<72 109.644 686.599 739>
VStem: 288 239<149 1380>
LayerCount: 2
Fore
SplineSet
56 1442 m 1x70
 72 1536 l 1
 751 1536 l 1
 739 1442 l 1
 527 1384 l 1
 527 118 l 1
 1073 118 l 1xb0
 1235 425 l 1
 1340 409 l 1
 1294 0 l 1
 72 0 l 1
 83 91 l 1
 288 149 l 1
 288 1380 l 1
 56 1442 l 1x70
321 1711 m 1
 473 2112 l 1
 610 2063 l 1
 384 1672 l 1
 321 1711 l 1
EndSplineSet
EndChar

StartChar: Lcaron
Encoding: 317 317 58
Width: 1355
VWidth: 0
Flags: W
HStem: 0 118<527 1073> 0 91<83 133.67> 926 86<842.332 918.088> 1358 224<889.459 1005.57> 1442 94<72 109.644 686.599 739>
VStem: 288 239<149 1380> 1043 170<1142.11 1418>
LayerCount: 2
Fore
SplineSet
56 1442 m 1x6e
 72 1536 l 1
 751 1536 l 1
 739 1442 l 1
 527 1384 l 1
 527 118 l 1
 1073 118 l 1xae
 1235 425 l 1
 1340 409 l 1
 1294 0 l 1
 72 0 l 1
 83 91 l 1
 288 149 l 1
 288 1380 l 1
 56 1442 l 1x6e
819 1012 m 1
 981 1054 1043 1146 1043 1225 c 0
 1043 1294 986 1358 899 1358 c 0
 887 1358 876 1356 864 1355 c 1
 854 1381 845 1404 845 1433 c 0
 845 1532 935 1582 997 1582 c 0x36
 1083 1582 1213 1511 1213 1325 c 0
 1213 1210 1172 1012 847 926 c 1
 819 1012 l 1
EndSplineSet
EndChar

StartChar: Lcommaaccent
Encoding: 315 315 59
Width: 1355
VWidth: 0
Flags: W
HStem: -460 65<590.927 643.907> 0 118<527 1073> 0 91<83 133.67> 1442 94<72 109.644 686.599 739>
VStem: 288 239<149 1380> 689 135<-351.955 -219.346>
LayerCount: 2
Fore
SplineSet
56 1442 m 1xbc
 72 1536 l 1
 751 1536 l 1
 739 1442 l 1
 527 1384 l 1
 527 118 l 1
 1073 118 l 1xdc
 1235 425 l 1
 1340 409 l 1
 1294 0 l 1
 72 0 l 1
 83 91 l 1
 288 149 l 1
 288 1380 l 1
 56 1442 l 1xbc
573 -395 m 1
 660 -373 689 -329 689 -284 c 0
 689 -243 616 -190 589 -187 c 1
 600 -134 641 -84 699 -84 c 0
 748 -84 824 -121 824 -231 c 0
 824 -298 779 -417 596 -460 c 1
 573 -395 l 1
EndSplineSet
EndChar

StartChar: Lslash
Encoding: 321 321 60
Width: 1355
VWidth: 0
Flags: W
HStem: 0 91<83 133.67> 0 118<527 1073> 1442 94<72 109.644 686.599 739>
VStem: 288 239<149 1380>
DStem2: 108 767 99 626 0.86087 0.508825<0 622.124>
LayerCount: 2
Fore
SplineSet
99 626 m 1x30
 108 767 l 1
 713 1120 l 1
 703 983 l 1
 99 626 l 1x30
EndSplineSet
Refer: 56 76 N 1 0 0 1 0 0 2
EndChar

StartChar: M
Encoding: 77 77 61
Width: 2100
VWidth: 0
Flags: W
HStem: 0 91<43 94.1647 573.201 622 1407 1457.67 2002.49 2055> 1442 94<126 176.809 1922.56 1986>
DStem2: 250 149 412 141 0.0722743 0.997385<3.72935 1059.61> 1040 380 1072 62 0.371255 0.928531<0 985.278> 1778 1395 1543 1240 0.0509703 -0.9987<142.82 1235.92>
LayerCount: 2
Fore
SplineSet
30 0 m 1
 43 91 l 1
 250 149 l 1
 340 1391 l 1
 113 1442 l 1
 126 1536 l 1
 621 1536 l 1
 718 1297 l 1
 1040 380 l 1
 1423 1338 l 1
 1510 1536 l 1
 1998 1536 l 1
 1986 1442 l 1
 1778 1395 l 1
 1842 141 l 1
 2067 99 l 1
 2055 0 l 1
 1393 0 l 1
 1407 91 l 1
 1612 149 l 1
 1543 1240 l 1
 1072 62 l 1
 914 38 l 1
 490 1194 l 1
 412 141 l 1
 638 99 l 1
 622 0 l 1
 30 0 l 1
EndSplineSet
EndChar

StartChar: N
Encoding: 78 78 62
Width: 1717
VWidth: 0
Flags: W
HStem: 0 91<80 131.165 605.201 657> 1442 94<75 114.026 1088 1137.37 1595.17 1658>
VStem: 287 157<149 1187> 1302 150<335 1391>
DStem2: 509 1536 444 1187 0.55611 -0.831109<253.91 1439.16>
LayerCount: 2
Fore
SplineSet
62 1442 m 1
 75 1536 l 1
 509 1536 l 1
 1302 335 l 1
 1302 1391 l 1
 1073 1442 l 1
 1088 1536 l 1
 1675 1536 l 1
 1658 1442 l 1
 1452 1395 l 1
 1452 1 l 1
 1263 -37 l 1
 444 1187 l 1
 444 141 l 1
 670 99 l 1
 657 0 l 1
 71 0 l 1
 80 91 l 1
 287 149 l 1
 287 1380 l 1
 62 1442 l 1
EndSplineSet
EndChar

StartChar: Nacute
Encoding: 323 323 63
Width: 1717
VWidth: 0
Flags: W
HStem: 0 91<80 131.165 605.201 657> 1442 94<75 114.026 1088 1137.37 1595.17 1658>
VStem: 287 157<149 1187> 1302 150<335 1391>
DStem2: 509 1536 444 1187 0.55611 -0.831109<253.91 1439.16>
LayerCount: 2
Fore
SplineSet
62 1442 m 1
 75 1536 l 1
 509 1536 l 1
 1302 335 l 1
 1302 1391 l 1
 1073 1442 l 1
 1088 1536 l 1
 1675 1536 l 1
 1658 1442 l 1
 1452 1395 l 1
 1452 1 l 1
 1263 -37 l 1
 444 1187 l 1
 444 141 l 1
 670 99 l 1
 657 0 l 1
 71 0 l 1
 80 91 l 1
 287 149 l 1
 287 1380 l 1
 62 1442 l 1
739 1711 m 1
 891 2112 l 1
 1028 2063 l 1
 803 1672 l 1
 739 1711 l 1
EndSplineSet
EndChar

StartChar: Ncaron
Encoding: 327 327 64
Width: 1717
VWidth: 0
Flags: W
HStem: 0 91<80 131.165 605.201 657> 1442 94<75 114.026 1088 1137.37 1595.17 1658>
VStem: 287 157<149 1187> 1302 150<335 1391>
DStem2: 509 1536 444 1187 0.55611 -0.831109<253.91 1439.16> 676 1962 577 1886 0.734677 -0.678418<0 255.26> 872 1785 866 1699 0.69226 0.721648<0 230.069>
LayerCount: 2
Fore
SplineSet
62 1442 m 1
 75 1536 l 1
 509 1536 l 1
 1302 335 l 1
 1302 1391 l 1
 1073 1442 l 1
 1088 1536 l 1
 1675 1536 l 1
 1658 1442 l 1
 1452 1395 l 1
 1452 1 l 1
 1263 -37 l 1
 444 1187 l 1
 444 141 l 1
 670 99 l 1
 657 0 l 1
 71 0 l 1
 80 91 l 1
 287 149 l 1
 287 1380 l 1
 62 1442 l 1
577 1886 m 1
 676 1962 l 1
 860 1785 l 1
 872 1785 l 1
 1024 1958 l 1
 1078 1920 l 1
 866 1699 l 1
 799 1681 l 1
 577 1886 l 1
EndSplineSet
EndChar

StartChar: Ncommaaccent
Encoding: 325 325 65
Width: 1717
VWidth: 0
Flags: W
HStem: -481 65<761.927 814.907> 0 91<80 131.165 605.201 657> 1442 94<75 114.026 1088 1137.37 1595.17 1658>
VStem: 287 157<149 1187> 860 135<-372.478 -239.621> 1302 150<335 1391>
DStem2: 509 1536 444 1187 0.55611 -0.831109<253.91 1439.16>
LayerCount: 2
Fore
SplineSet
62 1442 m 1
 75 1536 l 1
 509 1536 l 1
 1302 335 l 1
 1302 1391 l 1
 1073 1442 l 1
 1088 1536 l 1
 1675 1536 l 1
 1658 1442 l 1
 1452 1395 l 1
 1452 1 l 1
 1263 -37 l 1
 444 1187 l 1
 444 141 l 1
 670 99 l 1
 657 0 l 1
 71 0 l 1
 80 91 l 1
 287 149 l 1
 287 1380 l 1
 62 1442 l 1
744 -416 m 1
 831 -394 860 -349 860 -304 c 0
 860 -263 788 -211 761 -208 c 1
 772 -155 813 -105 871 -105 c 0
 920 -105 995 -141 995 -251 c 0
 995 -318 950 -438 767 -481 c 1
 744 -416 l 1
EndSplineSet
EndChar

StartChar: Ntilde
Encoding: 209 209 66
Width: 1717
VWidth: 0
Flags: W
HStem: 0 91<80 131.165 605.201 657> 1442 94<75 114.026 1088 1137.37 1595.17 1658> 1718 129<884.449 1054.57> 1757 128<612.521 777.37>
VStem: 287 157<149 1187> 1302 150<335 1391>
DStem2: 509 1536 444 1187 0.55611 -0.831109<253.91 1439.16> 716 1884 674 1757 0.99107 -0.133344<-16.7478 267.687>
LayerCount: 2
Fore
SplineSet
62 1442 m 1xcc
 75 1536 l 1
 509 1536 l 1
 1302 335 l 1
 1302 1391 l 1
 1073 1442 l 1
 1088 1536 l 1
 1675 1536 l 1
 1658 1442 l 1
 1452 1395 l 1
 1452 1 l 1
 1263 -37 l 1
 444 1187 l 1
 444 141 l 1
 670 99 l 1
 657 0 l 1
 71 0 l 1
 80 91 l 1
 287 149 l 1
 287 1380 l 1
 62 1442 l 1xcc
550 1708 m 1
 550 1708 589 1885 699 1885 c 0xdc
 704 1885 711 1885 716 1884 c 2
 991 1847 l 1
 997 1847 l 2
 1028 1847 1065 1897 1065 1897 c 1
 1124 1896 l 1
 1124 1896 1078 1718 964 1718 c 0xec
 959 1718 953 1718 948 1719 c 2
 674 1757 l 1
 670 1757 l 2xdc
 635 1757 596 1699 596 1699 c 1
 550 1708 l 1
EndSplineSet
EndChar

StartChar: O
Encoding: 79 79 67
Width: 1658
VWidth: 0
Flags: W
HStem: -33 131<663.039 1052.21> 1452 119<601.974 991.656>
VStem: 75 275<504.922 1053.8> 1311 275<491.322 1036.46>
LayerCount: 2
Fore
SplineSet
75 765 m 0
 75 1240 380 1571 872 1571 c 0
 1319 1571 1586 1198 1586 765 c 0
 1586 339 1299 -33 786 -33 c 0
 360 -33 75 318 75 765 c 0
350 835 m 0
 350 472 491 98 847 98 c 0
 1222 98 1311 408 1311 708 c 0
 1311 1058 1167 1452 813 1452 c 0
 442 1452 350 1157 350 835 c 0
EndSplineSet
EndChar

StartChar: OE
Encoding: 338 338 68
Width: 2110
VWidth: 0
Flags: W
HStem: -33 131<619.795 974.626> 0 118<1229 1837> 720 115<1229 1565> 1423 113<1229 1808> 1452 119<567.99 959.146>
VStem: 79 274<486.952 1075.91> 990 239<129.681 720 835 1413.39> 1605 108<520 581.414> 1858 106<1157 1233.27>
LayerCount: 2
Fore
SplineSet
79 765 m 0xa780
 79 1247 329 1571 815 1571 c 0xaf80
 901 1571 978 1560 1043 1536 c 1
 2003 1536 l 1
 1964 1141 l 1
 1858 1157 l 1
 1808 1423 l 1
 1229 1423 l 1
 1229 835 l 1
 1584 835 l 1
 1636 983 l 1
 1753 1000 l 1
 1713 520 l 1
 1605 504 l 1
 1565 720 l 1
 1229 720 l 1
 1229 118 l 1
 1837 118 l 1
 1958 402 l 1
 2060 387 l 1
 2024 0 l 1
 986 0 l 1x7780
 905 -20 819 -33 729 -33 c 0
 311 -33 79 306 79 765 c 0xa780
353 835 m 0
 353 513 461 98 782 98 c 0
 855 98 925 114 990 151 c 1
 990 1391 l 1
 921 1432 841 1452 755 1452 c 0
 486 1452 353 1248 353 835 c 0
EndSplineSet
EndChar

StartChar: Oacute
Encoding: 211 211 69
Width: 1658
VWidth: 0
Flags: W
HStem: -33 131<677.986 1067.1> 1452 119<616.474 1006.14>
VStem: 90 274<504.922 1053.8> 1325 275<491.322 1036.46>
LayerCount: 2
Fore
SplineSet
90 765 m 0
 90 1240 395 1571 887 1571 c 0
 1334 1571 1600 1198 1600 765 c 0
 1600 339 1314 -33 801 -33 c 0
 375 -33 90 318 90 765 c 0
364 835 m 0
 364 472 506 98 862 98 c 0
 1237 98 1325 408 1325 708 c 0
 1325 1058 1181 1452 827 1452 c 0
 456 1452 364 1157 364 835 c 0
709 1704 m 1
 860 2106 l 1
 998 2058 l 1
 771 1665 l 1
 709 1704 l 1
EndSplineSet
EndChar

StartChar: Ocaron
Encoding: 465 465 70
Width: 1658
VWidth: 0
Flags: W
HStem: -33 131<663.039 1052.21> 1452 119<601.974 991.656>
VStem: 75 275<504.922 1053.8> 1311 275<491.322 1036.46>
DStem2: 679 1962 580 1886 0.733148 -0.680069<0 256.005> 876 1785 869 1699 0.69226 0.721648<0 230.069>
LayerCount: 2
Fore
SplineSet
75 765 m 0
 75 1240 380 1571 872 1571 c 0
 1319 1571 1586 1198 1586 765 c 0
 1586 339 1299 -33 786 -33 c 0
 360 -33 75 318 75 765 c 0
350 835 m 0
 350 472 491 98 847 98 c 0
 1222 98 1311 408 1311 708 c 0
 1311 1058 1167 1452 813 1452 c 0
 442 1452 350 1157 350 835 c 0
580 1886 m 1
 679 1962 l 1
 864 1785 l 1
 876 1785 l 1
 1028 1958 l 1
 1081 1920 l 1
 869 1699 l 1
 801 1681 l 1
 580 1886 l 1
EndSplineSet
EndChar

StartChar: Ocircumflex
Encoding: 212 212 71
Width: 1658
VWidth: 0
Flags: W
HStem: -33 131<663.039 1052.21> 1452 119<601.974 991.656>
VStem: 75 275<504.922 1053.8> 1311 275<491.322 1036.46>
LayerCount: 2
Fore
SplineSet
75 765 m 0
 75 1240 380 1571 872 1571 c 0
 1319 1571 1586 1198 1586 765 c 0
 1586 339 1299 -33 786 -33 c 0
 360 -33 75 318 75 765 c 0
350 835 m 0
 350 472 491 98 847 98 c 0
 1222 98 1311 408 1311 708 c 0
 1311 1058 1167 1452 813 1452 c 0
 442 1452 350 1157 350 835 c 0
598 1719 m 1
 805 1941 l 1
 873 1958 l 1
 1093 1729 l 1
 1032 1684 l 1
 830 1818 l 1
 818 1818 l 1
 645 1681 l 1
 598 1719 l 1
EndSplineSet
EndChar

StartChar: Odieresis
Encoding: 214 214 72
Width: 1658
VWidth: 0
Flags: W
HStem: -33 131<663.039 1052.21> 1452 119<601.974 991.656> 1695 195<588.513 764.597 918.513 1096.78>
VStem: 75 275<504.922 1053.8> 572 209<1712.81 1872.1> 902 212<1714.16 1870.75> 1311 275<491.322 1036.46>
LayerCount: 2
Fore
SplineSet
75 765 m 0
 75 1240 380 1571 872 1571 c 0
 1319 1571 1586 1198 1586 765 c 0
 1586 339 1299 -33 786 -33 c 0
 360 -33 75 318 75 765 c 0
350 835 m 0
 350 472 491 98 847 98 c 0
 1222 98 1311 408 1311 708 c 0
 1311 1058 1167 1452 813 1452 c 0
 442 1452 350 1157 350 835 c 0
572 1794 m 0
 572 1852 625 1890 675 1890 c 0
 729 1890 781 1851 781 1794 c 0
 781 1733 729 1695 675 1695 c 0
 622 1695 572 1733 572 1794 c 0
902 1794 m 0
 902 1852 955 1890 1005 1890 c 0
 1059 1890 1114 1851 1114 1794 c 0
 1114 1733 1059 1695 1005 1695 c 0
 952 1695 902 1733 902 1794 c 0
EndSplineSet
EndChar

StartChar: Ograve
Encoding: 210 210 73
Width: 1658
VWidth: 0
Flags: W
HStem: -33 131<663.039 1052.21> 1452 119<601.974 991.656>
VStem: 75 275<504.922 1053.8> 1311 275<491.322 1036.46>
LayerCount: 2
Fore
SplineSet
75 765 m 0
 75 1240 380 1571 872 1571 c 0
 1319 1571 1586 1198 1586 765 c 0
 1586 339 1299 -33 786 -33 c 0
 360 -33 75 318 75 765 c 0
350 835 m 0
 350 472 491 98 847 98 c 0
 1222 98 1311 408 1311 708 c 0
 1311 1058 1167 1452 813 1452 c 0
 442 1452 350 1157 350 835 c 0
651 2055 m 1
 793 2102 l 1
 956 1689 l 1
 885 1647 l 1
 651 2055 l 1
EndSplineSet
EndChar

StartChar: Ohungarumlaut
Encoding: 336 336 74
Width: 1658
VWidth: 0
Flags: W
HStem: -33 131<663.039 1052.21> 1452 119<601.974 991.656>
VStem: 75 275<504.922 1053.8> 1311 275<491.322 1036.46>
LayerCount: 2
Fore
SplineSet
75 765 m 0
 75 1240 380 1571 872 1571 c 0
 1319 1571 1586 1198 1586 765 c 0
 1586 339 1299 -33 786 -33 c 0
 360 -33 75 318 75 765 c 0
350 835 m 0
 350 472 491 98 847 98 c 0
 1222 98 1311 408 1311 708 c 0
 1311 1058 1167 1452 813 1452 c 0
 442 1452 350 1157 350 835 c 0
625 1745 m 1
 938 2002 l 1
 1029 1896 l 1
 659 1684 l 1
 625 1745 l 1
885 1745 m 1
 1190 1992 l 1
 1278 1890 l 1
 919 1684 l 1
 885 1745 l 1
EndSplineSet
EndChar

StartChar: Omacron
Encoding: 332 332 75
Width: 1658
VWidth: 0
Flags: W
HStem: -33 131<663.039 1052.21> 1452 119<601.974 991.656> 1708 125<580 1108>
VStem: 75 275<504.922 1053.8> 1311 275<491.322 1036.46>
LayerCount: 2
Fore
SplineSet
75 765 m 0
 75 1240 380 1571 872 1571 c 0
 1319 1571 1586 1198 1586 765 c 0
 1586 339 1299 -33 786 -33 c 0
 360 -33 75 318 75 765 c 0
350 835 m 0
 350 472 491 98 847 98 c 0
 1222 98 1311 408 1311 708 c 0
 1311 1058 1167 1452 813 1452 c 0
 442 1452 350 1157 350 835 c 0
564 1708 m 1
 580 1833 l 1
 1124 1833 l 1
 1108 1708 l 1
 564 1708 l 1
EndSplineSet
EndChar

StartChar: Oslash
Encoding: 216 216 76
Width: 1658
VWidth: 0
Flags: W
HStem: -33 131<677.986 1067.1> 1452 119<616.474 1006.14>
VStem: 90 274<504.922 1053.8> 1325 275<491.322 1036.46>
LayerCount: 2
Fore
SplineSet
281 -137 m 1
 443 164 l 1
 493 194 l 1
 1142 1407 l 1
 1133 1455 l 1
 1215 1611 l 1
 1403 1620 l 1
 1283 1400 l 1
 1220 1346 l 1
 549 99 l 1
 565 64 l 1
 463 -126 l 1
 281 -137 l 1
364 835 m 0
 364 472 506 98 862 98 c 0
 1237 98 1325 408 1325 708 c 0
 1325 1058 1181 1452 827 1452 c 0
 456 1452 364 1157 364 835 c 0
90 765 m 0
 90 1240 395 1571 887 1571 c 0
 1334 1571 1600 1198 1600 765 c 0
 1600 339 1314 -33 801 -33 c 0
 375 -33 90 318 90 765 c 0
EndSplineSet
EndChar

StartChar: Otilde
Encoding: 213 213 77
Width: 1658
VWidth: 0
Flags: W
HStem: -33 131<663.039 1052.21> 1452 119<601.974 991.656> 1718 129<887.061 1057.36> 1757 128<615.788 780.125>
VStem: 75 275<504.922 1053.8> 1311 275<491.322 1036.46>
DStem2: 718 1884 676 1757 0.990655 -0.136394<-15.754 269.082>
LayerCount: 2
Fore
SplineSet
75 765 m 0xcc
 75 1240 380 1571 872 1571 c 0
 1319 1571 1586 1198 1586 765 c 0
 1586 339 1299 -33 786 -33 c 0
 360 -33 75 318 75 765 c 0xcc
350 835 m 0
 350 472 491 98 847 98 c 0
 1222 98 1311 408 1311 708 c 0
 1311 1058 1167 1452 813 1452 c 0
 442 1452 350 1157 350 835 c 0
553 1708 m 1
 553 1708 592 1885 702 1885 c 0xdc
 707 1885 713 1885 718 1884 c 2
 994 1847 l 1
 1000 1847 l 2
 1031 1847 1069 1897 1069 1897 c 1
 1127 1896 l 1
 1127 1896 1081 1718 967 1718 c 0xec
 962 1718 957 1718 952 1719 c 2
 676 1757 l 1
 674 1757 l 2xdc
 639 1757 599 1699 599 1699 c 1
 553 1708 l 1
EndSplineSet
EndChar

StartChar: P
Encoding: 80 80 78
Width: 1332
VWidth: 0
Flags: W
HStem: 0 91<75 126.165 741.231 794> 610 108<598 858.447> 1448 102<520.696 849.566>
VStem: 282 237<151 1364> 1035 255<908.307 1260.54>
LayerCount: 2
Fore
SplineSet
62 0 m 1
 75 91 l 1
 282 149 l 1
 282 1364 l 1
 71 1400 l 1
 83 1495 l 1
 242 1519 460 1550 671 1550 c 0
 993 1550 1290 1461 1290 1101 c 0
 1290 808 1021 610 721 610 c 0
 676 610 636 613 598 614 c 1
 576 716 l 1
 641 718 l 2
 906 726 1035 837 1035 1057 c 0
 1035 1268 926 1448 645 1448 c 0
 595 1448 519 1440 519 1440 c 1
 519 151 l 1
 811 103 l 1
 794 0 l 1
 62 0 l 1
EndSplineSet
EndChar

StartChar: Q
Encoding: 81 81 79
Width: 1677
VWidth: 0
Flags: W
HStem: -475 135<1357.07 1528.4> -33 21G<575 797> 1442 129<612.716 996.497>
VStem: 75 250<544.062 1030.1> 1349 255<509.486 986.769>
LayerCount: 2
Fore
SplineSet
75 751 m 0
 75 1228 401 1571 890 1571 c 0
 1331 1571 1604 1210 1604 777 c 0
 1604 414 1385 83 1010 -8 c 1
 1083 -175 1190 -282 1544 -340 c 1
 1544 -370 1540 -411 1532 -433 c 1
 1455 -470 1384 -475 1315 -475 c 0
 1091 -475 890 -307 868 -26 c 1
 856 -30 806 -33 788 -33 c 0
 362 -33 75 304 75 751 c 0
325 839 m 0
 325 543 456 109 925 83 c 1
 1258 166 1349 415 1349 695 c 0
 1349 1058 1146 1442 820 1442 c 0
 510 1442 325 1222 325 839 c 0
EndSplineSet
EndChar

StartChar: R
Encoding: 82 82 80
Width: 1492
VWidth: 0
Flags: W
HStem: -26 21G<1271 1392> 0 91<75 126.165 699.032 739> 663 112<519 733> 1396 95<83 152.754> 1444 104<521.561 845.183>
VStem: 282 237<155 663 775 1359> 1010 256<996.957 1277.23>
LayerCount: 2
Fore
SplineSet
62 0 m 1xee
 75 91 l 1
 282 149 l 1
 282 1359 l 1
 71 1396 l 1
 83 1491 l 1xf6
 265 1520 463 1548 646 1548 c 0
 1013 1548 1266 1452 1266 1164 c 0
 1266 1005 1143 823 911 740 c 1
 911 739 l 1
 1134 431 l 2
 1279 231 1342 141 1495 95 c 2
 1536 83 l 1
 1518 -1 l 1
 1465 -19 1415 -26 1369 -26 c 0
 1173 -26 1037 121 930 312 c 2
 733 663 l 1
 519 663 l 1
 519 155 l 1
 751 102 l 1
 739 0 l 1
 62 0 l 1xee
519 775 m 1
 763 775 l 1
 885 816 1010 920 1010 1095 c 0
 1010 1297 886 1444 667 1444 c 0xee
 580 1444 519 1438 519 1438 c 1
 519 775 l 1
EndSplineSet
EndChar

StartChar: Racute
Encoding: 340 340 81
Width: 1492
VWidth: 0
Flags: W
HStem: -26 21G<1271 1392> 0 91<75 126.165 699.032 739> 663 112<519 733> 1396 95<83 152.754> 1444 104<521.561 845.183>
VStem: 282 237<155 663 775 1359> 1010 256<996.957 1277.23>
LayerCount: 2
Fore
SplineSet
62 0 m 1xee
 75 91 l 1
 282 149 l 1
 282 1359 l 1
 71 1396 l 1
 83 1491 l 1xf6
 265 1520 463 1548 646 1548 c 0
 1013 1548 1266 1452 1266 1164 c 0
 1266 1005 1143 823 911 740 c 1
 911 739 l 1
 1134 431 l 2
 1279 231 1342 141 1495 95 c 2
 1536 83 l 1
 1518 -1 l 1
 1465 -19 1415 -26 1369 -26 c 0
 1173 -26 1037 121 930 312 c 2
 733 663 l 1
 519 663 l 1
 519 155 l 1
 751 102 l 1
 739 0 l 1
 62 0 l 1xee
519 775 m 1
 763 775 l 1
 885 816 1010 920 1010 1095 c 0
 1010 1297 886 1444 667 1444 c 0xee
 580 1444 519 1438 519 1438 c 1
 519 775 l 1
625 1711 m 1
 775 2112 l 1
 914 2063 l 1
 687 1672 l 1
 625 1711 l 1
EndSplineSet
EndChar

StartChar: Rcaron
Encoding: 344 344 82
Width: 1492
VWidth: 0
Flags: W
HStem: -26 21G<1271 1392> 0 91<75 126.165 699.032 739> 663 112<519 733> 1396 95<83 152.754> 1444 104<521.561 845.183>
VStem: 282 237<155 663 775 1359> 1010 256<996.957 1277.23>
DStem2: 561 1962 462 1886 0.733148 -0.680069<0 256.005> 758 1785 751 1699 0.693955 0.720019<0 230.044>
LayerCount: 2
Fore
SplineSet
62 0 m 1xee
 75 91 l 1
 282 149 l 1
 282 1359 l 1
 71 1396 l 1
 83 1491 l 1xf6
 265 1520 463 1548 646 1548 c 0
 1013 1548 1266 1452 1266 1164 c 0
 1266 1005 1143 823 911 740 c 1
 911 739 l 1
 1134 431 l 2
 1279 231 1342 141 1495 95 c 2
 1536 83 l 1
 1518 -1 l 1
 1465 -19 1415 -26 1369 -26 c 0
 1173 -26 1037 121 930 312 c 2
 733 663 l 1
 519 663 l 1
 519 155 l 1
 751 102 l 1
 739 0 l 1
 62 0 l 1xee
462 1886 m 1
 561 1962 l 1
 746 1785 l 1
 758 1785 l 1
 910 1958 l 1
 964 1920 l 1
 751 1699 l 1
 683 1681 l 1
 462 1886 l 1
519 775 m 1
 763 775 l 1
 885 816 1010 920 1010 1095 c 0
 1010 1297 886 1444 667 1444 c 0xee
 580 1444 519 1438 519 1438 c 1
 519 775 l 1
EndSplineSet
EndChar

StartChar: Rcommaaccent
Encoding: 342 342 83
Width: 1492
VWidth: 0
Flags: W
HStem: -481 65<806.148 858.931> -26 21G<1271 1392> 0 91<75 126.165 699.032 739> 663 112<519 733> 1396 95<83 152.754> 1444 104<521.561 845.183>
VStem: 282 237<155 663 775 1359> 903 137<-371.58 -238.791> 1010 256<996.957 1277.23>
LayerCount: 2
Fore
SplineSet
62 0 m 1xf680
 75 91 l 1
 282 149 l 1
 282 1359 l 1
 71 1396 l 1
 83 1491 l 1xfa80
 265 1520 463 1548 646 1548 c 0
 1013 1548 1266 1452 1266 1164 c 0
 1266 1005 1143 823 911 740 c 1
 911 739 l 1
 1134 431 l 2
 1279 231 1342 141 1495 95 c 2
 1536 83 l 1
 1518 -1 l 1
 1465 -19 1415 -26 1369 -26 c 0
 1173 -26 1037 121 930 312 c 2
 733 663 l 1
 519 663 l 1
 519 155 l 1
 751 102 l 1
 739 0 l 1
 62 0 l 1xf680
519 775 m 1
 763 775 l 1
 885 816 1010 920 1010 1095 c 0
 1010 1297 886 1444 667 1444 c 0xf680
 580 1444 519 1438 519 1438 c 1
 519 775 l 1
789 -416 m 1
 876 -394 903 -349 903 -304 c 0
 903 -263 832 -211 805 -208 c 1
 816 -155 857 -105 915 -105 c 0
 964 -105 1040 -141 1040 -251 c 0xf3
 1040 -318 994 -438 811 -481 c 1
 789 -416 l 1
EndSplineSet
EndChar

StartChar: S
Encoding: 83 83 84
Width: 1112
VWidth: 0
Flags: W
HStem: -30 125<368.357 691.294> 1095 21G<790 914.547> 1463 104<410.237 687.343>
VStem: 98 126<393.709 463> 111 214<1104.8 1319.92> 790 123<1110 1219.14> 819 227<251.977 475.738>
LayerCount: 2
Fore
SplineSet
81 151 m 5xea
 98 481 l 5
 224 463 l 5
 272 231 l 5
 317 160 411 95 526 95 c 4
 656 95 819 171 819 354 c 0xf2
 819 675 111 672 111 1131 c 0
 111 1411 348 1567 591 1567 c 0
 724 1567 842 1525 940 1444 c 1
 940 1434 913 1095 913 1095 c 1
 790 1110 l 1xec
 759 1346 l 1
 737 1391 649 1463 550 1463 c 0
 426 1463 325 1391 325 1229 c 0
 325 875 1046 901 1046 437 c 0
 1046 153 778 -30 497 -30 c 4
 319 -30 160 53 81 151 c 5xea
EndSplineSet
EndChar

StartChar: Sacute
Encoding: 346 346 85
Width: 1112
VWidth: 0
Flags: W
HStem: -30 125<368.357 691.294> 1095 21G<790 914.547> 1463 104<410.237 687.343>
VStem: 98 126<393.709 463> 111 214<1104.8 1319.92> 790 123<1110 1219.14> 819 227<251.977 475.738>
LayerCount: 2
Fore
SplineSet
81 151 m 1xea
 98 481 l 1
 224 463 l 1
 272 231 l 1
 317 160 411 95 526 95 c 0
 656 95 819 171 819 354 c 0xf2
 819 675 111 672 111 1131 c 0
 111 1411 348 1567 591 1567 c 0
 724 1567 842 1525 940 1444 c 1
 940 1434 913 1095 913 1095 c 1
 790 1110 l 1xec
 759 1346 l 1
 737 1391 649 1463 550 1463 c 0
 426 1463 325 1391 325 1229 c 0
 325 875 1046 901 1046 437 c 0
 1046 153 778 -30 497 -30 c 0
 319 -30 160 53 81 151 c 1xea
477 1708 m 1
 629 2110 l 1
 767 2062 l 1
 541 1669 l 1
 477 1708 l 1
EndSplineSet
EndChar

StartChar: Scaron
Encoding: 352 352 86
Width: 1112
VWidth: 0
Flags: W
HStem: -30 125<368.357 691.294> 1095 21G<790 914.547> 1463 104<410.237 687.343>
VStem: 98 126<393.709 463> 111 214<1104.8 1319.92> 790 123<1110 1219.14> 819 227<251.977 475.738>
DStem2: 414 1960 315 1884 0.734803 -0.67828<0 255.938> 610 1782 604 1696 0.690631 0.723208<0 231.505>
LayerCount: 2
Fore
SplineSet
81 151 m 1xea
 98 481 l 1
 224 463 l 1
 272 231 l 1
 317 160 411 95 526 95 c 0
 656 95 819 171 819 354 c 0xf2
 819 675 111 672 111 1131 c 0
 111 1411 348 1567 591 1567 c 0
 724 1567 842 1525 940 1444 c 1
 940 1434 913 1095 913 1095 c 1
 790 1110 l 1xec
 759 1346 l 1
 737 1391 649 1463 550 1463 c 0
 426 1463 325 1391 325 1229 c 0
 325 875 1046 901 1046 437 c 0
 1046 153 778 -30 497 -30 c 0
 319 -30 160 53 81 151 c 1xea
315 1884 m 1
 414 1960 l 1
 598 1782 l 1
 610 1782 l 1
 763 1956 l 1
 816 1918 l 1
 604 1696 l 1
 536 1680 l 1
 315 1884 l 1
EndSplineSet
EndChar

StartChar: Scedilla
Encoding: 350 350 87
Width: 1116
VWidth: 0
Flags: W
HStem: -30 125<370.859 509> 1095 21G<793 916.605> 1463 104<412.408 689.66>
VStem: 99 128<390.697 463> 114 212<1104.8 1319.92> 504 164<-376.404 -218.266> 793 122<1110 1215.73> 822 226<248.386 475.738>
LayerCount: 2
Fore
SplineSet
83 151 m 1xed
 99 481 l 1
 227 463 l 1
 273 231 l 1
 318 160 413 95 528 95 c 0
 658 95 822 171 822 354 c 0xf5
 822 675 114 672 114 1131 c 0
 114 1411 350 1567 593 1567 c 0
 726 1567 845 1525 943 1444 c 1
 943 1434 915 1095 915 1095 c 1
 793 1110 l 1xee
 761 1346 l 1
 739 1391 652 1463 553 1463 c 0
 429 1463 326 1391 326 1229 c 0
 326 875 1048 901 1048 437 c 0
 1048 190 846 19 608 -22 c 1
 558 -94 l 1
 604 -135 668 -197 668 -280 c 0
 668 -378 564 -439 421 -481 c 1
 397 -409 l 1
 468 -385 504 -343 504 -306 c 0
 504 -264 458 -212 413 -170 c 1
 509 -30 l 1
 500 -30 l 2
 322 -30 162 53 83 151 c 1xed
EndSplineSet
EndChar

StartChar: Scommaaccent
Encoding: 536 536 88
Width: 1112
VWidth: 0
Flags: W
HStem: -477 67<424.079 476.907> -30 125<368.357 691.294> 1095 21G<790 914.547> 1463 104<410.237 687.343>
VStem: 98 126<393.709 463> 111 214<1104.8 1319.92> 522 135<-367.646 -234.573> 790 123<1110 1219.14> 819 227<251.977 475.738>
LayerCount: 2
Fore
SplineSet
81 151 m 1xf680
 98 481 l 1
 224 463 l 1
 272 231 l 1
 317 160 411 95 526 95 c 0
 656 95 819 171 819 354 c 0xfa80
 819 675 111 672 111 1131 c 0
 111 1411 348 1567 591 1567 c 0
 724 1567 842 1525 940 1444 c 1
 940 1434 913 1095 913 1095 c 1
 790 1110 l 1xf7
 759 1346 l 1
 737 1391 649 1463 550 1463 c 0
 426 1463 325 1391 325 1229 c 0
 325 875 1046 901 1046 437 c 0
 1046 153 778 -30 497 -30 c 0
 319 -30 160 53 81 151 c 1xf680
406 -410 m 1
 493 -388 522 -345 522 -300 c 0
 522 -259 449 -205 422 -202 c 1
 433 -149 474 -99 532 -99 c 0
 581 -99 657 -136 657 -246 c 0
 657 -313 612 -434 429 -477 c 1
 406 -410 l 1
EndSplineSet
EndChar

StartChar: T
Encoding: 84 84 89
Width: 1416
VWidth: 0
Flags: W
HStem: 0 91<372 423.659 980.628 1029> 1423 113<216 581 818 1194>
VStem: 38 113<1139 1189.17> 581 237<149 1423> 1241 117<1137 1224.24>
LayerCount: 2
Fore
SplineSet
29 1536 m 1
 1400 1536 l 1
 1358 1119 l 1
 1241 1137 l 1
 1194 1423 l 1
 818 1423 l 1
 818 141 l 1
 1046 99 l 1
 1029 0 l 1
 363 0 l 1
 372 91 l 1
 581 149 l 1
 581 1423 l 1
 216 1423 l 1
 151 1123 l 1
 38 1139 l 1
 29 1536 l 1
EndSplineSet
EndChar

StartChar: Tcaron
Encoding: 356 356 91
Width: 1416
VWidth: 0
Flags: W
HStem: 0 91<372 423.659 980.628 1029> 1423 113<216 581 818 1194>
VStem: 38 113<1139 1189.17> 581 237<149 1423> 1241 117<1137 1224.24>
DStem2: 528 1962 429 1886 0.734677 -0.678418<0 255.26> 724 1785 718 1699 0.69226 0.721648<0 230.069>
LayerCount: 2
Fore
SplineSet
29 1536 m 1
 1400 1536 l 1
 1358 1119 l 1
 1241 1137 l 1
 1194 1423 l 1
 818 1423 l 1
 818 141 l 1
 1046 99 l 1
 1029 0 l 1
 363 0 l 1
 372 91 l 1
 581 149 l 1
 581 1423 l 1
 216 1423 l 1
 151 1123 l 1
 38 1139 l 1
 29 1536 l 1
429 1886 m 1
 528 1962 l 1
 712 1785 l 1
 724 1785 l 1
 876 1958 l 1
 930 1920 l 1
 718 1699 l 1
 651 1681 l 1
 429 1886 l 1
EndSplineSet
EndChar

StartChar: Tcedilla
Encoding: 354 354 92
Width: 1416
VWidth: 0
Flags: W
HStem: -481 72<593.022 637.087> 0 91<372 423.659 980.628 1029> 1423 113<216 581 818 1194>
VStem: 38 113<1139 1189.17> 581 237<149 1423> 679 164<-376.404 -218.266> 1241 117<1137 1224.24>
LayerCount: 2
Fore
SplineSet
29 1536 m 1xfa
 1400 1536 l 1
 1358 1119 l 1
 1241 1137 l 1
 1194 1423 l 1
 818 1423 l 1
 818 141 l 1xfa
 1046 99 l 1
 1029 0 l 1
 799 0 l 1
 735 -94 l 1
 781 -135 843 -197 843 -280 c 0
 843 -378 741 -439 598 -481 c 1
 573 -409 l 1
 644 -385 679 -343 679 -306 c 0xf6
 679 -264 634 -212 589 -170 c 1
 706 0 l 1
 363 0 l 1
 372 91 l 1
 581 149 l 1
 581 1423 l 1
 216 1423 l 1
 151 1123 l 1
 38 1139 l 1
 29 1536 l 1xfa
EndSplineSet
EndChar

StartChar: Tcommaaccent
Encoding: 538 538 93
Width: 1420
VWidth: 0
Flags: W
HStem: -481 65<574.927 627.907> 0 91<375 426.412 982.341 1032> 1423 113<219 583 819 1195>
VStem: 41 112<1139 1188.16> 583 236<149 1423> 672 136<-372.478 -239.621> 1244 115<1137 1220.68>
LayerCount: 2
Fore
SplineSet
30 1536 m 1xfa
 1403 1536 l 1
 1359 1119 l 1
 1244 1137 l 1
 1195 1423 l 1
 819 1423 l 1
 819 141 l 1
 1048 99 l 1
 1032 0 l 1
 364 0 l 1
 375 91 l 1
 583 149 l 1
 583 1423 l 1
 219 1423 l 1
 153 1123 l 1
 41 1139 l 1
 30 1536 l 1xfa
557 -416 m 1
 644 -394 672 -349 672 -304 c 0
 672 -263 600 -211 573 -208 c 1
 584 -155 625 -105 683 -105 c 0
 732 -105 808 -141 808 -251 c 0xf6
 808 -318 763 -438 580 -481 c 1
 557 -416 l 1
EndSplineSet
EndChar

StartChar: Thorn
Encoding: 222 222 94
Width: 1339
VWidth: 0
Flags: W
HStem: -1 91<79 131.314 744.049 799> 321 112<600.116 868.932> 1144 120<523 851.695> 1442 94<75 125.247 668.946 733>
VStem: 287 236<149 1139.29 1260 1391> 1039 255<615.89 965.615>
LayerCount: 2
Fore
SplineSet
62 1442 m 1
 75 1536 l 1
 746 1536 l 1
 733 1442 l 1
 523 1395 l 1
 523 1260 l 1
 573 1261 625 1264 675 1264 c 0
 997 1264 1294 1175 1294 815 c 0
 1294 522 1046 321 746 321 c 0
 701 321 652 324 602 329 c 1
 592 359 581 384 581 433 c 1
 603 432 625 433 645 433 c 0
 910 433 1039 551 1039 771 c 0
 1039 982 922 1144 653 1144 c 0
 603 1144 523 1135 523 1135 c 1
 523 149 l 1
 815 102 l 1
 799 -1 l 1
 67 -1 l 1
 79 90 l 1
 287 147 l 1
 287 1391 l 1
 62 1442 l 1
EndSplineSet
EndChar

StartChar: U
Encoding: 85 85 95
Width: 1731
VWidth: 0
Flags: W
HStem: -33 163<716.145 1124.31> 1442 94<43 91.0904 637.556 701 1114 1164.53 1628.47 1691>
VStem: 255 238<384.082 1391> 1324 155<344.468 1391>
LayerCount: 2
Fore
SplineSet
27 1442 m 1
 43 1536 l 1
 713 1536 l 1
 701 1442 l 1
 493 1395 l 1
 493 630 l 2
 493 278 669 130 922 130 c 0
 1171 130 1323 273 1324 595 c 2
 1327 1391 l 1
 1101 1442 l 1
 1114 1536 l 1
 1704 1536 l 1
 1691 1442 l 1
 1486 1395 l 1
 1479 636 l 2
 1475 191 1290 -33 861 -33 c 0
 576 -33 255 59 255 579 c 2
 255 1391 l 1
 27 1442 l 1
EndSplineSet
EndChar

StartChar: Ucaron
Encoding: 467 467 97
Width: 1731
VWidth: 0
Flags: W
HStem: -33 163<716.145 1124.31> 1442 94<43 91.0904 637.556 701 1114 1164.53 1628.47 1691>
VStem: 255 238<384.082 1391> 1324 155<344.468 1391>
DStem2: 743 1962 644 1886 0.733148 -0.680069<0 256.005> 940 1785 933 1699 0.69226 0.721648<0 230.069>
LayerCount: 2
Fore
SplineSet
27 1442 m 1
 43 1536 l 1
 713 1536 l 1
 701 1442 l 1
 493 1395 l 1
 493 630 l 2
 493 278 669 130 922 130 c 0
 1171 130 1323 273 1324 595 c 2
 1327 1391 l 1
 1101 1442 l 1
 1114 1536 l 1
 1704 1536 l 1
 1691 1442 l 1
 1486 1395 l 1
 1479 636 l 2
 1475 191 1290 -33 861 -33 c 0
 576 -33 255 59 255 579 c 2
 255 1391 l 1
 27 1442 l 1
644 1886 m 1
 743 1962 l 1
 928 1785 l 1
 940 1785 l 1
 1092 1958 l 1
 1145 1920 l 1
 933 1699 l 1
 865 1681 l 1
 644 1886 l 1
EndSplineSet
EndChar

StartChar: Ucircumflex
Encoding: 219 219 98
Width: 1731
VWidth: 0
Flags: W
HStem: -33 163<716.145 1124.31> 1442 94<43 91.0904 637.556 701 1114 1164.53 1628.47 1691>
VStem: 255 238<384.082 1391> 1324 155<344.468 1391>
LayerCount: 2
Fore
SplineSet
27 1442 m 1
 43 1536 l 1
 713 1536 l 1
 701 1442 l 1
 493 1395 l 1
 493 630 l 2
 493 278 669 130 922 130 c 0
 1171 130 1323 273 1324 595 c 2
 1327 1391 l 1
 1101 1442 l 1
 1114 1536 l 1
 1704 1536 l 1
 1691 1442 l 1
 1486 1395 l 1
 1479 636 l 2
 1475 191 1290 -33 861 -33 c 0
 576 -33 255 59 255 579 c 2
 255 1391 l 1
 27 1442 l 1
663 1719 m 1
 869 1941 l 1
 937 1958 l 1
 1157 1729 l 1
 1096 1684 l 1
 894 1818 l 1
 881 1818 l 1
 709 1681 l 1
 663 1719 l 1
EndSplineSet
EndChar

StartChar: Udieresis
Encoding: 220 220 99
Width: 1731
VWidth: 0
Flags: W
HStem: -33 163<716.145 1124.31> 1442 94<43 91.0904 637.556 701 1114 1164.53 1628.47 1691> 1695 195<652.513 828.597 982.513 1160.05>
VStem: 255 238<384.082 1391> 636 209<1712.81 1872.1> 966 211<1714.16 1870.75> 1324 155<344.468 1391>
LayerCount: 2
Fore
SplineSet
27 1442 m 1
 43 1536 l 1
 713 1536 l 1
 701 1442 l 1
 493 1395 l 1
 493 630 l 2
 493 278 669 130 922 130 c 0
 1171 130 1323 273 1324 595 c 2
 1327 1391 l 1
 1101 1442 l 1
 1114 1536 l 1
 1704 1536 l 1
 1691 1442 l 1
 1486 1395 l 1
 1479 636 l 2
 1475 191 1290 -33 861 -33 c 0
 576 -33 255 59 255 579 c 2
 255 1391 l 1
 27 1442 l 1
636 1794 m 0
 636 1852 689 1890 739 1890 c 0
 793 1890 845 1851 845 1794 c 0
 845 1733 793 1695 739 1695 c 0
 686 1695 636 1733 636 1794 c 0
966 1794 m 0
 966 1852 1019 1890 1069 1890 c 0
 1123 1890 1177 1851 1177 1794 c 0
 1177 1733 1123 1695 1069 1695 c 0
 1016 1695 966 1733 966 1794 c 0
EndSplineSet
EndChar

StartChar: Udieresisacute
Encoding: 471 471 100
Width: 1731
VWidth: 0
Flags: W
HStem: -33 163<716.145 1124.31> 1442 94<43 91.0904 637.556 701 1114 1164.53 1628.47 1691> 1675 195<652.513 828.597 982.513 1160.05>
VStem: 255 238<384.082 1391> 636 209<1692.81 1852.1> 966 211<1694.16 1850.75> 1324 155<344.468 1391>
LayerCount: 2
Fore
SplineSet
27 1442 m 1
 43 1536 l 1
 713 1536 l 1
 701 1442 l 1
 493 1395 l 1
 493 630 l 2
 493 278 669 130 922 130 c 0
 1171 130 1323 273 1324 595 c 2
 1327 1391 l 1
 1101 1442 l 1
 1114 1536 l 1
 1704 1536 l 1
 1691 1442 l 1
 1486 1395 l 1
 1479 636 l 2
 1475 191 1290 -33 861 -33 c 0
 576 -33 255 59 255 579 c 2
 255 1391 l 1
 27 1442 l 1
636 1774 m 0
 636 1832 689 1870 739 1870 c 0
 793 1870 845 1831 845 1774 c 0
 845 1713 793 1675 739 1675 c 0
 686 1675 636 1713 636 1774 c 0
847 1903 m 1
 998 2305 l 5
 1137 2256 l 1
 910 1863 l 1
 847 1903 l 1
966 1774 m 0
 966 1832 1019 1870 1069 1870 c 0
 1123 1870 1177 1831 1177 1774 c 0
 1177 1713 1123 1675 1069 1675 c 0
 1016 1675 966 1713 966 1774 c 0
EndSplineSet
EndChar

StartChar: Udieresiscaron
Encoding: 473 473 101
Width: 1731
VWidth: 0
Flags: W
HStem: -33 163<716.145 1124.31> 1442 94<43 91.0904 637.556 701 1114 1164.53 1628.47 1691> 1650 196<653.191 827.173 983.191 1158.58>
VStem: 255 238<384.082 1391> 636 209<1667.81 1827.74> 966 211<1669.16 1826.37> 1324 155<344.468 1391>
DStem2: 755 2119 655 2043 0.734803 -0.67828<0 254.525> 951 1942 944 1857 0.693955 0.720019<0 230.044>
LayerCount: 2
Fore
SplineSet
27 1442 m 1
 43 1536 l 1
 713 1536 l 1
 701 1442 l 1
 493 1395 l 1
 493 630 l 2
 493 278 669 130 922 130 c 0
 1171 130 1323 273 1324 595 c 2
 1327 1391 l 1
 1101 1442 l 1
 1114 1536 l 1
 1704 1536 l 1
 1691 1442 l 1
 1486 1395 l 1
 1479 636 l 2
 1475 191 1290 -33 861 -33 c 0
 576 -33 255 59 255 579 c 2
 255 1391 l 1
 27 1442 l 1
636 1749 m 0
 636 1807 689 1846 739 1846 c 0
 793 1846 845 1806 845 1749 c 0
 845 1688 793 1650 739 1650 c 0
 686 1650 636 1688 636 1749 c 0
655 2043 m 1
 755 2119 l 1
 938 1942 l 1
 951 1942 l 1
 1103 2115 l 1
 1157 2078 l 1
 944 1857 l 1
 876 1839 l 1
 655 2043 l 1
966 1749 m 0
 966 1807 1019 1846 1069 1846 c 0
 1123 1846 1177 1806 1177 1749 c 0
 1177 1688 1123 1650 1069 1650 c 0
 1016 1650 966 1688 966 1749 c 0
EndSplineSet
EndChar

StartChar: Udieresisgrave
Encoding: 475 475 102
Width: 1731
VWidth: 0
Flags: W
HStem: -33 163<716.145 1124.31> 1442 94<43 91.0904 637.556 701 1114 1164.53 1628.47 1691> 1653 194<652.513 828.597 982.513 1160.05>
VStem: 255 238<384.082 1391> 636 209<1670.81 1829.46> 966 211<1672.16 1828.14> 1324 155<344.468 1391>
LayerCount: 2
Fore
SplineSet
27 1442 m 1
 43 1536 l 1
 713 1536 l 1
 701 1442 l 1
 493 1395 l 1
 493 630 l 2
 493 278 669 130 922 130 c 0
 1171 130 1323 273 1324 595 c 2
 1327 1391 l 1
 1101 1442 l 1
 1114 1536 l 1
 1704 1536 l 1
 1691 1442 l 1
 1486 1395 l 1
 1479 636 l 2
 1475 191 1290 -33 861 -33 c 0
 576 -33 255 59 255 579 c 2
 255 1391 l 1
 27 1442 l 1
636 1752 m 0
 636 1810 689 1847 739 1847 c 0
 793 1847 845 1809 845 1752 c 0
 845 1691 793 1653 739 1653 c 0
 686 1653 636 1691 636 1752 c 0
655 2225 m 1
 796 2271 l 1
 960 1858 l 1
 888 1816 l 1
 655 2225 l 1
966 1752 m 0
 966 1810 1019 1847 1069 1847 c 0
 1123 1847 1177 1809 1177 1752 c 0
 1177 1691 1123 1653 1069 1653 c 0
 1016 1653 966 1691 966 1752 c 0
EndSplineSet
EndChar

StartChar: Udieresismacron
Encoding: 469 469 103
Width: 1731
VWidth: 0
Flags: W
HStem: -33 163<716.145 1124.31> 1442 94<43 91.0904 637.556 701 1114 1164.53 1628.47 1691> 1632 195<653.191 827.173 983.191 1158.58> 1881 124<644 1172>
VStem: 255 238<384.082 1391> 636 209<1650.17 1809.46> 966 211<1651.55 1808.14> 1324 155<344.468 1391>
LayerCount: 2
Fore
SplineSet
27 1442 m 1
 43 1536 l 1
 713 1536 l 1
 701 1442 l 1
 493 1395 l 1
 493 630 l 2
 493 278 669 130 922 130 c 0
 1171 130 1323 273 1324 595 c 2
 1327 1391 l 1
 1101 1442 l 1
 1114 1536 l 1
 1704 1536 l 1
 1691 1442 l 1
 1486 1395 l 1
 1479 636 l 2
 1475 191 1290 -33 861 -33 c 0
 576 -33 255 59 255 579 c 2
 255 1391 l 1
 27 1442 l 1
627 1881 m 1
 644 2005 l 1
 1188 2005 l 1
 1172 1881 l 1
 627 1881 l 1
636 1732 m 0
 636 1790 689 1827 739 1827 c 0
 793 1827 845 1789 845 1732 c 0
 845 1671 793 1632 739 1632 c 0
 686 1632 636 1671 636 1732 c 0
966 1732 m 0
 966 1790 1019 1827 1069 1827 c 0
 1123 1827 1177 1789 1177 1732 c 0
 1177 1671 1123 1632 1069 1632 c 0
 1016 1632 966 1671 966 1732 c 0
EndSplineSet
EndChar

StartChar: Uhungarumlaut
Encoding: 368 368 105
Width: 1731
VWidth: 0
Flags: W
HStem: -33 163<716.145 1124.31> 1442 94<43 91.0904 637.556 701 1114 1164.53 1628.47 1691>
VStem: 255 238<384.082 1391> 1324 155<344.468 1391>
LayerCount: 2
Fore
SplineSet
27 1442 m 1
 43 1536 l 1
 713 1536 l 1
 701 1442 l 1
 493 1395 l 1
 493 630 l 2
 493 278 669 130 922 130 c 0
 1171 130 1323 273 1324 595 c 2
 1327 1391 l 1
 1101 1442 l 1
 1114 1536 l 1
 1704 1536 l 1
 1691 1442 l 1
 1486 1395 l 1
 1479 636 l 2
 1475 191 1290 -33 861 -33 c 0
 576 -33 255 59 255 579 c 2
 255 1391 l 1
 27 1442 l 1
689 1745 m 1
 1002 2002 l 1
 1093 1896 l 1
 723 1684 l 1
 689 1745 l 1
949 1745 m 1
 1254 1992 l 1
 1342 1890 l 1
 985 1684 l 1
 949 1745 l 1
EndSplineSet
EndChar

StartChar: Uogonek
Encoding: 370 370 107
Width: 1736
VWidth: 0
Flags: W
HStem: -477 63<1115.19 1125.56> -33 163<716.145 1040.48> 1442 94<43 91.0904 637.556 701 1114 1164.53 1628.47 1691>
VStem: 255 238<384.082 1391> 823 182<-316.521 -129.975> 1324 155<351.183 1391>
LayerCount: 2
Fore
SplineSet
27 1442 m 1
 43 1536 l 1
 713 1536 l 1
 701 1442 l 1
 493 1395 l 1
 493 630 l 2
 493 278 669 130 922 130 c 0
 1171 130 1323 273 1324 595 c 2
 1327 1391 l 1
 1101 1442 l 1
 1114 1536 l 1
 1704 1536 l 1
 1691 1442 l 1
 1486 1395 l 1
 1479 636 l 2
 1476 272 1351 57 1073 -10 c 1
 1008 -120 1005 -161 1005 -183 c 0
 1005 -260 1047 -349 1158 -414 c 1
 1116 -477 l 5
 938 -459 823 -363 823 -257 c 0
 823 -199 840 -139 957 -29 c 1
 927 -32 895 -33 861 -33 c 0
 576 -33 255 59 255 579 c 2
 255 1391 l 1
 27 1442 l 1
EndSplineSet
EndChar

StartChar: Uring
Encoding: 366 366 108
Width: 1731
VWidth: 0
Flags: W
HStem: -33 163<716.145 1124.31> 1442 94<43 91.0904 637.556 701 1114 1164.53 1628.47 1691> 1651 60<845.03 986.888> 2009 58<835.744 970.438>
VStem: 255 238<384.082 1391> 710 87<1746.94 1981.87> 1021 89<1736.12 1975.7> 1324 155<344.468 1391>
LayerCount: 2
Fore
SplineSet
27 1442 m 1
 43 1536 l 1
 713 1536 l 1
 701 1442 l 1
 493 1395 l 1
 493 630 l 2
 493 278 669 130 922 130 c 0
 1171 130 1323 273 1324 595 c 2
 1327 1391 l 1
 1101 1442 l 1
 1114 1536 l 1
 1704 1536 l 1
 1691 1442 l 1
 1486 1395 l 1
 1479 636 l 2
 1475 191 1290 -33 861 -33 c 0
 576 -33 255 59 255 579 c 2
 255 1391 l 1
 27 1442 l 1
710 1855 m 0
 710 1969 802 2067 917 2067 c 0
 1035 2067 1110 1982 1110 1867 c 0
 1110 1756 1026 1651 900 1651 c 0
 786 1651 710 1729 710 1855 c 0
797 1870 m 0
 797 1795 836 1711 915 1711 c 0
 982 1711 1021 1761 1021 1851 c 0
 1021 1928 980 2009 903 2009 c 0
 830 2009 797 1939 797 1870 c 0
EndSplineSet
EndChar

StartChar: V
Encoding: 86 86 109
Width: 1526
VWidth: 0
Flags: W
HStem: -30 21G<664.723 779.429> 1442 94<-14 24.8787 574.251 638 994 1048.25 1497.59 1547>
DStem2: 429 1395 155 1391 0.341902 -0.939735<0 1151.59> 815 310 860 5 0.353335 0.935497<0 1150.84>
LayerCount: 2
Fore
SplineSet
-26 1442 m 1
 -14 1536 l 1
 651 1536 l 1
 638 1442 l 1
 429 1395 l 1
 815 310 l 1
 1210 1391 l 1
 985 1442 l 1
 994 1536 l 1
 1556 1536 l 1
 1547 1442 l 1
 1385 1395 l 1
 860 5 l 1
 672 -30 l 1
 155 1391 l 1
 -26 1442 l 1
EndSplineSet
EndChar

StartChar: W
Encoding: 87 87 110
Width: 2210
VWidth: 0
Flags: W
HStem: -30 21G<555.342 675.857 1431.64 1546.14> 1442 94<-3 34.63 550.861 614 1689 1738.68 2183.94 2230>
DStem2: 407 1395 159 1391 0.272216 -0.962236<0 1101.36> 706 335 762 5 0.288099 0.957601<0 921.929> 1271 1505 1114 1175 0.25891 -0.965902<278.099 1190.98> 1577 354 1628 5 0.308622 0.951185<0 1085.75>
LayerCount: 2
Fore
SplineSet
-14 1442 m 1
 -3 1536 l 1
 632 1536 l 1
 614 1442 l 1
 407 1395 l 1
 706 335 l 1
 1053 1475 l 1
 1271 1505 l 1
 1577 354 l 1
 1899 1391 l 1
 1676 1442 l 1
 1689 1536 l 1
 2244 1536 l 1
 2230 1442 l 1
 2079 1395 l 1
 1628 5 l 1
 1437 -30 l 1
 1114 1175 l 1
 762 5 l 1
 561 -30 l 1
 159 1391 l 1
 -14 1442 l 1
EndSplineSet
EndChar

StartChar: Wacute
Encoding: 7810 7810 111
Width: 2210
VWidth: 0
Flags: W
HStem: -30 21G<555.342 675.857 1431.64 1546.14> 1442 94<-3 34.63 550.861 614 1689 1738.68 2183.94 2230>
DStem2: 407 1395 159 1391 0.272216 -0.962236<0 1101.36> 706 335 762 5 0.288099 0.957601<0 921.929> 1271 1505 1114 1175 0.25891 -0.965902<278.099 1190.98> 1577 354 1628 5 0.308622 0.951185<0 1085.75>
LayerCount: 2
Fore
SplineSet
-14 1442 m 1
 -3 1536 l 1
 632 1536 l 1
 614 1442 l 1
 407 1395 l 1
 706 335 l 1
 1053 1475 l 1
 1271 1505 l 1
 1577 354 l 1
 1899 1391 l 1
 1676 1442 l 1
 1689 1536 l 1
 2244 1536 l 1
 2230 1442 l 1
 2079 1395 l 1
 1628 5 l 1
 1437 -30 l 1
 1114 1175 l 1
 762 5 l 1
 561 -30 l 1
 159 1391 l 1
 -14 1442 l 1
1114 1711 m 1
 1266 2112 l 1
 1403 2063 l 1
 1177 1672 l 1
 1114 1711 l 1
EndSplineSet
EndChar

StartChar: Wcircumflex
Encoding: 372 372 112
Width: 2210
VWidth: 0
Flags: W
HStem: -30 21G<555.342 675.857 1431.64 1546.14> 1442 94<-3 34.63 550.861 614 1689 1738.68 2183.94 2230>
DStem2: 407 1395 159 1391 0.272216 -0.962236<0 1101.36> 706 335 762 5 0.288099 0.957601<0 921.929> 1271 1505 1114 1175 0.25891 -0.965902<278.099 1190.98> 1577 354 1628 5 0.308622 0.951185<0 1085.75>
LayerCount: 2
Fore
SplineSet
-14 1442 m 1
 -3 1536 l 1
 632 1536 l 1
 614 1442 l 1
 407 1395 l 1
 706 335 l 1
 1053 1475 l 1
 1271 1505 l 1
 1577 354 l 1
 1899 1391 l 1
 1676 1442 l 1
 1689 1536 l 1
 2244 1536 l 1
 2230 1442 l 1
 2079 1395 l 1
 1628 5 l 1
 1437 -30 l 1
 1114 1175 l 1
 762 5 l 1
 561 -30 l 1
 159 1391 l 1
 -14 1442 l 1
919 1645 m 1
 1127 1866 l 1
 1195 1882 l 1
 1415 1654 l 1
 1354 1608 l 1
 1152 1744 l 1
 1139 1744 l 1
 967 1607 l 1
 919 1645 l 1
EndSplineSet
EndChar

StartChar: Wdieresis
Encoding: 7812 7812 113
Width: 2210
VWidth: 0
Flags: W
HStem: -30 21G<555.342 675.857 1431.64 1546.14> 1442 94<-3 34.63 550.861 614 1689 1738.68 2183.94 2230> 1695 195<909.06 1085.14 1239.06 1418.78>
VStem: 892 209<1712.81 1870.75> 1222 214<1714.16 1870.75>
DStem2: 407 1395 159 1391 0.272216 -0.962236<0 1101.36> 706 335 762 5 0.288099 0.957601<0 921.929> 1271 1505 1114 1175 0.25891 -0.965902<278.099 1190.98> 1577 354 1628 5 0.308622 0.951185<0 1085.75>
LayerCount: 2
Fore
SplineSet
-14 1442 m 1
 -3 1536 l 1
 632 1536 l 1
 614 1442 l 1
 407 1395 l 1
 706 335 l 1
 1053 1475 l 1
 1271 1505 l 1
 1577 354 l 1
 1899 1391 l 1
 1676 1442 l 1
 1689 1536 l 1
 2244 1536 l 1
 2230 1442 l 1
 2079 1395 l 1
 1628 5 l 1
 1437 -30 l 1
 1114 1175 l 1
 762 5 l 1
 561 -30 l 1
 159 1391 l 1
 -14 1442 l 1
892 1794 m 0
 892 1852 947 1890 997 1890 c 0
 1051 1890 1101 1851 1101 1794 c 0
 1101 1733 1051 1695 997 1695 c 0
 944 1695 892 1733 892 1794 c 0
1222 1794 m 0
 1222 1852 1277 1890 1327 1890 c 0
 1381 1890 1436 1851 1436 1794 c 0
 1436 1733 1381 1695 1327 1695 c 0
 1274 1695 1222 1733 1222 1794 c 0
EndSplineSet
EndChar

StartChar: Wgrave
Encoding: 7808 7808 114
Width: 2210
VWidth: 0
Flags: W
HStem: -30 21G<555.342 675.857 1431.64 1546.14> 1442 94<-3 34.63 550.861 614 1689 1738.68 2183.94 2230>
DStem2: 407 1395 159 1391 0.272216 -0.962236<0 1101.36> 706 335 762 5 0.288099 0.957601<0 921.929> 1271 1505 1114 1175 0.25891 -0.965902<278.099 1190.98> 1577 354 1628 5 0.308622 0.951185<0 1085.75>
LayerCount: 2
Fore
SplineSet
-14 1442 m 1
 -3 1536 l 1
 632 1536 l 1
 614 1442 l 1
 407 1395 l 1
 706 335 l 1
 1053 1475 l 1
 1271 1505 l 1
 1577 354 l 1
 1899 1391 l 1
 1676 1442 l 1
 1689 1536 l 1
 2244 1536 l 1
 2230 1442 l 1
 2079 1395 l 1
 1628 5 l 1
 1437 -30 l 1
 1114 1175 l 1
 762 5 l 1
 561 -30 l 1
 159 1391 l 1
 -14 1442 l 1
891 2055 m 1
 1032 2102 l 1
 1196 1689 l 1
 1124 1647 l 1
 891 2055 l 1
EndSplineSet
EndChar

StartChar: X
Encoding: 88 88 115
Width: 1474
VWidth: 0
Flags: W
HStem: 0 91<506.576 542 842 890.94 1416.12 1448> 1440 96<49 73.5683 627.485 670 922 959.617 1406.96 1450>
DStem2: 477 1384 204 1387 0.559634 -0.82874<0 550.251 739.561 1338.57> 782 926 875 811 0.582028 0.813169<0 572.521>
LayerCount: 2
Fore
SplineSet
-1 0 m 1
 14 94 l 1
 170 149 l 1
 622 759 l 1
 204 1387 l 1
 34 1440 l 1
 49 1536 l 1
 683 1536 l 1
 670 1440 l 1
 477 1384 l 1
 782 926 l 1
 1116 1391 l 1
 907 1440 l 1
 922 1536 l 1
 1460 1536 l 1
 1450 1442 l 1
 1293 1395 l 1
 875 811 l 1
 1297 141 l 1
 1464 99 l 1
 1448 0 l 1
 826 0 l 1
 842 91 l 1
 1040 149 l 1
 716 653 l 1
 356 145 l 1
 561 103 l 1
 542 0 l 1
 -1 0 l 1
EndSplineSet
EndChar

StartChar: Y
Encoding: 89 89 116
Width: 1387
VWidth: 0
Flags: W
HStem: 0 91<395 440.727 962.369 1008> 1442 94<-10 21.7867 543.216 603 862 913.528 1352.03 1399>
VStem: 580 239<149 623>
DStem2: 407 1395 144 1391 0.493698 -0.869633<0 695.467> 750 790 819 653 0.4979 0.867234<0 683.523>
LayerCount: 2
Fore
SplineSet
-26 1442 m 1
 -10 1536 l 1
 618 1536 l 1
 603 1442 l 1
 407 1395 l 1
 750 790 l 1
 1076 1391 l 1
 850 1442 l 1
 862 1536 l 1
 1411 1536 l 1
 1399 1442 l 1
 1245 1395 l 1
 819 653 l 1
 819 141 l 1
 1020 99 l 1
 1008 0 l 1
 383 0 l 1
 395 91 l 1
 580 149 l 1
 580 623 l 1
 144 1391 l 1
 -26 1442 l 1
EndSplineSet
EndChar

StartChar: Z
Encoding: 90 90 121
Width: 1354
VWidth: 0
Flags: W
HStem: 0 124<323 1027> 1115 21G<119.091 226.25> 1419 117<315 978>
DStem2: 58 128 323 124 0.582288 0.812983<151.054 1585.27>
LayerCount: 2
Fore
SplineSet
58 128 m 1
 978 1419 l 1
 315 1419 l 1
 220 1115 l 1
 109 1137 l 1
 121 1536 l 1
 1267 1536 l 1
 1267 1442 l 1
 323 124 l 1
 1027 124 l 1
 1179 433 l 1
 1294 414 l 1
 1224 0 l 1
 68 0 l 1
 58 128 l 1
EndSplineSet
EndChar

StartChar: Zacute
Encoding: 377 377 122
Width: 1354
VWidth: 0
Flags: W
HStem: 0 124<323 1027> 1115 21G<119.091 226.25> 1419 117<315 978>
DStem2: 58 128 323 124 0.582288 0.812983<151.054 1585.27>
LayerCount: 2
Fore
SplineSet
58 128 m 1
 978 1419 l 1
 315 1419 l 1
 220 1115 l 1
 109 1137 l 1
 121 1536 l 1
 1267 1536 l 1
 1267 1442 l 1
 323 124 l 1
 1027 124 l 1
 1179 433 l 1
 1294 414 l 1
 1224 0 l 1
 68 0 l 1
 58 128 l 1
584 1711 m 1
 735 2112 l 1
 873 2063 l 1
 646 1672 l 1
 584 1711 l 1
EndSplineSet
EndChar

StartChar: Zcaron
Encoding: 381 381 123
Width: 1354
VWidth: 0
Flags: W
HStem: 0 124<323 1027> 1115 21G<119.091 226.25> 1419 117<315 978>
DStem2: 58 128 323 124 0.582288 0.812983<151.054 1585.27> 522 1962 421 1886 0.733148 -0.680069<0 254.538> 717 1785 710 1699 0.695638 0.718392<0 230.019>
LayerCount: 2
Fore
SplineSet
58 128 m 1
 978 1419 l 1
 315 1419 l 1
 220 1115 l 1
 109 1137 l 1
 121 1536 l 1
 1267 1536 l 1
 1267 1442 l 1
 323 124 l 1
 1027 124 l 1
 1179 433 l 1
 1294 414 l 1
 1224 0 l 1
 68 0 l 1
 58 128 l 1
421 1886 m 1
 522 1962 l 1
 705 1785 l 1
 717 1785 l 1
 869 1958 l 1
 924 1920 l 1
 710 1699 l 1
 642 1681 l 1
 421 1886 l 1
EndSplineSet
EndChar

StartChar: Zdotaccent
Encoding: 379 379 124
Width: 1354
VWidth: 0
Flags: W
HStem: 0 124<323 1027> 1115 21G<119.091 226.25> 1419 117<315 978> 1680 292<578.604 785.375>
VStem: 534 297<1726.97 1928.72>
DStem2: 58 128 323 124 0.582288 0.812983<151.054 1585.27>
LayerCount: 2
Fore
SplineSet
58 128 m 1
 978 1419 l 1
 315 1419 l 1
 220 1115 l 1
 109 1137 l 1
 121 1536 l 1
 1267 1536 l 1
 1267 1442 l 1
 323 124 l 1
 1027 124 l 1
 1179 433 l 1
 1294 414 l 1
 1224 0 l 1
 68 0 l 1
 58 128 l 1
534 1833 m 0
 534 1912 602 1972 679 1972 c 0
 760 1972 831 1910 831 1831 c 0
 831 1748 760 1680 679 1680 c 0
 598 1680 534 1750 534 1833 c 0
EndSplineSet
EndChar

StartChar: a
Encoding: 97 97 125
Width: 1026
VWidth: 0
Flags: W
HStem: -30 152<235 487.821> 1 106<966 1012> 528 71<503.178 627> 993 119<320.628 534.274>
VStem: 58 216<160.459 360.326> 100 172<793.561 942.818> 627 201<192.43 528 595.843 892.411>
LayerCount: 2
Fore
SplineSet
58 208 m 0xba
 58 390 224 570 627 599 c 1
 627 667 l 2
 627 834 580 993 409 993 c 0
 291 993 290 884 272 731 c 1
 207 731 100 736 100 858 c 0
 100 992 352 1112 523 1112 c 0
 743 1112 828 993 828 732 c 2
 828 284 l 2
 828 170 851 137 966 118 c 2
 1027 107 l 1
 1012 1 l 1x76
 954 -7 916 -22 843 -22 c 0
 700 -22 652 70 652 143 c 2
 652 162 l 1
 638 162 l 1
 605 97 502 -30 300 -30 c 0
 170 -30 58 57 58 208 c 0xba
274 265 m 0xba
 274 203 322 122 413 122 c 0
 499 122 586 186 627 232 c 1
 627 528 l 1
 358 475 274 383 274 265 c 0xba
EndSplineSet
EndChar

StartChar: aacute
Encoding: 225 225 126
Width: 1026
VWidth: 0
Flags: W
HStem: -30 152<235 487.821> 1 106<966 1012> 528 71<503.178 627> 993 119<320.628 534.274>
VStem: 58 216<160.459 360.326> 100 172<793.561 942.818> 627 201<192.43 528 595.843 892.411>
LayerCount: 2
Fore
SplineSet
58 208 m 0xba
 58 390 224 570 627 599 c 1
 627 667 l 2
 627 834 580 993 409 993 c 0
 291 993 290 884 272 731 c 1
 207 731 100 736 100 858 c 0
 100 992 352 1112 523 1112 c 0
 743 1112 828 993 828 732 c 2
 828 284 l 2
 828 170 851 137 966 118 c 2
 1027 107 l 1
 1012 1 l 1x76
 954 -7 916 -22 843 -22 c 0
 700 -22 652 70 652 143 c 2
 652 162 l 1
 638 162 l 1
 605 97 502 -30 300 -30 c 0
 170 -30 58 57 58 208 c 0xba
274 265 m 0xba
 274 203 322 122 413 122 c 0
 499 122 586 186 627 232 c 1
 627 528 l 1
 358 475 274 383 274 265 c 0xba
405 1256 m 1
 557 1657 l 1
 694 1608 l 1
 469 1217 l 1
 405 1256 l 1
EndSplineSet
EndChar

StartChar: abreve
Encoding: 259 259 127
Width: 1026
VWidth: 0
Flags: W
HStem: -30 152<235 487.821> 1 106<966 1012> 528 71<503.178 627> 993 119<320.628 534.274> 1248 135<385.233 627.346>
VStem: 58 216<160.459 360.326> 100 172<793.561 942.818> 272 66<1440.4 1477.06> 627 201<192.43 528 595.843 892.411> 680 55<1450.69 1479.28>
LayerCount: 2
Fore
SplineSet
58 208 m 0xbc80
 58 390 224 570 627 599 c 1
 627 667 l 2
 627 834 580 993 409 993 c 0
 291 993 290 884 272 731 c 1xb980
 207 731 100 736 100 858 c 0
 100 992 352 1112 523 1112 c 0
 743 1112 828 993 828 732 c 2
 828 284 l 2
 828 170 851 137 966 118 c 2
 1027 107 l 1
 1012 1 l 1x7a80
 954 -7 916 -22 843 -22 c 0
 700 -22 652 70 652 143 c 2
 652 162 l 1
 638 162 l 1
 605 97 502 -30 300 -30 c 0
 170 -30 58 57 58 208 c 0xbc80
272 1467 m 1
 329 1507 l 1
 338 1486 l 1
 362 1437 422 1383 505 1383 c 0
 592 1383 647 1434 680 1487 c 1
 693 1509 l 1
 743 1474 l 1
 735 1449 l 2x3940
 701 1350 627 1248 505 1248 c 0
 375 1248 301 1349 277 1444 c 2
 272 1467 l 1
274 265 m 0xbc80
 274 203 322 122 413 122 c 0
 499 122 586 186 627 232 c 1
 627 528 l 1
 358 475 274 383 274 265 c 0xbc80
EndSplineSet
EndChar

StartChar: acaron
Encoding: 462 462 128
Width: 1026
VWidth: 0
Flags: W
HStem: -30 152<235 487.821> 1 106<966 1012> 528 71<503.178 627> 993 119<320.628 534.274>
VStem: 58 216<160.459 360.326> 100 172<793.561 942.818> 627 201<192.43 528 595.843 892.411>
DStem2: 341 1507 242 1431 0.733148 -0.680069<0 256.005> 538 1330 531 1244 0.69226 0.721648<0 230.069>
LayerCount: 2
Fore
SplineSet
58 208 m 0xba
 58 390 224 570 627 599 c 1
 627 667 l 2
 627 834 580 993 409 993 c 0
 291 993 290 884 272 731 c 1
 207 731 100 736 100 858 c 0
 100 992 352 1112 523 1112 c 0
 743 1112 828 993 828 732 c 2
 828 284 l 2
 828 170 851 137 966 118 c 2
 1027 107 l 1
 1012 1 l 1x76
 954 -7 916 -22 843 -22 c 0
 700 -22 652 70 652 143 c 2
 652 162 l 1
 638 162 l 1
 605 97 502 -30 300 -30 c 0
 170 -30 58 57 58 208 c 0xba
242 1431 m 1
 341 1507 l 1
 526 1330 l 1
 538 1330 l 1
 690 1503 l 1
 743 1465 l 1
 531 1244 l 1
 463 1226 l 1
 242 1431 l 1
274 265 m 0xba
 274 203 322 122 413 122 c 0
 499 122 586 186 627 232 c 1
 627 528 l 1
 358 475 274 383 274 265 c 0xba
EndSplineSet
EndChar

StartChar: acircumflex
Encoding: 226 226 129
Width: 1026
VWidth: 0
Flags: W
HStem: -30 152<235 487.821> 1 106<966 1012> 528 71<503.178 627> 993 119<320.628 534.274>
VStem: 58 216<160.459 360.326> 100 172<793.561 942.818> 627 201<192.43 528 595.843 892.411>
LayerCount: 2
Fore
SplineSet
58 208 m 0xba
 58 390 224 570 627 599 c 1
 627 667 l 2
 627 834 580 993 409 993 c 0
 291 993 290 884 272 731 c 1
 207 731 100 736 100 858 c 0
 100 992 352 1112 523 1112 c 0
 743 1112 828 993 828 732 c 2
 828 284 l 2
 828 170 851 137 966 118 c 2
 1027 107 l 1
 1012 1 l 1x76
 954 -7 916 -22 843 -22 c 0
 700 -22 652 70 652 143 c 2
 652 162 l 1
 638 162 l 1
 605 97 502 -30 300 -30 c 0
 170 -30 58 57 58 208 c 0xba
261 1264 m 1
 469 1486 l 1
 536 1503 l 1
 755 1274 l 1
 694 1229 l 1
 493 1364 l 1
 481 1364 l 1
 308 1226 l 1
 261 1264 l 1
274 265 m 0xba
 274 203 322 122 413 122 c 0
 499 122 586 186 627 232 c 1
 627 528 l 1
 358 475 274 383 274 265 c 0xba
EndSplineSet
EndChar

StartChar: acute
Encoding: 180 180 130
Width: 643
VWidth: 0
Flags: W
HStem: 1665 441
VStem: 212 289
LayerCount: 2
Fore
SplineSet
212 1704 m 1
 364 2106 l 1
 501 2058 l 5
 276 1665 l 1
 212 1704 l 1
EndSplineSet
EndChar

StartChar: adieresis
Encoding: 228 228 131
Width: 1026
VWidth: 0
Flags: W
HStem: -30 152<235 487.821> 1 106<966 1012> 528 71<503.178 627> 993 119<320.628 534.274> 1240 196<251.191 425.173 581.191 756.584>
VStem: 58 216<160.459 360.326> 100 172<793.561 942.818> 234 209<1257.81 1417.74> 564 211<1259.16 1416.37> 627 201<192.43 528 595.843 892.411>
LayerCount: 2
Fore
SplineSet
58 208 m 0xbc40
 58 390 224 570 627 599 c 1
 627 667 l 2
 627 834 580 993 409 993 c 0
 291 993 290 884 272 731 c 1
 207 731 100 736 100 858 c 0
 100 992 352 1112 523 1112 c 0
 743 1112 828 993 828 732 c 2
 828 284 l 2
 828 170 851 137 966 118 c 2
 1027 107 l 1
 1012 1 l 1x7a40
 954 -7 916 -22 843 -22 c 0
 700 -22 652 70 652 143 c 2
 652 162 l 1
 638 162 l 1
 605 97 502 -30 300 -30 c 0
 170 -30 58 57 58 208 c 0xbc40
234 1339 m 0x39
 234 1397 287 1436 337 1436 c 0
 391 1436 443 1396 443 1339 c 0
 443 1278 391 1240 337 1240 c 0
 284 1240 234 1278 234 1339 c 0x39
274 265 m 0xbc40
 274 203 322 122 413 122 c 0
 499 122 586 186 627 232 c 1
 627 528 l 1
 358 475 274 383 274 265 c 0xbc40
564 1339 m 0x3880
 564 1397 617 1436 667 1436 c 0
 721 1436 775 1396 775 1339 c 0
 775 1278 721 1240 667 1240 c 0
 614 1240 564 1278 564 1339 c 0x3880
EndSplineSet
EndChar

StartChar: ae
Encoding: 230 230 132
Width: 1530
VWidth: 0
Flags: W
HStem: -37 143<234 488.48 1010.67 1297.29> 505 93<439.906 626> 989 123<322.532 543.144 949.315 1168.66>
VStem: 56 216<134.093 352.181> 107 169<814.438 944.667> 626 201<325.073 505 626 829.156> 1225 219<669.897 926.848>
LayerCount: 2
Fore
SplineSet
56 194 m 0xf6
 56 376 179 517 626 598 c 1
 626 667 l 2
 626 834 584 989 421 989 c 0
 303 989 294 904 276 751 c 1
 211 751 107 757 107 879 c 0xee
 107 1013 351 1112 522 1112 c 0
 661 1112 736 1062 770 959 c 1
 868 1057 994 1110 1112 1110 c 0
 1291 1110 1444 979 1444 718 c 0
 1444 680 1431 592 1421 550 c 1
 827 526 l 1
 837 332 938 106 1169 106 c 0
 1256 106 1322 122 1450 191 c 1
 1475 128 l 1
 1377 26 1232 -37 1069 -37 c 0
 939 -37 720 46 682 216 c 1
 628 53 474 -30 299 -30 c 0
 169 -30 56 43 56 194 c 0xf6
272 251 m 0xf6
 272 152 322 103 412 103 c 0
 511 103 626 198 626 323 c 2
 626 505 l 1
 316 456 272 369 272 251 c 0xf6
827 626 m 1
 1214 671 l 1
 1219 691 1225 739 1225 759 c 0
 1225 906 1169 989 1051 989 c 0
 952 989 839 866 827 626 c 1
EndSplineSet
EndChar

StartChar: uni05D0
Encoding: 1488 1488 134
Width: 1032
VWidth: 0
Flags: W
HStem: 0 21G<124.872 391>
VStem: 128 132<394.15 570.602> 190 221<105.305 288.805> 789 145<798.067 949>
DStem2: 284 1064 102 966 0.609292 -0.792946<0 275.031 334.046 610.81 683.609 1101.81>
LayerCount: 2
Fore
SplineSet
102 966 m 1xd0
 102 992 l 1
 222 1191 l 1
 294 1159 l 1
 284 1064 l 1
 654 578 l 1
 658 578 l 1
 768 759 l 1
 783 787 789 806 789 818 c 0
 789 827 786 832 782 835 c 2
 630 960 l 1
 620 994 l 1
 728 1193 l 1
 790 1181 l 1
 794 1108 l 1
 885 1022 l 2
 909 999 934 972 934 926 c 0
 934 889 918 840 873 771 c 1
 698 520 l 1
 951 187 l 5
 911 -40 l 1
 875 -40 l 1
 326 675 l 1
 296 636 260 581 260 514 c 0xd0
 260 402 411 294 411 133 c 0
 411 81 399 42 383 0 c 1
 130 0 l 1
 110 78 l 1
 184 114 l 1
 188 123 190 133 190 144 c 0xb0
 190 211 128 320 128 426 c 0
 128 519 210 645 284 729 c 1
 102 966 l 1xd0
EndSplineSet
EndChar

StartChar: amacron
Encoding: 257 257 135
Width: 1026
VWidth: 0
Flags: W
HStem: -30 152<235 487.821> 1 106<966 1012> 528 71<503.178 627> 993 119<320.628 534.274> 1254 124<242 770>
VStem: 58 216<160.459 360.326> 100 172<793.561 942.818> 627 201<192.43 528 595.843 892.411>
LayerCount: 2
Fore
SplineSet
58 208 m 0xbd
 58 390 224 570 627 599 c 1
 627 667 l 2
 627 834 580 993 409 993 c 0
 291 993 290 884 272 731 c 1
 207 731 100 736 100 858 c 0
 100 992 352 1112 523 1112 c 0
 743 1112 828 993 828 732 c 2
 828 284 l 2
 828 170 851 137 966 118 c 2
 1027 107 l 1
 1012 1 l 1x7b
 954 -7 916 -22 843 -22 c 0
 700 -22 652 70 652 143 c 2
 652 162 l 1
 638 162 l 1
 605 97 502 -30 300 -30 c 0
 170 -30 58 57 58 208 c 0xbd
225 1254 m 1
 242 1378 l 1
 786 1378 l 1
 770 1254 l 1
 225 1254 l 1
274 265 m 0xbd
 274 203 322 122 413 122 c 0
 499 122 586 186 627 232 c 1
 627 528 l 1
 358 475 274 383 274 265 c 0xbd
EndSplineSet
EndChar

StartChar: ampersand
Encoding: 38 38 136
Width: 1583
VWidth: 0
Flags: W
HStem: -24 154<398.585 675.751> 940 94<1016 1055.55 1474.28 1537> 1467 103<481.433 698.352>
VStem: 41 232<276.715 580.34> 220 198<1117.6 1359.44> 761 210<1102.71 1401.52>
DStem2: 687 871 459 777 0.685621 -0.727958<0 426.165 607.579 1024.5> 972 554 1061 469 0.533533 0.845779<0 399.334>
LayerCount: 2
Fore
SplineSet
41 387 m 0xf4
 41 578 155 736 383 866 c 1
 304 933 220 1062 220 1203 c 0xec
 220 1396 413 1570 610 1570 c 0
 833 1570 971 1472 971 1248 c 0
 971 1122 874 998 687 884 c 1
 687 871 l 1
 972 554 l 1
 1191 888 l 1
 1004 940 l 1
 1016 1034 l 1
 1550 1034 l 1
 1537 940 l 1
 1327 892 l 1
 1061 469 l 1
 1269 245 1411 120 1484 98 c 2
 1525 86 l 1
 1507 0 l 1
 1461 -16 1411 -24 1358 -24 c 0
 1221 -24 1115 82 1042 158 c 2
 934 269 l 1
 820 103 703 -24 469 -24 c 0
 216 -24 41 138 41 387 c 0xf4
273 485 m 0xf4
 273 298 356 130 542 130 c 0
 686.19 130 798.402 252.805 846 348 c 1
 459 777 l 1
 439 780 l 1
 355 722 273 621 273 485 c 0xf4
418 1264 m 0xec
 418 1140 528 1013 603 955 c 1
 699 1020 761 1077 761 1220 c 0
 761 1356 715 1467 585 1467 c 0
 480 1467 418 1367 418 1264 c 0xec
EndSplineSet
EndChar

StartChar: aogonek
Encoding: 261 261 137
Width: 1032
VWidth: 0
Flags: W
HStem: -30 152<241.945 487.821> 1 106<975.562 1012> 528 71<503.178 627> 993 119<320.628 534.274>
VStem: 58 216<160.459 360.326> 100 172<793.561 942.818> 627 201<192.43 528 595.843 892.411> 721 182<-314.664 -130.469>
LayerCount: 2
Fore
SplineSet
58 208 m 0xb9
 58 390 224 570 627 599 c 1
 627 667 l 2
 627 834 580 993 409 993 c 0
 291 993 290 884 272 731 c 1
 207 731 100 736 100 858 c 0
 100 992 352 1112 523 1112 c 0
 743 1112 828 993 828 732 c 2
 828 284 l 2
 828 170 851 137 966 118 c 2
 1027 107 l 1
 1012 1 l 1x76
 998 0 987 -3 975 -4 c 1
 907 -118 903 -161 903 -183 c 0
 903 -260 946 -349 1057 -414 c 1
 1014 -477 l 1
 836 -459 721 -363 721 -257 c 0
 721 -196 742 -136 864 -22 c 1
 843 -22 l 2
 700 -22 652 70 652 143 c 2
 652 162 l 1
 638 162 l 1
 605 97 502 -30 300 -30 c 0
 170 -30 58 57 58 208 c 0xb9
274 265 m 0xba
 274 203 322 122 413 122 c 0
 499 122 586 186 627 232 c 1
 627 528 l 1
 358 475 274 383 274 265 c 0xba
EndSplineSet
EndChar

StartChar: approxequal
Encoding: 8776 8776 138
Width: 1138
VWidth: 0
Flags: W
HStem: 364 177<725.72 939.987> 420 176<196.58 402.8> 680 177<725.72 939.987> 736 177<196.58 408.015>
VStem: 87 68<346.627 376.326 663.627 693.326>
DStem2: 872 857 262 736 0.995232 -0.0975363<-570.519 -23.7768> 321 595 262 420 0.995232 -0.0975363<-16.7818 557.621>
LayerCount: 2
Fore
SplineSet
87 350 m 1x48
 87 350 142 596 304 596 c 0x48
 309 596 316 596 321 595 c 2
 872 541 l 1
 876 541 l 2
 922 541 978 615 978 615 c 1
 1057 614 l 1
 1057 614 993 364 831 364 c 0
 826 364 817 363 812 364 c 2x88
 262 420 l 1
 257 420 l 2
 207 420 155 334 155 334 c 1
 87 350 l 1x48
87 667 m 1
 87 667 142 913 304 913 c 0x18
 309 913 316 912 321 911 c 2
 872 857 l 1
 876 857 l 2
 922 857 978 932 978 932 c 1
 1057 930 l 1
 1057 930 993 680 831 680 c 0x28
 826 680 817 681 812 682 c 2
 262 736 l 1
 257 736 l 2x18
 207 736 155 651 155 651 c 1
 87 667 l 1
EndSplineSet
EndChar

StartChar: aring
Encoding: 229 229 139
Width: 1026
VWidth: 0
Flags: W
HStem: -30 152<235 487.821> 1 106<966 1012> 528 71<503.178 627> 993 119<320.628 534.274> 1237 60<416.951 558.869> 1594 59<407.165 543.2>
VStem: 58 216<160.459 360.326> 100 172<793.561 942.818> 281 87<1332.76 1567.37> 593 87<1319.17 1559.34> 627 201<192.43 528 595.843 892.411>
LayerCount: 2
Fore
SplineSet
58 208 m 0xbea0
 58 390 224 570 627 599 c 1
 627 667 l 2
 627 834 580 993 409 993 c 0
 291 993 290 884 272 731 c 1
 207 731 100 736 100 858 c 0
 100 992 352 1112 523 1112 c 0
 743 1112 828 993 828 732 c 2
 828 284 l 2
 828 170 851 137 966 118 c 2
 1027 107 l 1
 1012 1 l 1x7da0
 954 -7 916 -22 843 -22 c 0
 700 -22 652 70 652 143 c 2
 652 162 l 1
 638 162 l 1
 605 97 502 -30 300 -30 c 0
 170 -30 58 57 58 208 c 0xbea0
274 265 m 0xbea0
 274 203 322 122 413 122 c 0
 499 122 586 186 627 232 c 1
 627 528 l 1
 358 475 274 383 274 265 c 0xbea0
281 1441 m 0
 281 1555 374 1653 489 1653 c 0
 607 1653 680 1568 680 1453 c 0x3cc0
 680 1342 599 1237 473 1237 c 0
 359 1237 281 1315 281 1441 c 0
368 1455 m 0
 368 1380 407 1297 486 1297 c 0
 553 1297 593 1347 593 1437 c 0
 593 1514 551 1594 474 1594 c 0
 401 1594 368 1524 368 1455 c 0
EndSplineSet
EndChar

StartChar: asciicircum
Encoding: 94 94 140
Width: 890
VWidth: 0
Flags: W
HStem: 972 572
LayerCount: 2
Fore
SplineSet
52 1020 m 1
 409 1528 l 1
 477 1544 l 1
 841 1017 l 1
 771 972 l 1
 436 1325 l 1
 424 1325 l 1
 114 979 l 1
 52 1020 l 1
EndSplineSet
EndChar

StartChar: asciitilde
Encoding: 126 126 141
Width: 1170
VWidth: 0
Flags: W
HStem: 493 282
VStem: 103 68<505.627 536.904> 995 79<731.562 773>
DStem2: 338 755 274 579 0.994966 -0.100212<-101.778 617.986>
LayerCount: 2
Fore
SplineSet
103 509 m 2
 103 509 175 771 338 755 c 2
 894 699 l 2
 940 695 995 775 995 775 c 1
 1074 773 l 2
 1074 773 998 506 830 524 c 2
 274 579 l 2
 224 584 171 493 171 493 c 1
 103 509 l 2
EndSplineSet
EndChar

StartChar: asterisk
Encoding: 42 42 142
Width: 998
VWidth: 0
Flags: W
HStem: 1095 20G<417.528 473.049>
LayerCount: 2
Fore
SplineSet
53 1191 m 1
 121 1347 l 1
 448 1207 l 1
 435 1119 l 1
 53 1191 l 1
200 846 m 1
 435 1115 l 1
 513 1074 l 1
 326 732 l 1
 200 846 l 1
405 1596 m 1
 573 1579 l 1
 541 1225 l 1
 452 1211 l 1
 405 1596 l 1
522 1074 m 1
 585 1137 l 1
 852 854 l 1
 706 769 l 1
 522 1074 l 1
545 1222 m 1
 898 1387 l 1
 934 1222 l 1
 585 1141 l 1
 545 1222 l 1
EndSplineSet
EndChar

StartChar: at
Encoding: 64 64 143
Width: 1689
VWidth: 0
Flags: W
HStem: -281 114<625.264 1116.08> -44 20G<1303 1343.54> 73 150<603 789.625> 86 122<986 1239.13> 868 107<769.332 975.767> 1179 110<695.062 1157.68>
VStem: 67 191<188.043 683.15> 445 192<250.688 626.5> 1449 164<487.522 891.833>
DStem2: 913 314 1114 475 0.119508 0.992833<-6.34286 546.655>
LayerCount: 2
Fore
SplineSet
67 401 m 0xdf80
 67 893 440 1289 972 1289 c 0
 1318 1289 1613 1066 1613 728 c 0
 1613 394 1366 86 1028 86 c 0xdf80
 944 86 907 144 911 231 c 1
 899 231 l 1
 850 158 762 73 668 73 c 0xef80
 538 73 445 191 445 402 c 0
 445 754 728 975 936 975 c 0
 1001 975 1067 971 1138 955 c 1
 1142 952 l 1
 1165 928 l 1
 1114 475 l 2
 1109 421 1097 314 1097 284 c 0
 1097 230 1107 208 1129 208 c 0
 1316 208 1449 427 1449 678 c 0
 1449 1000 1220 1179 928 1179 c 0
 522 1179 258 821 258 433 c 0
 258 69 493 -167 898 -167 c 0
 1083 -167 1274 -73 1332 -24 c 1
 1377 -102 l 1
 1267 -167 1118 -281 853 -281 c 0
 477 -281 67 -96 67 401 c 0xdf80
637 455 m 0
 637 269 680 223 742 223 c 0xef80
 807 223 871 265 913 314 c 1
 978 854 l 1
 954 859 907 868 869 868 c 0
 726 868 637 645 637 455 c 0
EndSplineSet
EndChar

StartChar: atilde
Encoding: 227 227 144
Width: 1026
VWidth: 0
Flags: W
HStem: -30 152<235 487.821> 1 106<966 1012> 528 71<503.178 627> 993 119<320.628 534.274> 1263 129<550.449 720.568> 1302 128<278.521 443.37>
VStem: 58 216<160.459 360.326> 100 172<793.561 942.818> 627 201<192.43 528 595.843 892.411>
DStem2: 382 1429 340 1302 0.99107 -0.133344<-16.7478 267.687>
LayerCount: 2
Fore
SplineSet
58 208 m 0xb280
 58 390 224 570 627 599 c 1
 627 667 l 2
 627 834 580 993 409 993 c 0
 291 993 290 884 272 731 c 1
 207 731 100 736 100 858 c 0
 100 992 352 1112 523 1112 c 0
 743 1112 828 993 828 732 c 2
 828 284 l 2
 828 170 851 137 966 118 c 2
 1027 107 l 1
 1012 1 l 1x7180
 954 -7 916 -22 843 -22 c 0
 700 -22 652 70 652 143 c 2
 652 162 l 1
 638 162 l 1
 605 97 502 -30 300 -30 c 0
 170 -30 58 57 58 208 c 0xb280
216 1254 m 1
 216 1254 255 1430 365 1430 c 0x3480
 370 1430 377 1430 382 1429 c 2
 657 1392 l 1
 663 1392 l 2
 694 1392 731 1444 731 1444 c 1
 790 1441 l 1
 790 1441 744 1263 630 1263 c 0x3880
 625 1263 619 1263 614 1264 c 2
 340 1302 l 1
 335 1302 l 2x3480
 300 1302 262 1244 262 1244 c 1
 216 1254 l 1
274 265 m 0xb280
 274 203 322 122 413 122 c 0
 499 122 586 186 627 232 c 1
 627 528 l 1
 358 475 274 383 274 265 c 0xb280
EndSplineSet
EndChar

StartChar: uni05E2
Encoding: 1506 1506 145
Width: 1002
VWidth: 0
Flags: W
HStem: -24 21G<90.2222 223>
VStem: 305 78<414.847 824.44> 675 72<1116.89 1177> 841 95<700.047 982.5>
DStem2: 116 185 108 -24 0.985212 0.171341<0 220.602 348.961 594.078>
LayerCount: 2
Fore
SplineSet
76 12 m 1
 116 185 l 1
 334 219 l 1
 313 454 l 2
 307 522 305 595 305 641 c 0
 305 695 327 761 327 797 c 0
 327 835 287 849 241 863 c 1
 130 893 l 1
 108 922 l 1
 128 1167 l 1
 199 1175 l 1
 239 1074 l 1
 321 1048 l 2
 371 1032 427 1019 427 925 c 0
 427 900 423 868 414 829 c 2
 387 719 l 1
 385 706 383 690 383 673 c 0
 383 555 435 350 465 239 c 1
 606 261 l 1
 648 269 683 299 695 333 c 1
 827 747 l 2
 837 778 841 799 841 815 c 0
 841 846 824 854 803 859 c 2
 634 906 l 1
 618 938 l 1
 675 1177 l 1
 747 1181 l 1
 765 1092 l 1
 879 1052 l 2
 915 1039 936 1014 936 951 c 0
 936 915 929 868 915 803 c 2
 787 245 l 1
 763 145 716 82 614 64 c 2
 108 -24 l 1
 76 12 l 1
EndSplineSet
EndChar

StartChar: b
Encoding: 98 98 146
Width: 1180
VWidth: 0
Flags: W
HStem: -29 136<426.54 742.931> 948 162<544.209 762.826> 1534 20G<76.1539 360>
VStem: 168 201<158.712 868.435 939.215 1368> 895 221<335.69 775.217>
LayerCount: 2
Fore
SplineSet
-19 1434 m 1
 -3 1528 l 1
 340 1554 l 1
 369 1525 l 1
 369 1048 l 1
 352 919 l 1
 365 919 l 1
 463 1029 579 1110 718 1110 c 0
 957 1110 1116 895 1116 583 c 0
 1116 191 828 -29 507 -29 c 0
 396 -29 267 -1 168 61 c 1
 168 1368 l 1
 -19 1434 l 1
369 191 m 1
 419 141 523 107 630 107 c 0
 771 107 895 228 895 504 c 0
 895 687 845 948 634 948 c 0
 565 948 467 933 369 830 c 1
 369 191 l 1
EndSplineSet
EndChar

StartChar: backslash
Encoding: 92 92 147
Width: 837
VWidth: 0
Flags: W
HStem: -464 21G<622 775.376>
DStem2: 211 1563 46 1573 0.273217 -0.961952<0 2053.51>
LayerCount: 2
Fore
SplineSet
46 1573 m 1
 211 1563 l 1
 781 -464 l 1
 622 -455 l 1
 46 1573 l 1
EndSplineSet
EndChar

StartChar: bar
Encoding: 124 124 148
Width: 410
VWidth: 0
Flags: W
HStem: -469 21G<134 277> 1536 20G<134 277>
VStem: 134 143<-452 1541>
LayerCount: 2
Fore
SplineSet
134 -452 m 1
 134 1556 l 1
 277 1541 l 1
 277 -469 l 1
 134 -452 l 1
EndSplineSet
EndChar

StartChar: uni05D1
Encoding: 1489 1489 149
Width: 1088
VWidth: 0
Flags: W
HStem: -20 197<125 405.684> 873 197<264 845.336>
VStem: 852 105<475.962 871.599> 871 99<225 686.984>
LayerCount: 2
Fore
SplineSet
85 16 m 1xd0
 125 177 l 1
 869 215 l 1
 870 250 871 291 871 328 c 0xd0
 871 353 871 378 870 398 c 2
 852 781 l 2
 848 859 828 875 784 875 c 2
 135 873 l 1
 105 918 l 1
 123 1187 l 1
 212 1199 l 1
 264 1070 l 1
 826 1070 l 2
 912 1070 953 1014 957 831 c 2xe0
 970 225 l 1
 1005 191 l 1
 973 20 l 1
 117 -20 l 1
 85 16 l 1xd0
EndSplineSet
EndChar

StartChar: braceleft
Encoding: 123 123 150
Width: 681
VWidth: 0
Flags: W
HStem: -467 125<554 646> 481 122<5 65> 1427 123<539 640>
VStem: 5 646
LayerCount: 2
Fore
SplineSet
5 481 m 1
 5 603 l 1
 65 614 l 1
 425 676 21 1550 526 1550 c 2
 651 1550 l 1
 640 1427 l 1
 539 1419 l 2
 455 1412 450 1289 450 1137 c 2
 450 1065 l 2
 450 849 439 606 239 549 c 1
 239 541 l 1
 607 435 327 -320 554 -335 c 2
 646 -342 l 1
 656 -467 l 1
 530 -467 l 2
 18 -467 423 414 69 471 c 2
 5 481 l 1
EndSplineSet
EndChar

StartChar: braceright
Encoding: 125 125 151
Width: 683
VWidth: 0
Flags: W
HStem: -467 125<38 130> 481 122<618 678> 1427 123<43 144>
VStem: 27 651
LayerCount: 2
Back
SplineSet
27.418 -467.115 m 5
 37.5732 -342.214 l 5
 129.98 -336.121 l 6
 357.445 -320.889 75.1445 434.621 443.76 540.229 c 5
 443.76 548.353 l 5
 243.712 605.219 233.559 848.933 233.559 1064.21 c 6
 233.559 1136.31 l 6
 233.559 1288.63 228.48 1411.5 144.196 1418.61 c 6
 43.666 1426.73 l 5
 33.5107 1549.6 l 5
 158.412 1549.6 l 6
 664.117 1549.6 257.929 676.303 618.42 613.344 c 5
 678.333 603.188 l 5
 678.333 481.332 l 5
 614.358 471.178 l 6
 259.96 414.312 666.147 -467.115 154.352 -467.115 c 6
 27.418 -467.115 l 5
EndSplineSet
Fore
SplineSet
27 -467 m 1
 38 -342 l 1
 130 -335 l 2
 357 -320 76 435 444 541 c 1
 444 549 l 1
 76 636 360 1401 144 1419 c 2
 43 1427 l 1
 34 1550 l 1
 159 1550 l 2
 664 1550 258 676 618 614 c 1
 678 603 l 1
 678 481 l 1
 614 471 l 2
 260 414 667 -467 155 -467 c 2
 27 -467 l 1
EndSplineSet
EndChar

StartChar: bracketleft
Encoding: 91 91 152
Width: 586
VWidth: 0
Flags: W
HStem: -463 119<421.578 576> 1440 110<433.612 572>
VStem: 134 187<-321 1415>
LayerCount: 2
Fore
SplineSet
134 -464 m 1
 134 1550 l 1
 572 1550 l 1
 585 1440 l 1
 321 1415 l 1
 321 -321 l 1
 588 -344 l 1
 576 -463 l 1
 134 -464 l 1
EndSplineSet
EndChar

StartChar: bracketright
Encoding: 93 93 153
Width: 586
VWidth: 0
Flags: W
HStem: -463 119<12 167.046> 1440 110<16 154.108>
VStem: 268 186<-321 1415>
LayerCount: 2
Fore
SplineSet
0 -344 m 1
 268 -321 l 1
 268 1415 l 1
 1 1440 l 1
 16 1550 l 1
 452 1550 l 1
 454 -464 l 1
 12 -463 l 1
 0 -344 l 1
EndSplineSet
EndChar

StartChar: breve
Encoding: 728 728 154
Width: 699
VWidth: 0
Flags: W
HStem: 1696 135<226.392 467.499>
VStem: 111 57<1910.98 1926.06>
LayerCount: 2
Fore
SplineSet
111 1916 m 1
 168 1956 l 1
 197 1896 247 1831 345 1831 c 0
 445 1831 499 1896 534 1958 c 1
 584 1922 l 1
 547 1813 479 1696 345 1696 c 0
 200 1696 138 1809 111 1916 c 1
EndSplineSet
EndChar

StartChar: brokenbar
Encoding: 166 166 155
Width: 414
VWidth: 0
Flags: W
HStem: -469 21G<134 282> 1536 20G<134 280>
VStem: 134 148<-452 507 667 1541>
LayerCount: 2
Fore
SplineSet
134 -452 m 1
 134 522 l 1
 282 507 l 1
 282 -469 l 1
 134 -452 l 1
134 667 m 1
 134 1556 l 1
 280 1541 l 1
 278 653 l 1
 134 667 l 1
EndSplineSet
EndChar

StartChar: bullet
Encoding: 8226 8226 156
Width: 611
VWidth: 0
Flags: W
HStem: 488 427<176.608 433.764>
VStem: 88 435<577.435 829.447>
LayerCount: 2
Fore
SplineSet
88 710 m 0
 88 825 189 915 304 915 c 0
 422 915 523 823 523 708 c 0
 523 586 422 488 304 488 c 0
 186 488 88 588 88 710 c 0
EndSplineSet
EndChar

StartChar: c
Encoding: 99 99 157
Width: 961
VWidth: 0
Flags: W
HStem: -37 148<506.5 769.655> 995 116<402.451 626.811>
VStem: 62 223<387.164 760.917>
LayerCount: 2
Fore
SplineSet
62 513 m 0
 62 880 319 1111 587 1111 c 0
 793 1111 884 1020 884 922 c 0
 884 849 831 801 728 793 c 1
 694 876 635 995 528 995 c 0
 381 995 285 849 285 626 c 0
 285 420 395 111 652 111 c 0
 774 111 844 150 902 187 c 1
 932 115 l 1
 867 36 709 -37 550 -37 c 0
 253 -37 62 217 62 513 c 0
EndSplineSet
EndChar

StartChar: cacute
Encoding: 263 263 158
Width: 961
VWidth: 0
Flags: W
HStem: -37 148<506.5 769.655> 995 116<402.451 626.811>
VStem: 62 223<387.164 760.917>
LayerCount: 2
Fore
SplineSet
62 513 m 0
 62 880 319 1111 587 1111 c 0
 793 1111 884 1020 884 922 c 0
 884 849 831 801 728 793 c 1
 694 876 635 995 528 995 c 0
 381 995 285 849 285 626 c 0
 285 420 395 111 652 111 c 0
 774 111 844 150 902 187 c 1
 932 115 l 1
 867 36 709 -37 550 -37 c 0
 253 -37 62 217 62 513 c 0
437 1277 m 1
 588 1677 l 1
 727 1628 l 1
 500 1237 l 1
 437 1277 l 1
EndSplineSet
EndChar

StartChar: caron
Encoding: 711 711 159
Width: 729
VWidth: 0
Flags: W
HStem: 1676 280
VStem: 114 503
DStem2: 215 1956 114 1880 0.734803 -0.67828<0 255.203> 410 1778 405 1692 0.690631 0.723208<0 230.814>
LayerCount: 2
Fore
SplineSet
114 1880 m 1
 215 1956 l 1
 398 1778 l 1
 410 1778 l 1
 562 1952 l 1
 617 1914 l 1
 405 1692 l 1
 335 1676 l 1
 114 1880 l 1
EndSplineSet
EndChar

StartChar: ccaron
Encoding: 269 269 160
Width: 961
VWidth: 0
Flags: W
HStem: -37 148<506.5 769.655> 995 116<402.451 626.811>
VStem: 62 223<387.164 760.917>
DStem2: 373 1528 274 1450 0.737981 -0.674821<0 255.907> 569 1350 564 1264 0.688921 0.724836<0 232.215>
LayerCount: 2
Fore
SplineSet
62 513 m 0
 62 880 319 1111 587 1111 c 0
 793 1111 884 1020 884 922 c 0
 884 849 831 801 728 793 c 1
 694 876 635 995 528 995 c 0
 381 995 285 849 285 626 c 0
 285 420 395 111 652 111 c 0
 774 111 844 150 902 187 c 1
 932 115 l 1
 867 36 709 -37 550 -37 c 0
 253 -37 62 217 62 513 c 0
274 1450 m 1
 373 1528 l 1
 557 1350 l 1
 569 1350 l 1
 723 1524 l 1
 775 1486 l 1
 564 1264 l 1
 496 1247 l 1
 274 1450 l 1
EndSplineSet
EndChar

StartChar: ccedilla
Encoding: 231 231 161
Width: 968
VWidth: 0
Flags: W
HStem: 995 116<405.16 633.78>
VStem: 67 221<383.283 760.917> 515 164<-376.404 -218.266>
LayerCount: 2
Fore
SplineSet
67 513 m 0
 67 880 321 1111 589 1111 c 0
 795 1111 888 1020 888 922 c 0
 888 849 834 801 731 793 c 1
 697 876 638 995 531 995 c 0
 384 995 288 849 288 626 c 0
 288 420 398 111 655 111 c 0
 777 111 846 150 904 187 c 1
 936 115 l 1
 879 44 750 -20 611 -34 c 1
 569 -94 l 1
 615 -135 679 -197 679 -280 c 0
 679 -378 576 -439 433 -481 c 1
 409 -409 l 1
 480 -385 515 -343 515 -306 c 0
 515 -264 470 -212 425 -170 c 1
 517 -35 l 1
 240 -16 67 229 67 513 c 0
EndSplineSet
EndChar

StartChar: cedilla
Encoding: 184 184 163
Width: 422
VWidth: 0
Flags: W
HStem: -481 485
VStem: 183 165<-376.404 -218.266>
LayerCount: 2
Fore
SplineSet
76 -409 m 1
 147 -385 183 -343 183 -306 c 0
 183 -264 137 -212 92 -170 c 1
 213 4 l 1
 304 4 l 1
 238 -94 l 1
 284 -135 348 -197 348 -280 c 0
 348 -378 243 -439 100 -481 c 1
 76 -409 l 1
EndSplineSet
EndChar

StartChar: cent
Encoding: 162 162 164
Width: 998
VWidth: 0
Flags: W
HStem: -37 148<495.5 758.655> -20 20G<471.055 585.654> 995 116<391.451 615.811>
VStem: 51 223<387.164 760.917> 473 110<-77.8981 0 1065 1163.76>
LayerCount: 2
Fore
SplineSet
428 1375 m 1x38
 609 1396 l 1
 579 1065 l 1
 467 1065 l 1
 428 1375 l 1x38
441 -329 m 1
 473 0 l 1
 583 0 l 1x78
 624 -309 l 1
 441 -329 l 1
EndSplineSet
Refer: 157 99 N 1 0 0 1 -11 0 2
Colour: ffffff
EndChar

StartChar: circumflex
Encoding: 710 710 165
Width: 722
VWidth: 0
Flags: W
HStem: 1677 275
VStem: 111 495
LayerCount: 2
Fore
SplineSet
111 1713 m 1
 319 1934 l 1
 387 1952 l 1
 606 1723 l 1
 546 1677 l 1
 344 1813 l 1
 331 1813 l 1
 159 1676 l 1
 111 1713 l 1
EndSplineSet
EndChar

StartChar: colon
Encoding: 58 58 166
Width: 522
VWidth: 0
Flags: W
HStem: 1 276<163.875 361.976> 777 276<163.125 361.976>
VStem: 122 279<41.9081 240.586 817.431 1015.62>
LayerCount: 2
Fore
SplineSet
122 147 m 0
 122 220 187 277 262 277 c 0
 337 277 401 218 401 145 c 0
 401 66 337 1 262 1 c 0
 185 1 122 68 122 147 c 0
122 922 m 0
 122 997 187 1053 262 1053 c 0
 337 1053 401 994 401 919 c 0
 401 840 337 777 262 777 c 0
 185 777 122 843 122 922 c 0
EndSplineSet
EndChar

StartChar: comma
Encoding: 44 44 167
Width: 536
VWidth: 0
Flags: W
HStem: -387 86<90.3325 166.07> 45 224<137.599 256.787>
VStem: 292 168<-170.53 105>
LayerCount: 2
Fore
SplineSet
67 -301 m 1
 229 -259 292 -166 292 -87 c 0
 292 -18 235 45 148 45 c 0
 136 45 123 43 111 42 c 1
 101 68 94 91 94 120 c 0
 94 219 182 269 244 269 c 0
 330 269 460 198 460 12 c 0
 460 -103 420 -301 95 -387 c 1
 67 -301 l 1
EndSplineSet
EndChar

StartChar: commaaccent
Encoding: 806 806 168
Width: 972
VWidth: 0
Flags: W
HStem: -481 65<20.9273 73.9067>
VStem: 118 136<-372.478 -239.621>
LayerCount: 2
Fore
SplineSet
3 -416 m 1
 90 -394 118 -349 118 -304 c 0
 118 -263 46 -211 19 -208 c 1
 30 -155 71 -105 129 -105 c 0
 178 -105 254 -141 254 -251 c 0
 254 -318 209 -438 26 -481 c 1
 3 -416 l 1
EndSplineSet
EndChar

StartChar: copyright
Encoding: 169 169 169
Width: 1701
VWidth: 0
Flags: W
HStem: -18 132<616.473 1077.32> 327.55 125.8<803.525 1027.21> 1204.75 98.6<715.083 905.789> 1503 127<630.87 1084.81>
VStem: 65 152<548.509 1065.3> 425.7 189.55<688.089 1005.78> 1488 151<538.965 1071.44>
LayerCount: 2
Fore
SplineSet
65 797 m 0
 65 1268 428 1630 845 1630 c 0
 1333.14 1630 1639 1275.4 1639 801 c 0
 1639 360 1285 -18 833 -18 c 0
 381 -18 65 334 65 797 c 0
217 811 m 0
 217 406 478 114 843 114 c 0
 1199 114 1488 401 1488 789 c 0
 1488 1189.65 1259.1 1503 845 1503 c 0
 489 1503 217 1187 217 811 c 0
EndSplineSet
Refer: 157 99 N 0.85 0 0 0.85 373 359 2
EndChar

StartChar: currency
Encoding: 164 164 170
Width: 943
VWidth: 0
Flags: W
HStem: 268 119<348.825 596.897> 827 121<347.883 596.368>
VStem: 148 130<460.462 756.583> 668 131<460.058 752.087>
LayerCount: 2
Fore
SplineSet
84 880 m 1
 189 983 l 1
 284 875 l 1
 337 920 413 948 474 948 c 0
 541 948 619 924 668 887 c 1
 763 985 l 1
 857 876 l 1
 754 785 l 1
 780 739 799 664 799 606 c 0
 799 544 779 468 746 422 c 1
 861 316 l 1
 754 215 l 1
 656 326 l 1
 599 292 522 268 464 268 c 0
 415 268 349 288 299 318 c 1
 204 208 l 1
 99 314 l 1
 204 410 l 1
 171 460 148 538 148 603 c 0
 148 660 167 730 196 775 c 1
 84 880 l 1
278 610 m 0
 278 477 356 387 470 387 c 0
 588 387 668 474 668 602 c 0
 668 739 589 827 469 827 c 0
 355 827 278 740 278 610 c 0
EndSplineSet
EndChar

StartChar: d
Encoding: 100 100 171
Width: 1220
VWidth: 0
Flags: W
HStem: -26 156<426.697 652.188> -5 103<1146 1188> 991 121<421.885 686.297> 1542 20G<756.333 1003>
VStem: 67 217<308.308 726.421> 811 201<143.416 162 204.25 877.329 1081.76 1372>
LayerCount: 2
Fore
SplineSet
67 493 m 0xbc
 67 852 351 1112 606 1112 c 0
 687 1112 778 1087 819 1057 c 1
 828 1057 l 1
 812 1215 l 1
 812 1372 l 1
 625 1440 l 1
 642 1532 l 1
 985 1562 l 1
 1012 1532 l 1
 1012 265 l 2
 1012 135 1065 128 1146 110 c 2
 1202 98 l 1
 1188 -5 l 1x7c
 1115 -23 1083 -29 1006 -29 c 0
 882 -29 823 50 823 153 c 2
 823 162 l 1
 811 162 l 1
 742 67 640 -26 469 -26 c 0
 250 -26 67 153 67 493 c 0xbc
284 570 m 0
 284 277 402 130 557 130 c 0xbc
 660 130 769 193 811 243 c 1
 811 822 l 1
 746 929 630 991 547 991 c 0
 353 991 284 806 284 570 c 0
EndSplineSet
EndChar

StartChar: dagger
Encoding: 8224 8224 172
Width: 985
VWidth: 0
Flags: W
HStem: 879 142<56 422 565 857.248> 1530 20G<413.335 577>
VStem: 405 179<-433 557.029> 422 143<-121.029 884 1012 1536>
LayerCount: 2
Fore
SplineSet
46 879 m 1xd0
 56 1021 l 1
 422 1012 l 1
 413 1550 l 1
 577 1536 l 1
 565 1012 l 1
 943 1021 l 1
 934 871 l 1
 565 884 l 1xd0
 584 -448 l 1
 405 -433 l 1xe0
 422 887 l 1
 46 879 l 1xd0
EndSplineSet
EndChar

StartChar: daggerdbl
Encoding: 8225 8225 173
Width: 1025
VWidth: 0
Flags: W
HStem: 79 152<86 416.684> 90 126<124.383 432 573 952> 879 142<73 437 580 871.456> 1530 20G<428.335 593>
VStem: 420 164<-435 -187.021> 441 128<-268.4 90 216 884>
LayerCount: 2
Fore
SplineSet
64 879 m 1x74
 73 1021 l 1
 437 1012 l 1
 428 1550 l 1
 593 1536 l 1
 580 1012 l 1
 956 1021 l 1
 948 871 l 1
 580 884 l 1
 569 530 l 1
 573 215 l 1
 960 223 l 1
 952 79 l 1xb4
 573 90 l 1
 584 -448 l 1
 420 -435 l 1
 432 90 l 1x78
 77 79 l 1
 86 231 l 1xb8
 432 216 l 1
 441 615 l 1
 437 887 l 1
 64 879 l 1x74
EndSplineSet
EndChar

StartChar: uni05D3
Encoding: 1491 1491 174
Width: 995
VWidth: 0
Flags: W
HStem: -12 21G<732 876> 875 195<196 739 822.656 880>
VStem: 718 122<179.507 603.045> 739 81<453.574 860>
LayerCount: 2
Fore
SplineSet
43 912 m 1xd0
 63 1187 l 1
 153 1199 l 1
 196 1070 l 1
 882 1070 l 1
 914 1032 l 1
 880 875 l 1
 820 860 l 1xd0
 840 293 l 1
 876 8 l 1
 760 -12 l 1
 718 18 l 1xe0
 739 875 l 1
 75 875 l 1
 43 912 l 1xd0
EndSplineSet
EndChar

StartChar: dcaron
Encoding: 271 271 175
Width: 1146
VWidth: 0
Flags: W
HStem: -26 156<485.697 710.956> -5 103<1206 1247> 951 85<90.2775 166.07> 991 121<480.902 743.027> 1383 224<138.719 254.66> 1542 20G<815 1062.33>
VStem: 125 219<308.308 726.421> 291 169<1166.61 1443> 869 203<143.416 162 204.25 877.329 1095.78 1372>
LayerCount: 2
Fore
SplineSet
67 1036 m 1x2980
 229 1078 291 1170 291 1249 c 0
 291 1318 234 1383 147 1383 c 0
 135 1383 123 1381 111 1380 c 1
 101 1406 92 1428 92 1457 c 0
 92 1556 181 1607 243 1607 c 0
 329 1607 460 1536 460 1350 c 0
 460 1235 420 1037 95 951 c 1
 67 1036 l 1x2980
125 493 m 0x8280
 125 852 410 1112 665 1112 c 0
 746 1112 836 1087 877 1057 c 1
 888 1057 l 1
 872 1215 l 1
 872 1372 l 1
 683 1440 l 1
 701 1532 l 1
 1043 1562 l 1
 1072 1532 l 1
 1072 265 l 2
 1072 135 1125 128 1206 110 c 2
 1262 98 l 1
 1247 -5 l 1x5680
 1174 -23 1142 -29 1065 -29 c 0
 941 -29 881 50 881 153 c 2
 881 162 l 1
 869 162 l 1
 800 67 698 -26 527 -26 c 0
 308 -26 125 153 125 493 c 0x8280
344 570 m 0
 344 277 462 130 617 130 c 0x9280
 720 130 827 193 869 243 c 1
 869 822 l 1
 804 929 689 991 606 991 c 0
 412 991 344 806 344 570 c 0
EndSplineSet
EndChar

StartChar: dcroat
Encoding: 273 273 176
Width: 1220
VWidth: 0
Flags: W
HStem: -26 156<426.697 652.188> -5 103<1146 1188> 991 121<421.885 686.297> 1218 94<598 1124> 1542 20G<756.333 1003>
VStem: 67 217<308.308 726.421> 811 201<143.416 162 204.25 877.329 1081.76 1372>
LayerCount: 2
Fore
SplineSet
67 493 m 0xbe
 67 852 351 1112 606 1112 c 0
 687 1112 778 1087 819 1057 c 1
 828 1057 l 1
 812 1215 l 1
 812 1372 l 1
 625 1440 l 1
 642 1532 l 1
 985 1562 l 1
 1012 1532 l 1
 1012 265 l 2
 1012 135 1065 128 1146 110 c 2
 1202 98 l 1
 1188 -5 l 1x7e
 1115 -23 1083 -29 1006 -29 c 0
 882 -29 823 50 823 153 c 2
 823 162 l 1
 811 162 l 1
 742 67 640 -26 469 -26 c 0
 250 -26 67 153 67 493 c 0xbe
284 570 m 0
 284 277 402 130 557 130 c 0xbe
 660 130 769 193 811 243 c 1
 811 822 l 1
 746 929 630 991 547 991 c 0
 353 991 284 806 284 570 c 0
581 1218 m 1
 598 1312 l 1
 1141 1312 l 1
 1124 1218 l 1
 581 1218 l 1
EndSplineSet
EndChar

StartChar: degree
Encoding: 176 176 177
Width: 524
VWidth: 0
Flags: W
HStem: 1171 58<199.99 340.875> 1528 58<190.665 325.405>
VStem: 64 88<1262.24 1500.71> 376 88<1256.24 1493.02>
LayerCount: 2
Fore
SplineSet
64 1374 m 0
 64 1488 157 1586 272 1586 c 0
 390 1586 464 1502 464 1387 c 0
 464 1276 381 1171 255 1171 c 0
 141 1171 64 1248 64 1374 c 0
152 1388 m 0
 152 1313 191 1229 270 1229 c 0
 337 1229 376 1280 376 1370 c 0
 376 1447 335 1528 258 1528 c 0
 185 1528 152 1457 152 1388 c 0
EndSplineSet
EndChar

StartChar: dieresis
Encoding: 168 168 178
Width: 770
VWidth: 0
Flags: W
HStem: 1708 196<132.525 307.173 463.23 638.584>
VStem: 114 211<1726.53 1885.14> 445 212<1727.93 1885.14>
LayerCount: 2
Fore
SplineSet
114 1809 m 0
 114 1867 169 1904 219 1904 c 0
 273 1904 325 1866 325 1809 c 0
 325 1748 273 1708 219 1708 c 0
 166 1708 114 1748 114 1809 c 0
445 1809 m 0
 445 1867 499 1904 549 1904 c 0
 603 1904 657 1866 657 1809 c 0
 657 1748 603 1708 549 1708 c 0
 496 1708 445 1748 445 1809 c 0
EndSplineSet
EndChar

StartChar: dieresiscomb
Encoding: 776 776 179
Width: 135
VWidth: 0
Flags: W
HStem: 1708 196<132.525 307.173 463.23 638.584>
VStem: 114 211<1726.53 1885.14> 445 212<1727.93 1885.14>
LayerCount: 2
Fore
SplineSet
114 1809 m 0
 114 1867 169 1904 219 1904 c 0
 273 1904 325 1866 325 1809 c 0
 325 1748 273 1708 219 1708 c 0
 166 1708 114 1748 114 1809 c 0
445 1809 m 0
 445 1867 499 1904 549 1904 c 0
 603 1904 657 1866 657 1809 c 0
 657 1748 603 1708 549 1708 c 0
 496 1708 445 1748 445 1809 c 0
EndSplineSet
EndChar

StartChar: divide
Encoding: 247 247 180
Width: 1151
VWidth: 0
Flags: W
HStem: 128 293<466.651 672.875> 561 130<83 1072> 823 292<466.651 672.875>
VStem: 421 296<173.375 380.125 868.375 1074.62>
LayerCount: 2
Fore
SplineSet
68 561 m 1
 83 691 l 1
 1085 691 l 1
 1072 561 l 1
 68 561 l 1
421 281 m 0
 421 360 489 421 568 421 c 0
 649 421 717 359 717 280 c 0
 717 197 649 128 568 128 c 0
 487 128 421 198 421 281 c 0
421 976 m 0
 421 1055 489 1115 568 1115 c 0
 649 1115 717 1054 717 975 c 0
 717 892 649 823 568 823 c 0
 487 823 421 893 421 976 c 0
EndSplineSet
EndChar

StartChar: dollar
Encoding: 36 36 181
Width: 1062
VWidth: 0
Flags: W
HStem: -30 125<368.357 717> 1095 21G<790 914.547> 1463 104<410.237 687.343>
VStem: 98 126<393.709 463> 111 214<1104.8 1319.92> 453 214<-203.273 0.730133> 514 83<67 1485> 790 123<1110 1219.14> 819 227<251.977 475.738>
LayerCount: 2
Fore
SplineSet
81 151 m 1xe880
 98 481 l 1
 224 463 l 1
 272 231 l 1
 317 160 411 95 526 95 c 0
 656 95 819 171 819 354 c 0xf080
 819 675 111 672 111 1131 c 0
 111 1411 348 1567 591 1567 c 0
 724 1567 842 1525 940 1444 c 1
 940 1434 913 1095 913 1095 c 1
 790 1110 l 1xe9
 759 1346 l 1
 737 1391 649 1463 550 1463 c 0
 426 1463 325 1391 325 1229 c 0
 325 875 1046 901 1046 437 c 0
 1046 153 778 -30 497 -30 c 0
 319 -30 160 53 81 151 c 1xe880
453 -221 m 1xe4
 468 11 l 1
 514 67 l 1
 514 779 l 1
 520 864 l 1
 520 1490 l 1
 475 1534 l 1
 457 1721 l 1
 661 1740 l 1
 640 1534 l 1
 597 1485 l 1
 597 822 l 1xe2
 600 719 l 1
 600 67 l 1
 651 25 l 1
 667 -202 l 1
 453 -221 l 1xe4
EndSplineSet
EndChar

StartChar: dotaccent
Encoding: 729 729 182
Width: 525
VWidth: 0
Flags: W
HStem: 1673 294<159.651 367.375>
VStem: 114 299<1720.49 1923.19>
LayerCount: 2
Fore
SplineSet
114 1827 m 0
 114 1906 184 1967 261 1967 c 0
 342 1967 413 1904 413 1825 c 0
 413 1742 342 1673 261 1673 c 0
 180 1673 114 1744 114 1827 c 0
EndSplineSet
EndChar

StartChar: dotaccentcomb
Encoding: 775 775 183
Width: 66
VWidth: 0
Flags: W
HStem: 1657 265<145.607 341.29>
VStem: 111 265<1691.71 1887.39>
LayerCount: 2
Fore
SplineSet
111 1790 m 0
 111 1862 171 1922 243 1922 c 0
 316 1922 376 1863 376 1790 c 0
 376 1715 318 1657 243 1657 c 0
 170 1657 111 1717 111 1790 c 0
EndSplineSet
EndChar

StartChar: dotbelowcomb
Encoding: 803 803 184
Width: 66
VWidth: 0
Flags: W
HStem: -469 265<33.7006 229.384>
VStem: 0 265<-433.837 -238.154>
LayerCount: 2
Fore
SplineSet
0 -335 m 0
 0 -263 58 -204 130 -204 c 0
 203 -204 265 -262 265 -335 c 0
 265 -410 205 -469 130 -469 c 0
 57 -469 0 -408 0 -335 c 0
EndSplineSet
EndChar

StartChar: dotlessi
Encoding: 305 305 185
Width: 666
VWidth: 0
Flags: W
HStem: 0 98<60 119.574 588.922 638> 1073 20G<175.429 443.355>
VStem: 247 207<143 903>
LayerCount: 2
Fore
SplineSet
46 0 m 1
 60 98 l 1
 247 143 l 1
 247 903 l 1
 60 971 l 1
 76 1065 l 1
 424 1093 l 1
 454 1062 l 1
 454 143 l 1
 652 99 l 1
 638 0 l 1
 46 0 l 1
EndSplineSet
EndChar

StartChar: e
Encoding: 101 101 186
Width: 991
VWidth: 0
Flags: W
HStem: -37 163<475.718 757.375> 989 121<404.519 625.022>
VStem: 65 220<351.061 550 646 761.836> 683 220<673.618 932.818>
LayerCount: 2
Fore
SplineSet
65 528 m 0
 65 899 334 1110 573 1110 c 0
 752 1110 903 979 903 718 c 0
 903 680 893 599 883 557 c 1
 285 550 l 1
 295 356 399 126 630 126 c 2
 637 126 l 2
 720 126 786 127 910 194 c 1
 936 128 l 1
 838 26 693 -37 530 -37 c 0
 298 -37 65 153 65 528 c 0
288 646 m 1
 675 674 l 1
 680 694 683 739 683 759 c 0
 683 906 630 989 512 989 c 0
 413 989 300 886 288 646 c 1
EndSplineSet
EndChar

StartChar: ecaron
Encoding: 283 283 188
Width: 991
VWidth: 0
Flags: W
HStem: -37 163<475.718 757.375> 989 121<404.519 625.022>
VStem: 65 220<351.061 550 646 761.836> 683 220<673.618 932.818>
DStem2: 368 1507 269 1431 0.733148 -0.680069<0 256.005> 565 1330 558 1244 0.693955 0.720019<0 230.044>
LayerCount: 2
Fore
SplineSet
65 528 m 0
 65 899 334 1110 573 1110 c 0
 752 1110 903 979 903 718 c 0
 903 680 893 599 883 557 c 1
 285 550 l 1
 295 356 399 126 630 126 c 2
 637 126 l 2
 720 126 786 127 910 194 c 1
 936 128 l 1
 838 26 693 -37 530 -37 c 0
 298 -37 65 153 65 528 c 0
269 1431 m 1
 368 1507 l 1
 553 1330 l 1
 565 1330 l 1
 717 1503 l 1
 771 1465 l 1
 558 1244 l 1
 490 1226 l 1
 269 1431 l 1
288 646 m 1
 675 674 l 1
 680 694 683 739 683 759 c 0
 683 906 630 989 512 989 c 0
 413 989 300 886 288 646 c 1
EndSplineSet
EndChar

StartChar: ecircumflex
Encoding: 234 234 189
Width: 991
VWidth: 0
Flags: W
HStem: -37 163<475.718 757.375> 989 121<404.519 625.022>
VStem: 65 220<351.061 550 646 761.836> 683 220<673.618 932.818>
LayerCount: 2
Fore
SplineSet
65 528 m 0
 65 899 334 1110 573 1110 c 0
 752 1110 903 979 903 718 c 0
 903 680 893 599 883 557 c 1
 285 550 l 1
 295 356 399 126 630 126 c 2
 637 126 l 2
 720 126 786 127 910 194 c 1
 936 128 l 1
 838 26 693 -37 530 -37 c 0
 298 -37 65 153 65 528 c 0
288 646 m 1
 675 674 l 1
 680 694 683 739 683 759 c 0
 683 906 630 989 512 989 c 0
 413 989 300 886 288 646 c 1
288 1264 m 1
 496 1486 l 1
 564 1503 l 1
 782 1274 l 1
 723 1229 l 1
 520 1364 l 1
 508 1364 l 1
 335 1226 l 1
 288 1264 l 1
EndSplineSet
EndChar

StartChar: edieresis
Encoding: 235 235 190
Width: 991
VWidth: 0
Flags: W
HStem: -37 163<475.718 757.375> 989 121<404.519 625.022> 1240 196<278.191 452.173 608.191 784.289>
VStem: 65 220<351.061 550 646 761.836> 261 209<1257.81 1417.74> 591 212<1259.16 1416.37> 683 220<673.618 932.818>
LayerCount: 2
Fore
SplineSet
65 528 m 0xf2
 65 899 334 1110 573 1110 c 0
 752 1110 903 979 903 718 c 0
 903 680 893 599 883 557 c 1
 285 550 l 1
 295 356 399 126 630 126 c 2
 637 126 l 2
 720 126 786 127 910 194 c 1
 936 128 l 1
 838 26 693 -37 530 -37 c 0
 298 -37 65 153 65 528 c 0xf2
261 1339 m 0xe8
 261 1397 314 1436 364 1436 c 0
 418 1436 470 1396 470 1339 c 0
 470 1278 418 1240 364 1240 c 0
 311 1240 261 1278 261 1339 c 0xe8
288 646 m 1
 675 674 l 1
 680 694 683 739 683 759 c 0xe2
 683 906 630 989 512 989 c 0
 413 989 300 886 288 646 c 1
591 1339 m 0xe4
 591 1397 644 1436 694 1436 c 0
 748 1436 803 1396 803 1339 c 0
 803 1278 748 1240 694 1240 c 0
 641 1240 591 1278 591 1339 c 0xe4
EndSplineSet
EndChar

StartChar: edotaccent
Encoding: 279 279 191
Width: 991
VWidth: 0
Flags: W
HStem: -37 163<475.718 757.375> 989 121<404.519 625.022> 1225 292<427.127 633.875>
VStem: 65 220<351.061 550 646 761.836> 382 297<1271.97 1473.72> 683 220<673.618 932.818>
LayerCount: 2
Fore
SplineSet
65 528 m 0
 65 899 334 1110 573 1110 c 0
 752 1110 903 979 903 718 c 0
 903 680 893 599 883 557 c 1
 285 550 l 1
 295 356 399 126 630 126 c 2
 637 126 l 2
 720 126 786 127 910 194 c 1
 936 128 l 1
 838 26 693 -37 530 -37 c 0
 298 -37 65 153 65 528 c 0
288 646 m 1
 675 674 l 1
 680 694 683 739 683 759 c 0
 683 906 630 989 512 989 c 0
 413 989 300 886 288 646 c 1
382 1378 m 0
 382 1457 451 1517 528 1517 c 0
 609 1517 679 1455 679 1376 c 0
 679 1293 609 1225 528 1225 c 0
 447 1225 382 1295 382 1378 c 0
EndSplineSet
EndChar

StartChar: eight
Encoding: 56 56 193
Width: 1082
VWidth: 0
Flags: W
HStem: -33 108.391<425.334 705.243> 1388 95<397.948 644.28>
VStem: 67 233<204.579 499.674> 124 204<1046.08 1253.32> 742 209<980.103 1283.25> 775.287 210.713<184.22 412.24>
LayerCount: 2
Fore
SplineSet
67 346 m 0xe4
 67 485 156 595 354 710 c 1
 354 721 l 1
 235 800 124 904 124 1086 c 0
 124 1294 318 1483 557 1483 c 0
 792 1483 951 1330 951 1144 c 0xd8
 951 999 839 839 700 789 c 1
 696 777 l 1
 879 644 986 554 986 370 c 0
 986 143 818 -33 489 -33 c 0
 262 -33 67 110 67 346 c 0xe4
300 375 m 0xe4
 300 174.671 434.2 75.3912 568.534 75.3912 c 0
 685.661 75.3912 775.287 140.867 775.287 290.645 c 0
 775.287 430 583.592 567.097 437 658 c 1
 356 585 300 546 300 375 c 0xe4
328 1179 m 0xd8
 328 1064 435 940 614 837 c 1
 705 890 742 952 742 1099 c 0
 742 1273 656 1388 526 1388 c 0
 385 1388 328 1278 328 1179 c 0xd8
EndSplineSet
Colour: ffff
EndChar

StartChar: eight.osf
Encoding: 65539 -1 194
Width: 994
VWidth: 0
Flags: W
HStem: -33 114<384.347 644.635> 1388 95<369.482 592.625>
VStem: 68 204<205.349 511.37> 124 184<1049.75 1270.92> 682 182<975.599 1290.51> 733 196<202.369 452.008>
LayerCount: 2
Fore
SplineSet
68 346 m 0xe4
 68 485 157 617 335 728 c 1
 335 739 l 1
 244 793 124 929 124 1095 c 0
 124 1303 299 1483 515 1483 c 0
 727 1483 864 1350 864 1164 c 0xd8
 864 1019 803 903 660 797 c 1
 659 785 l 1
 841 671 929 531 929 380 c 0
 929 153 729 -33 445 -33 c 0
 218 -33 68 110 68 346 c 0xe4
272 375 m 0xe4
 272 228 371 81 501 81 c 0
 640 81 733 163 733 329 c 0
 733 462 586 575 407 686 c 1
 342 636 272 505 272 375 c 0xe4
308 1207 m 0xd8
 308 1073 402 934 576 835 c 1
 626 889 682 961 682 1119 c 0
 682 1252 612 1388 482 1388 c 0
 384 1388 308 1306 308 1207 c 0xd8
EndSplineSet
Colour: ffff00
EndChar

StartChar: ellipsis
Encoding: 8230 8230 195
Width: 1607
VWidth: 0
Flags: W
HStem: -38 291<134.875 342.875 684.875 892.875 1267.38 1475.38>
VStem: 91 296<6.875 210.764> 641 296<6.875 210.764> 1224 296<6.875 210.764>
LayerCount: 2
Fore
SplineSet
91 114 m 0
 91 193 159 253 238 253 c 0
 319 253 387 190 387 111 c 0
 387 28 319 -38 238 -38 c 0
 157 -38 91 31 91 114 c 0
641 114 m 0
 641 193 709 253 788 253 c 0
 869 253 937 190 937 111 c 0
 937 28 869 -38 788 -38 c 0
 707 -38 641 31 641 114 c 0
1224 114 m 0
 1224 193 1291 253 1370 253 c 0
 1451 253 1520 190 1520 111 c 0
 1520 28 1451 -38 1370 -38 c 0
 1289 -38 1224 31 1224 114 c 0
EndSplineSet
EndChar

StartChar: emacron
Encoding: 275 275 196
Width: 991
VWidth: 0
Flags: W
HStem: -37 163<475.718 757.375> 989 121<404.519 625.022> 1254 124<269 797>
VStem: 65 220<351.061 550 646 761.836> 683 220<673.618 932.818>
LayerCount: 2
Fore
SplineSet
65 528 m 0
 65 899 334 1110 573 1110 c 0
 752 1110 903 979 903 718 c 0
 903 680 893 599 883 557 c 1
 285 550 l 1
 295 356 399 126 630 126 c 2
 637 126 l 2
 720 126 786 127 910 194 c 1
 936 128 l 1
 838 26 693 -37 530 -37 c 0
 298 -37 65 153 65 528 c 0
253 1254 m 1
 269 1378 l 1
 813 1378 l 1
 797 1254 l 1
 253 1254 l 1
288 646 m 1
 675 674 l 1
 680 694 683 739 683 759 c 0
 683 906 630 989 512 989 c 0
 413 989 300 886 288 646 c 1
EndSplineSet
EndChar

StartChar: emdash
Encoding: 8212 8212 197
Width: 1613
VWidth: 0
Flags: W
HStem: 505 129<126 1490>
LayerCount: 2
Fore
SplineSet
107 505 m 1
 126 634 l 1
 1510 642 l 1
 1490 513 l 1
 107 505 l 1
EndSplineSet
EndChar

StartChar: emptyset
Encoding: 8709 8709 198
Width: 1283
VWidth: 0
Flags: W
HStem: -46 141.12<483.532 845.392> -21 21G<138.093 170.207> 1000.88 146.12<472.423 833.722>
VStem: 89 176.175<328.283 760.194> 1037.83 177.17<310.242 787.198>
LayerCount: 2
Back
SplineSet
64 107 m 5
 219 226 l 5
 243 239 l 5
 1018 934 l 5
 1038 961 l 5
 1163 1096 l 5
 1225 1002 l 5
 1083 891 l 5
 1065 886 l 5
 281 183 l 5
 264 157 l 5
 126 12 l 5
 64 107 l 5
89 548 m 4
 89 861 367 1147 655 1147 c 4
 1000 1147 1215 881 1215 547 c 4
 1215 230 998 -46 656 -46 c 4
 342 -46 89 188 89 548 c 4
197 547 m 4
 197 212 430 34 657 34 c 4
 917 34 1106 205 1106 548 c 4
 1106 882 892 1062 655 1062 c 4
 395 1062 197 860 197 547 c 4
EndSplineSet
Fore
SplineSet
47 130 m 1x78
 202 242 l 1
 257 253 l 1
 1032 948 l 1
 1025 984 l 1
 1146 1119 l 1
 1251 969 l 1
 1109 862 l 1
 1078 871 l 1
 294 168 l 1
 284 124 l 1
 152 -21 l 1
 47 130 l 1x78
89 548 m 0
 89 861 367 1147 655 1147 c 0
 1000 1147 1215 881 1215 547 c 0
 1215 230 998 -46 656 -46 c 0xb8
 342 -46 89 188 89 548 c 0
265.175 547.08 m 0
 265.175 238.88 463.225 95.1201 656.175 95.1201 c 0
 877.175 95.1201 1037.83 232.44 1037.83 548 c 0
 1037.83 855.28 855.925 1000.88 654.475 1000.88 c 0
 433.475 1000.88 265.175 835.04 265.175 547.08 c 0
EndSplineSet
Colour: ffffff
EndChar

StartChar: endash
Encoding: 8211 8211 199
Width: 983
VWidth: 0
Flags: W
HStem: 505 129<126 861>
LayerCount: 2
Fore
SplineSet
107 505 m 1
 126 634 l 1
 881 642 l 1
 861 513 l 1
 107 505 l 1
EndSplineSet
EndChar

StartChar: eng
Encoding: 331 331 200
Width: 1230
VWidth: 0
Flags: W
HStem: -473 21G<685.807 733> 0 90<58 110.284 584.278 619> 940 170<636.201 836.973>
VStem: 244 208<141 874.635> 911 205<-54.5305 857.315>
LayerCount: 2
Fore
SplineSet
46 0 m 5
 58 90 l 1
 244 141 l 1
 244 891 l 1
 54 955 l 1
 67 1048 l 1
 435 1097 l 1
 456 1073 l 1
 435 915 l 1
 447 915 l 1
 530 1014 664 1110 819 1110 c 0
 1013 1110 1116 981 1116 761 c 2
 1116 186 l 1
 1113 -156 937 -340 751 -443 c 2
 697 -473 l 1
 636 -364 l 1
 769 -265 911 -111 911 223 c 2
 910 712 l 2
 910 872 817 940 695 940 c 0
 605 940 514 903 452 834 c 1
 452 141 l 1
 636 98 l 1
 619 0 l 1
 46 0 l 5
EndSplineSet
EndChar

StartChar: eogonek
Encoding: 281 281 201
Width: 995
VWidth: 0
Flags: W
HStem: -37 163<477.718 620.594> 989 121<405.588 626.43>
VStem: 67 221<351.061 550 646 761.836> 489 183<-314.664 -129.698> 686 220<673.618 928.655>
LayerCount: 2
Fore
SplineSet
67 528 m 0
 67 899 335 1110 574 1110 c 0
 753 1110 906 979 906 718 c 0
 906 680 894 599 884 557 c 1
 288 550 l 1
 298 356 401 126 632 126 c 2
 638 126 l 2
 721 126 787 127 911 194 c 1
 938 128 l 1
 886 74 822 32 747 3 c 1
 675 -115 672 -161 672 -183 c 0
 672 -260 715 -349 826 -414 c 1
 782 -477 l 1
 604 -459 489 -363 489 -257 c 0
 489 -199 507 -139 622 -30 c 1
 592 -34 562 -37 532 -37 c 0
 300 -37 67 153 67 528 c 0
289 646 m 1
 678 674 l 1
 683 694 686 739 686 759 c 0
 686 906 631 989 513 989 c 0
 414 989 301 886 289 646 c 1
EndSplineSet
EndChar

StartChar: equal
Encoding: 61 61 202
Width: 1000
VWidth: 0
Flags: W
HStem: 394 130<126 872> 690 129<130 876>
LayerCount: 2
Fore
SplineSet
113 394 m 1
 126 524 l 1
 885 524 l 1
 872 394 l 1
 113 394 l 1
117 690 m 1
 130 819 l 1
 890 819 l 1
 876 690 l 1
 117 690 l 1
EndSplineSet
EndChar

StartChar: eth
Encoding: 240 240 203
Width: 1127
VWidth: 0
Flags: W
HStem: -33 120<456.007 717.959> 1057 114<407.58 639.953> 1463 20G<813.459 911.474>
VStem: 65 220<323.621 822.021> 826 214<305.09 783.624>
DStem2: 361 1366 348 1273 0.979127 0.203248<0 211.992 422.983 534.179>
LayerCount: 2
Fore
SplineSet
65 557 m 0
 65 921 287 1171 550 1171 c 0
 599 1171 706 1152 743 1058 c 1
 751 1061 l 1
 725 1147 668 1236 614 1323 c 1
 348 1273 l 1
 361 1366 l 1
 569 1407 l 1
 512 1488 451 1559 397 1608 c 1
 541 1608 l 1
 582 1584 653 1529 728 1446 c 1
 914 1483 l 1
 902 1388 l 1
 793 1366 l 1
 921 1195 1040 934 1040 574 c 0
 1040 194 818 -33 553 -33 c 0
 211 -33 65 257 65 557 c 0
285 615 m 1
 289 280 410 87 581 87 c 0
 772 87 826 259 826 524 c 0
 826 813 677 1053 534 1057 c 1
 526 1057 l 2
 352 1057 285 876 285 615 c 1
EndSplineSet
EndChar

StartChar: exclam
Encoding: 33 33 204
Width: 510
VWidth: 0
Flags: W
HStem: -45 304<148.336 361.094>
VStem: 102 307<3.04338 212.653> 134 242<974.294 1577.99> 200 108<464 896.559>
LayerCount: 2
Fore
SplineSet
102 114 m 0xc0
 102 197 173 259 254 259 c 0
 337 259 409 194 409 111 c 0
 409 24 340 -45 254 -45 c 0
 168 -45 102 27 102 114 c 0xc0
134 1544 m 2xa0
 134 1548 l 1
 144 1582 251 1596 296 1596 c 0
 329 1596 376 1586 376 1548 c 0xa0
 376 1340 341 846 308 448 c 1
 308 441 l 1
 200 464 l 1
 200 469 l 1x90
 170 867 134 1410 134 1544 c 2xa0
EndSplineSet
EndChar

StartChar: exclamdown
Encoding: 161 161 205
Width: 478
VWidth: 0
Flags: W
HStem: 822 302<134.906 348.141>
VStem: 87 308<866.354 1075.96> 120 243<-497.266 102.914> 187 109<222.943 642>
LayerCount: 2
Fore
SplineSet
120 -467 m 0xa0
 120 -259 154 261 187 659 c 1
 187 667 l 1
 296 642 l 1
 296 638 l 1x90
 326 240 363 -329 363 -463 c 2
 363 -467 l 1
 353 -501 245 -516 200 -516 c 0
 167 -516 120 -505 120 -467 c 0xa0
87 968 m 0xc0
 87 1055 156 1124 242 1124 c 0
 328 1124 395 1054 395 967 c 0
 395 884 323 822 242 822 c 0
 159 822 87 885 87 968 c 0xc0
EndSplineSet
EndChar

StartChar: f
Encoding: 102 102 206
Width: 858
VWidth: 0
Flags: W
HStem: 0 90<58 108.852 681.376 746> 968 110<452 754> 968 90<76 163.552> 1480 131<547.89 722.093>
VStem: 246 206<149 968>
LayerCount: 2
Fore
SplineSet
43 0 m 1xd8
 58 90 l 1
 246 143 l 1
 246 968 l 1
 62 968 l 1
 76 1058 l 1xb8
 247 1086 l 1
 288 1442 535 1611 710 1611 c 0
 840 1611 941 1567 941 1468 c 0
 941 1407 872 1346 831 1330 c 1
 782 1391 691 1480 614 1480 c 0
 523 1480 459 1423 454 1211 c 1
 452 1078 l 1
 770 1078 l 1
 754 968 l 1
 452 968 l 1
 452 149 l 1
 755 103 l 1
 746 0 l 1
 43 0 l 1xd8
EndSplineSet
EndChar

StartChar: f.alt2
Encoding: 65540 -1 207
Width: 798
VWidth: 0
Flags: W
HStem: 0 90<58 108.852 681.376 746> 968 110<452 754> 968 90<76 163.552> 1464 144<493.402 666.097>
VStem: 246 206<149 968>
LayerCount: 2
Fore
SplineSet
43 0 m 1xd8
 58 90 l 1
 246 143 l 1
 246 968 l 1
 62 968 l 1
 76 1058 l 1xb8
 247 1086 l 1
 288 1442 499 1608 614 1608 c 0
 721 1608 788 1582 788 1499 c 0
 788 1450 746 1403 709 1383 c 1
 679 1416 611 1464 557 1464 c 0
 484 1464 459 1423 454 1211 c 1
 452 1078 l 1
 770 1078 l 1
 754 968 l 1
 452 968 l 1
 452 149 l 1
 755 103 l 1
 746 0 l 1
 43 0 l 1xd8
EndSplineSet
EndChar

StartChar: finalnun-hb
Encoding: 1503 1503 208
Width: 460
VWidth: 0
Flags: W
VStem: 219 131<-454 433.635> 233 95<62.2981 841.763> 257 86<607.496 827.222>
LayerCount: 2
Fore
SplineSet
28 910 m 1x20
 52 1155 l 1
 123 1161 l 1
 161 1060 l 1
 243 1034 l 2
 302 1015 343 986 343 851 c 0x20
 343 839 343 826 342 813 c 2
 330 582 l 2
 329 557 328 528 328 498 c 0x40
 328 352 342 157 350 -38 c 1
 358 -205 368 -368 380 -464 c 1
 263 -484 l 1
 219 -454 l 1x80
 233 486 l 2x40
 233 528 235 552 241 592 c 1
 257 741 l 1
 257 751 l 2
 257 809 207 840 161 851 c 1
 52 881 l 1
 28 910 l 1x20
EndSplineSet
EndChar

StartChar: finalpe-hb
Encoding: 1507 1507 209
Width: 954
VWidth: 0
Flags: W
HStem: -466 21G<723.667 870> 406 196<313.658 447.489>
VStem: 41 122<624 904.301> 709 141<-436 250.103>
DStem2: 279 1086 167 906 0.988967 -0.148136<0 472.325>
LayerCount: 2
Fore
SplineSet
41 708 m 0
 41 780 59 859 89 942 c 2
 185 1203 l 1
 269 1209 l 1
 279 1086 l 1
 683 1030 l 2
 783 1016 796 994 806 809 c 2
 850 -20 l 2
 854 -108 858 -350 870 -446 c 1
 753 -466 l 1
 709 -436 l 1
 717 741 l 2
 717 803 695 827 641 835 c 2
 167 906 l 1
 164 889 163 872 163 857 c 0
 163 667 347 617 496 602 c 1
 497 596 497 590 497 584 c 0
 497 511 452 443 406 406 c 1
 139 417 41 540 41 708 c 0
EndSplineSet
EndChar

StartChar: finaltsadi-hb
Encoding: 1509 1509 210
Width: 776
VWidth: 0
Flags: W
VStem: 215 161<-454 36.25> 229 105<63.952 185 335 340.768> 253 86<500.899 831.944> 306 20<348 408> 618 147<816.815 960.5>
DStem2: 340 408 414 383 0.584143 0.811651<0 498.726>
LayerCount: 2
Fore
SplineSet
24 916 m 1x28
 48 1161 l 1
 119 1169 l 1
 157 1068 l 1
 239 1040 l 1
 298 1022 339 992 339 857 c 0x28
 339 845 339 832 338 819 c 2
 326 588 l 1x18
 318 386 334 296 334 178 c 1x48
 346 -38 l 2
 355 -205 364 -368 376 -464 c 1
 259 -484 l 1
 215 -454 l 1x88
 229 335 l 1x48
 253 747 l 1
 253 757 l 2
 253 815 203 844 157 855 c 1
 48 887 l 1
 24 916 l 1x28
306 408 m 1x18
 340 408 l 1
 595 767 l 2
 612 791 618 810 618 823 c 0
 618 833 614 840 609 843 c 2
 442 934 l 1
 432 968 l 1
 534 1177 l 1
 599 1165 l 1
 603 1092 l 1
 711 1030 l 2
 739 1014 765 984 765 937 c 0
 765 898 748 847 699 779 c 2
 414 383 l 1
 370 324 343 248 323 185 c 1
 320 253 308 348 306 408 c 1x18
EndSplineSet
EndChar

StartChar: five
Encoding: 53 53 211
Width: 1134
VWidth: 0
Flags: W
HStem: -31 114<213.525 513.266> 1459 20G<465.143 793.232>
VStem: 9 105<382.804 475> 634 247<288.476 561.993>
DStem2: 217 1444 282 1230 0.998178 0.0603389<51.969 535.597>
LayerCount: 2
Back
SplineSet
-2 127 m 1
 36 432 l 1
 96 420 l 1
 114 191 l 1
 197 104 295 59 393 59 c 0
 591 59 707 197 707 401 c 0
 707 648 453 815 128 834 c 1
 264 1444 l 1
 793 1477 l 1
 773 1333 l 1
 301 1311 l 1
 237 960 l 1
 636 931 854 728 854 472 c 0
 854 212 641 -8 340 -8 c 0
 217 -8 102 34 -2 127 c 1
EndSplineSet
Fore
SplineSet
-44 91 m 1
 9 491 l 1
 114 475 l 1
 150 192 l 1
 200 116 274 83 375 83 c 0
 532 83 634 222 634 388 c 0
 634 640 440 758 70 783 c 1
 217 1444 l 1
 796 1479 l 1
 765 1255 l 1
 282 1230 l 1
 242 991 l 1
 719 964 881 726 881 467 c 0
 881 222 624 -31 321 -31 c 0
 186 -31 48 -4 -44 91 c 1
EndSplineSet
Colour: ffff
EndChar

StartChar: five.osf
Encoding: 65541 -1 212
Width: 865
VWidth: 0
Flags: W
HStem: -367 112<185.535 450.024>
VStem: 592 227<-31.5868 274.279>
DStem2: 114 496 262 674 0.167962 0.985794<199.88 474.578> 221 1124 316 943 0.996041 0.0888998<78.533 502.347>
LayerCount: 2
Fore
SplineSet
-71 -206 m 0
 -71 -145 -19 -89 54 -75 c 1
 91 -125 181 -255 315 -255 c 0
 474 -255 592 -99 592 79 c 0
 592 323 449 458 114 496 c 1
 221 1124 l 1
 770 1173 l 1
 739 971 l 1
 316 943 l 1
 262 674 l 1
 616 613 819 444 819 159 c 0
 819 -94 576 -367 250 -367 c 0
 15 -367 -71 -283 -71 -206 c 0
EndSplineSet
Colour: ffff00
EndChar

StartChar: four
Encoding: 52 52 213
Width: 1167
VWidth: 0
Flags: W
HStem: 0 89<322 388.816 1015.94 1081> 431 160<202 579 835 1130> 1455 20G<750.181 836.565>
VStem: 583 252<145 427 591 1076>
DStem2: -26 532 202 591 0.643611 0.765353<191.899 805.737>
LayerCount: 2
Back
SplineSet
260 0 m 1
 268 91 l 1
 599 149 l 1
 599 1273 l 1
 285 1273 l 1
 293 1368 l 1
 808 1463 l 1
 841 1463 l 1
 841 141 l 1
 1169 102 l 1
 1157 0 l 1
 260 0 l 1
EndSplineSet
Fore
SplineSet
-26 532 m 1
 767 1475 l 1
 847 1452 l 1
 839 1305 835 1067 835 843 c 2
 835 591 l 1
 1150 591 l 1
 1130 427 l 1
 835 427 l 1
 835 137 l 1
 1093 98 l 1
 1081 0 l 1
 314 0 l 1
 322 89 l 1
 583 145 l 1
 583 431 l 1
 3 431 l 1
 -26 532 l 1
202 591 m 1
 579 591 l 1
 579 1076 l 5
 202 591 l 1
EndSplineSet
Colour: ffff
EndChar

StartChar: four.osf
Encoding: 65542 -1 214
Width: 1161
VWidth: 0
Flags: W
HStem: 110 151<209 626 833 1124>
VStem: 627 206<-330 106 261 835>
DStem2: -1 202 209 261 0.601006 0.799244<173.367 882.753>
LayerCount: 2
Fore
SplineSet
-1 202 m 1
 763 1218 l 1
 843 1195 l 1
 835 1048 831 758 831 534 c 2
 831 261 l 1
 1145 261 l 1
 1124 106 l 1
 833 106 l 1
 833 -330 l 1
 627 -375 l 1
 627 110 l 1
 27 110 l 1
 -1 202 l 1
209 261 m 1
 626 261 l 1
 626 835 l 1
 209 261 l 1
EndSplineSet
Colour: ffff00
EndChar

StartChar: fraction
Encoding: 8260 8260 215
Width: 2145
VWidth: 0
Flags: W
HStem: 1474 20G<1125.4 1342>
DStem2: 654 726 845 730 0.562433 0.826843<-305.971 760.614>
LayerCount: 2
Fore
SplineSet
152 -12 m 1
 654 726 l 1
 1138 1494 l 1
 1342 1490 l 1
 1340 1455 l 1
 845 730 l 1
 387 -39 l 1
 152 -12 l 1
EndSplineSet
EndChar

StartChar: g
Encoding: 103 103 216
Width: 1100
VWidth: 0
Flags: W
HStem: -477 133<338.349 710.58> 4 182<324.13 801.516> 372 97<410.452 634.354> 883 165<963.529 1028> 883 146<963.529 1028> 1016 91<381.022 601.154>
VStem: 30 217<-264.388 -91.3538> 109 198<166.5 289.941 588.739 882.967> 697 201<577.348 901.599> 835 209<-209.468 -32.8736>
LayerCount: 2
Fore
SplineSet
30 -200 m 0xf240
 30 -86 166 -12 227 22 c 1
 227 33 l 1
 150 70 109 131 109 202 c 0
 109 269 224 368 315 405 c 1
 315 414 l 1
 253 430 113 561 113 728 c 0
 113 932 318 1107 526 1107 c 0xe5
 640 1107 724 1074 786 1029 c 1xe9
 804 1029 1051 1048 1051 1048 c 1
 1076 1020 l 1
 1028 883 l 1
 1008 883 l 1
 856 932 l 1
 856 911 l 1
 872 877 898 802 898 740 c 0
 898 513 668 372 481 372 c 0
 432 372 383 380 369 384 c 1
 340 354 307 314 307 276 c 0xf180
 307 226 341 186 534 186 c 2
 702 186 l 2
 885 186 1044 153 1044 -62 c 0
 1044 -277 758 -477 477 -477 c 4
 250 -477 30 -412 30 -200 c 0xf240
247 -133 m 0xe240
 247 -299 384 -344 543 -344 c 0
 705 -344 835 -287 835 -124 c 0
 835 -14 749 4 526 4 c 2
 311 4 l 1
 311 4 247 -19 247 -133 c 0xe240
311 751 m 0
 311 580 425 469 515 469 c 0
 625 469 697 542 697 716 c 0
 697 849 627 1016 497 1016 c 0xe480
 371 1016 311 913 311 751 c 0
EndSplineSet
EndChar

StartChar: gbreve
Encoding: 287 287 217
Width: 1100
VWidth: 0
Flags: W
HStem: -477 133<338.349 710.58> 4 182<324.13 801.516> 372 97<410.452 634.354> 883 165<963.529 1028> 883 146<963.529 1028> 1016 91<381.022 601.154> 1248 135<426.233 668.176>
VStem: 30 217<-264.388 -91.3538> 109 198<166.5 289.941 588.739 882.967> 312 67<1440.4 1477.24> 697 201<577.348 901.599> 835 209<-209.468 -32.8736>
LayerCount: 2
Fore
SplineSet
30 -200 m 0xf350
 30 -86 166 -12 227 22 c 1
 227 33 l 1
 150 70 109 131 109 202 c 0
 109 269 224 368 315 405 c 1
 315 414 l 1
 253 430 113 561 113 728 c 0
 113 932 318 1107 526 1107 c 0xe6c0
 640 1107 724 1074 786 1029 c 1xeac0
 804 1029 1051 1048 1051 1048 c 1
 1076 1020 l 1
 1028 883 l 1
 1008 883 l 1
 856 932 l 1
 856 911 l 1
 872 877 898 802 898 740 c 0
 898 513 668 372 481 372 c 0
 432 372 383 380 369 384 c 1
 340 354 307 314 307 276 c 0xf2e0
 307 226 341 186 534 186 c 2
 702 186 l 2
 885 186 1044 153 1044 -62 c 0
 1044 -277 758 -477 477 -477 c 0
 250 -477 30 -412 30 -200 c 0xf350
247 -133 m 0xe350
 247 -299 384 -344 543 -344 c 0
 705 -344 835 -287 835 -124 c 0
 835 -14 749 4 526 4 c 2
 311 4 l 1
 311 4 247 -19 247 -133 c 0xe350
311 751 m 0
 311 580 425 469 515 469 c 0
 625 469 697 542 697 716 c 0
 697 849 627 1016 497 1016 c 0xe660
 371 1016 311 913 311 751 c 0
312 1467 m 1
 368 1507 l 1
 379 1486 l 1
 403 1437 463 1383 546 1383 c 0
 633 1383 688 1434 721 1487 c 1
 733 1509 l 1
 784 1474 l 1
 775 1449 l 2
 741 1350 668 1248 546 1248 c 0
 416 1248 342 1349 318 1444 c 2
 312 1467 l 1
EndSplineSet
EndChar

StartChar: gcommaaccent
Encoding: 291 291 218
Width: 1100
VWidth: 0
Flags: W
HStem: -477 133<338.349 710.58> 4 182<324.13 801.516> 372 97<410.452 634.354> 883 165<963.529 1028> 883 146<963.529 1028> 1016 91<381.022 601.154> 1536 65<592.093 645.073>
VStem: 30 217<-264.388 -91.3538> 109 198<166.5 289.941 588.739 882.967> 412 135<1359.08 1491.55> 697 201<577.348 901.599> 835 209<-209.468 -32.8736>
LayerCount: 2
Fore
SplineSet
30 -200 m 0xf350
 30 -86 166 -12 227 22 c 1
 227 33 l 1
 150 70 109 131 109 202 c 0
 109 269 224 368 315 405 c 1
 315 414 l 1
 253 430 113 561 113 728 c 0
 113 932 318 1107 526 1107 c 0xe6c0
 640 1107 724 1074 786 1029 c 1xeac0
 804 1029 1051 1048 1051 1048 c 1
 1076 1020 l 1
 1028 883 l 1
 1008 883 l 1
 856 932 l 1
 856 911 l 1
 872 877 898 802 898 740 c 0
 898 513 668 372 481 372 c 0
 432 372 383 380 369 384 c 1
 340 354 307 314 307 276 c 0xf2e0
 307 226 341 186 534 186 c 2
 702 186 l 2
 885 186 1044 153 1044 -62 c 0
 1044 -277 758 -477 477 -477 c 0
 250 -477 30 -412 30 -200 c 0xf350
247 -133 m 0xe350
 247 -299 384 -344 543 -344 c 0
 705 -344 835 -287 835 -124 c 0
 835 -14 749 4 526 4 c 2
 311 4 l 1
 311 4 247 -19 247 -133 c 0xe350
311 751 m 0
 311 580 425 469 515 469 c 0
 625 469 697 542 697 716 c 0
 697 849 627 1016 497 1016 c 0xe660
 371 1016 311 913 311 751 c 0
412 1370 m 0
 412 1437 457 1558 640 1601 c 1
 663 1536 l 1
 576 1514 547 1470 547 1425 c 0
 547 1384 619 1330 646 1327 c 1
 635 1274 594 1225 536 1225 c 0
 487 1225 412 1260 412 1370 c 0
EndSplineSet
EndChar

StartChar: germandbls
Encoding: 223 223 220
Width: 1379
VWidth: 0
Flags: W
HStem: -38 121<904.279 1149.03> 0 90<57 107.582> 968 80<77 161.039> 1479 133<555.227 787.052>
VStem: 244 208<143 968 1077 1262.87> 646 159<587.175 916.159> 879 191<1146.93 1382.14> 1175 179<129.234 450.241>
LayerCount: 2
Fore
SplineSet
42 0 m 1x7f
 57 90 l 1x7f
 244 143 l 1
 244 968 l 1
 65 968 l 1
 77 1048 l 1
 247 1077 l 1
 265 1350 459 1612 743 1612 c 0
 943 1612 1070 1475 1070 1301 c 0
 1070 1058 805 992 805 843 c 0
 805 631 1354 614 1354 276 c 0
 1354 93 1165 -38 975 -38 c 0
 755 -38 615 64 615 175 c 0
 615 281 687 335 777 340 c 1
 815 178 919 83 1013 83 c 0xbf
 1100 83 1175 104 1175 206 c 0
 1175 380 646 426 646 759 c 0
 646 986 879 1053 879 1228 c 0
 879 1371 792 1479 653 1479 c 0
 529 1479 451 1386 451 1123 c 2
 452 0 l 1
 42 0 l 1x7f
EndSplineSet
EndChar

StartChar: uni05D2
Encoding: 1490 1490 221
Width: 714
VWidth: 0
Flags: W
HStem: 0 201<79.8728 329.299>
VStem: 458 106<331.479 770.832> 460 88<480.168 825.244> 504 141<24 195.964>
LayerCount: 2
Fore
SplineSet
55 120 m 0x90
 55 165 65 202 78 221 c 1
 118 207 155 201 189 201 c 0
 332 201 417 312 458 410 c 1xc0
 460 741 l 2
 460 799 438 821 392 835 c 2
 159 904 l 1
 137 932 l 1
 157 1189 l 1
 239 1197 l 1
 281 1086 l 1
 418 1046 l 2
 482 1027 540 992 548 809 c 2xa0
 564 442 l 2xc0
 572 273 633 78 645 14 c 1
 532 -6 l 1
 504 24 l 1
 483 313 l 1
 468 313 l 1
 442 197 397 56 299 0 c 1
 80 0 l 1
 62 40 55 83 55 120 c 0x90
EndSplineSet
EndChar

StartChar: grave
Encoding: 96 96 222
Width: 661
VWidth: 0
Flags: W
HStem: 1641 455
VStem: 151 305
LayerCount: 2
Fore
SplineSet
151 2049 m 1
 293 2096 l 1
 456 1684 l 1
 386 1641 l 1
 151 2049 l 1
EndSplineSet
EndChar

StartChar: greater
Encoding: 62 62 223
Width: 881
VWidth: 0
Flags: W
LayerCount: 2
Fore
SplineSet
73 -16 m 1
 545 561 l 1
 98 1112 l 1
 167 1202 l 1
 834 562 l 1
 835 528 l 1
 151 -102 l 1
 73 -16 l 1
EndSplineSet
EndChar

StartChar: greaterequal
Encoding: 8805 8805 224
Width: 901
VWidth: 0
Flags: W
HStem: -330 128<75 808>
LayerCount: 2
Fore
SplineSet
54 -330 m 1
 75 -202 l 1
 828 -194 l 1
 808 -322 l 1
 54 -330 l 1
95 -16 m 1
 565 561 l 1
 118 1112 l 1
 189 1202 l 1
 856 562 l 1
 857 528 l 1
 171 -102 l 1
 95 -16 l 1
EndSplineSet
EndChar

StartChar: guillemotleft
Encoding: 171 171 225
Width: 795
VWidth: 0
Flags: W
LayerCount: 2
Fore
SplineSet
29 579 m 1
 360 1013 l 1
 414 940 l 1
 211 569 l 1
 418 174 l 1
 353 95 l 1
 30 554 l 1
 29 579 l 1
334 579 m 1
 665 1013 l 1
 720 940 l 1
 516 569 l 1
 724 174 l 1
 659 95 l 1
 335 554 l 1
 334 579 l 1
EndSplineSet
EndChar

StartChar: guillemotright
Encoding: 187 187 226
Width: 797
VWidth: 0
Flags: W
LayerCount: 2
Fore
SplineSet
75 174 m 1
 282 569 l 1
 79 940 l 1
 133 1013 l 1
 464 579 l 1
 462 554 l 1
 139 95 l 1
 75 174 l 1
380 174 m 1
 588 569 l 1
 384 940 l 1
 439 1013 l 1
 770 579 l 1
 767 554 l 1
 445 95 l 1
 380 174 l 1
EndSplineSet
EndChar

StartChar: guilsinglleft
Encoding: 8249 8249 227
Width: 490
VWidth: 0
Flags: W
VStem: 29 385
LayerCount: 2
Fore
SplineSet
29 579 m 1
 360 1013 l 1
 414 940 l 1
 211 569 l 1
 418 174 l 1
 353 95 l 1
 30 554 l 1
 29 579 l 1
EndSplineSet
EndChar

StartChar: guilsinglright
Encoding: 8250 8250 228
Width: 491
VWidth: 0
Flags: W
VStem: 75 389
LayerCount: 2
Fore
SplineSet
75 174 m 1
 282 569 l 1
 79 940 l 1
 133 1013 l 1
 464 579 l 1
 462 554 l 1
 139 95 l 1
 75 174 l 1
EndSplineSet
EndChar

StartChar: h
Encoding: 104 104 229
Width: 1271
VWidth: 0
Flags: W
HStem: 0 98<26 56.9742 572.493 587 702 730.32 1225.46 1241> 944 168<599.676 793.664> 1547 20G<125.556 410.667>
VStem: 216 205<143 874.456 956.099 1380> 872 205<141 864.521>
LayerCount: 2
Fore
SplineSet
12 0 m 1
 26 98 l 1
 216 143 l 1
 216 1380 l 1
 18 1446 l 1
 33 1540 l 1
 390 1567 l 1
 421 1537 l 1
 421 1050 l 1
 401 919 l 1
 414 919 l 1
 516 1033 638 1112 777 1112 c 0
 948 1112 1077 1040 1077 740 c 2
 1077 141 l 1
 1256 98 l 1
 1241 0 l 1
 687 0 l 1
 702 91 l 1
 868 141 l 1
 872 708 l 1
 872 716 l 2
 872 891 757 944 659 944 c 0
 588 944 508 924 421 834 c 1
 421 143 l 1
 602 99 l 1
 587 0 l 1
 12 0 l 1
EndSplineSet
EndChar

StartChar: hbar
Encoding: 295 295 230
Width: 1271
VWidth: 0
Flags: W
HStem: 0 98<-3 27.9742 543.493 558 673 701.32 1196.46 1212> 944 168<570.676 764.664> 1187 98<-24 799> 1547 20<96.5556 381.667>
VStem: 187 205<143 874.456 956.099 1380> 843 205<141 864.521>
LayerCount: 2
Fore
SplineSet
-32 1187 m 1
 -24 1285 l 1
 808 1285 l 1
 799 1187 l 1
 -32 1187 l 1
EndSplineSet
Refer: 229 104 N 1 0 0 1 -29 0 2
EndChar

StartChar: uni05D4
Encoding: 1492 1492 231
Width: 1043
VWidth: 0
Flags: W
HStem: -20 29G<160 309 779 923> 875 195<243 786 869.656 927>
VStem: 180 83<404.723 691> 765 126<18 603.045> 786 81<542.816 860>
LayerCount: 2
Fore
SplineSet
90 912 m 1xe8
 110 1187 l 1
 200 1199 l 1
 243 1070 l 1
 929 1070 l 1
 961 1032 l 1
 927 875 l 1
 867 860 l 1xe8
 891 329 l 2
 897 184 907 104 923 8 c 1
 807 -12 l 1
 765 18 l 1xf0
 786 875 l 1
 122 875 l 1
 90 912 l 1xe8
146 10 m 1
 180 691 l 1
 263 701 l 1
 281 329 l 2
 287 219 297 112 309 0 c 1
 188 -20 l 1
 146 10 l 1
EndSplineSet
EndChar

StartChar: uni05D7
Encoding: 1495 1495 232
Width: 1079
VWidth: 0
Flags: W
HStem: -20 29G<136 285 813 958> 875 195<305 820 903.7 962>
VStem: 122 137<10 350.291> 160 87<856.551 875> 172 91<1154.97 1187> 799 126<18 603.045> 820 81<542.816 860>
LayerCount: 2
Fore
SplineSet
122 10 m 1xe0
 160 912 l 1xd0
 172 1187 l 1
 263 1199 l 1
 305 1070 l 1
 964 1070 l 1
 996 1032 l 1
 962 875 l 1
 901 860 l 1xca
 925 329 l 2
 931 184 942 104 958 8 c 1
 841 -12 l 1
 799 18 l 1xc4
 820 875 l 1
 247 875 l 1xd2
 259 369 l 2
 262 259 275 76 285 0 c 1
 164 -20 l 1
 122 10 l 1xe0
EndSplineSet
EndChar

StartChar: hungarumlaut
Encoding: 733 733 233
Width: 881
VWidth: 0
Flags: W
HStem: 1677 319
VStem: 114 655
LayerCount: 2
Fore
SplineSet
114 1740 m 1
 429 1996 l 1
 520 1890 l 1
 149 1677 l 1
 114 1740 l 1
376 1740 m 1
 679 1987 l 1
 769 1884 l 1
 410 1677 l 1
 376 1740 l 1
EndSplineSet
EndChar

StartChar: hyphen
Encoding: 45 45 234
Width: 718
VWidth: 0
Flags: W
HStem: 492 123<114 428.145> 513 125<303.855 604>
VStem: 100 518
LayerCount: 2
Fore
SplineSet
100 492 m 1xa0
 114 615 l 1xa0
 618 638 l 1
 604 513 l 1x60
 100 492 l 1xa0
EndSplineSet
EndChar

StartChar: i
Encoding: 105 105 235
Width: 666
VWidth: 0
Flags: W
HStem: 0 98<60 119.574 588.922 638> 1073 20G<175.429 443.355> 1321 292<238.651 445.375>
VStem: 193 297<1366.88 1571.29> 247 207<143 903>
LayerCount: 2
Fore
SplineSet
46 0 m 1xe8
 60 98 l 1
 247 143 l 1
 247 903 l 1
 60 971 l 1
 76 1065 l 1
 424 1093 l 1
 454 1062 l 1
 454 143 l 1
 652 99 l 1
 638 0 l 1
 46 0 l 1xe8
193 1475 m 0xf0
 193 1554 263 1613 340 1613 c 0
 421 1613 490 1551 490 1472 c 0
 490 1389 421 1321 340 1321 c 0
 259 1321 193 1392 193 1475 c 0xf0
EndSplineSet
EndChar

StartChar: iacute
Encoding: 237 237 236
Width: 666
VWidth: 0
Flags: W
HStem: 0 98<60 119.574 588.922 638> 1073 20G<175.429 443.355>
VStem: 247 207<143 903>
LayerCount: 2
Fore
SplineSet
46 0 m 1
 60 98 l 1
 247 143 l 1
 247 903 l 1
 60 971 l 1
 76 1065 l 1
 424 1093 l 1
 454 1062 l 1
 454 143 l 1
 652 99 l 1
 638 0 l 1
 46 0 l 1
238 1286 m 1
 388 1688 l 1
 527 1639 l 1
 300 1247 l 1
 238 1286 l 1
EndSplineSet
EndChar

StartChar: icaron
Encoding: 464 464 237
Width: 666
VWidth: 0
Flags: W
HStem: 0 98<60 119.574 588.922 638> 1073 20G<175.429 443.355> 1517 20G<148.684 195.674>
VStem: 247 207<143 903>
DStem2: 175 1537 75 1461 0.736462 -0.676479<0 255.922> 371 1359 364 1274 0.693955 0.720019<0 230.764>
LayerCount: 2
Fore
SplineSet
46 0 m 1
 60 98 l 1
 247 143 l 1
 247 903 l 1
 60 971 l 1
 76 1065 l 1
 424 1093 l 1
 454 1062 l 1
 454 143 l 1
 652 99 l 1
 638 0 l 1
 46 0 l 1
75 1461 m 1
 175 1537 l 1
 359 1359 l 1
 371 1359 l 1
 523 1533 l 1
 577 1495 l 1
 364 1274 l 1
 296 1258 l 1
 75 1461 l 1
EndSplineSet
EndChar

StartChar: icircumflex
Encoding: 238 238 238
Width: 666
VWidth: 0
Flags: W
HStem: 0 98<60 119.574 588.922 638> 1073 20G<175.429 443.355>
VStem: 247 207<143 903>
LayerCount: 2
Fore
SplineSet
46 0 m 1
 60 98 l 1
 247 143 l 1
 247 903 l 1
 60 971 l 1
 76 1065 l 1
 424 1093 l 1
 454 1062 l 1
 454 143 l 1
 652 99 l 1
 638 0 l 1
 46 0 l 1
94 1294 m 1
 300 1516 l 1
 368 1533 l 1
 588 1305 l 1
 527 1259 l 1
 325 1395 l 1
 312 1395 l 1
 140 1258 l 1
 94 1294 l 1
EndSplineSet
EndChar

StartChar: idieresis
Encoding: 239 239 239
Width: 666
VWidth: 0
Flags: W
HStem: 0 98<60 119.574 588.922 638> 1073 20G<175.429 443.355> 1270 195<84.4857 258.468 414.486 591.289>
VStem: 67 209<1288.17 1447.46> 247 207<143 903> 397 213<1289.55 1446.14>
LayerCount: 2
Fore
SplineSet
46 0 m 1xe8
 60 98 l 1
 247 143 l 1
 247 903 l 1
 60 971 l 1
 76 1065 l 1
 424 1093 l 1
 454 1062 l 1
 454 143 l 1
 652 99 l 1
 638 0 l 1
 46 0 l 1xe8
67 1370 m 0xf0
 67 1428 121 1465 171 1465 c 0
 225 1465 276 1427 276 1370 c 0
 276 1309 225 1270 171 1270 c 0
 118 1270 67 1309 67 1370 c 0xf0
397 1370 m 0xe4
 397 1428 451 1465 501 1465 c 0
 555 1465 610 1427 610 1370 c 0
 610 1309 555 1270 501 1270 c 0
 448 1270 397 1309 397 1370 c 0xe4
EndSplineSet
EndChar

StartChar: imacron
Encoding: 299 299 241
Width: 666
VWidth: 0
Flags: W
HStem: 0 98<60 119.574 588.922 638> 1073 20G<175.429 443.355> 1285 123<75 603>
VStem: 247 207<143 903>
LayerCount: 2
Fore
SplineSet
46 0 m 1
 60 98 l 1
 247 143 l 1
 247 903 l 1
 60 971 l 1
 76 1065 l 1
 424 1093 l 1
 454 1062 l 1
 454 143 l 1
 652 99 l 1
 638 0 l 1
 46 0 l 1
58 1285 m 1
 75 1408 l 1
 619 1408 l 1
 603 1285 l 1
 58 1285 l 1
EndSplineSet
EndChar

StartChar: infinity
Encoding: 8734 8734 242
Width: 1682
VWidth: 0
Flags: W
HStem: 251 196<305.765 615.464 1150.7 1363.74> 876 197<1079.14 1385.98> 891 187<303.42 542.173>
VStem: 76 111<552.683 812.745> 1506 102<524.477 766.355>
LayerCount: 2
Fore
SplineSet
76 614 m 0xd8
 76 887 258 1078 474 1078 c 0xb8
 621 1078 741 1017 852 835 c 1
 864 838 l 1
 979 993 1108 1073 1263 1073 c 0
 1463 1073 1608 914 1608 682 c 0
 1608 450 1417 253 1190 253 c 0
 1012 253 898 390 833 501 c 1
 823 501 l 1
 712 323 574 251 441 251 c 0
 213 251 76 395 76 614 c 0xd8
187 667 m 0
 187 541 328 447 469 447 c 0
 595 447 730 508 780 573 c 1
 658 748 550 891 424 891 c 0
 265 891 187 800 187 667 c 0
906 751 m 1
 1013 561 1163 447 1308 447 c 0
 1418 447 1506 542 1506 648 c 0
 1506 787 1357 876 1214 876 c 0xd8
 1043 876 964 805 906 751 c 1
EndSplineSet
EndChar

StartChar: integral
Encoding: 8747 8747 243
Width: 1086
VWidth: 0
Flags: W
HStem: -475 131<150.622 339.895> 1480 131<722.713 899.878>
VStem: 420 207<-136.984 1236.53>
LayerCount: 2
Fore
SplineSet
-68 -333 m 1
 -67 -272 1 -210 42 -194 c 1
 91 -255 181 -344 258 -344 c 0
 349 -344 415 -287 420 -75 c 1
 425 971 l 2
 428 1438 713 1611 888 1611 c 0
 1018 1611 1119 1567 1119 1468 c 0
 1119 1407 1049 1346 1008 1330 c 1
 959 1391 869 1480 792 1480 c 0
 701 1480 638 1423 630 1211 c 1
 627 145 l 2
 626 -330 338 -475 163 -475 c 0
 33 -475 -68 -432 -68 -333 c 1
EndSplineSet
EndChar

StartChar: iogonek
Encoding: 303 303 244
Width: 679
VWidth: 0
Flags: W
HStem: -477 63<660.19 670.557> 0 98<60 119.574 601.393 638> 1073 20G<175.429 443.355> 1255 293<232.127 439.375>
VStem: 187 298<1303.02 1504.72> 247 207<143 903> 368 182<-316.521 -129.358>
LayerCount: 2
Fore
SplineSet
46 0 m 1xf2
 60 98 l 1
 247 143 l 1
 247 903 l 1
 60 971 l 1
 76 1065 l 1
 424 1093 l 1
 454 1062 l 1
 454 143 l 1xf4
 652 99 l 1
 638 0 l 1
 625 0 l 1
 554 -117 550 -161 550 -183 c 0
 550 -260 592 -349 703 -414 c 1
 661 -477 l 1
 483 -459 368 -363 368 -257 c 0
 368 -193 389 -128 534 0 c 1
 46 0 l 1xf2
187 1408 m 0xf8
 187 1487 256 1548 333 1548 c 0
 414 1548 485 1486 485 1407 c 0
 485 1324 414 1255 333 1255 c 0
 252 1255 187 1325 187 1408 c 0xf8
EndSplineSet
EndChar

StartChar: j
Encoding: 106 106 245
Width: 573
VWidth: 0
Flags: W
HStem: -473 21G<7.80734 56.3333> 1075 20G<143.615 429.667> 1313 302<220.018 427.028>
VStem: 172 302<1359.38 1570.12> 231 209<-69.0556 903>
LayerCount: 2
Fore
SplineSet
-42 -364 m 1xe8
 91 -265 231 -122 231 212 c 2
 231 903 l 1
 46 971 l 1
 64 1069 l 1
 409 1095 l 1
 440 1065 l 1
 440 186 l 2
 440 -162 262 -338 75 -443 c 2
 19 -473 l 1
 -42 -364 l 1xe8
172 1468 m 0xf0
 172 1551 242 1615 325 1615 c 0
 406 1615 474 1548 474 1467 c 0
 474 1384 406 1313 323 1313 c 0
 240 1313 172 1385 172 1468 c 0xf0
EndSplineSet
EndChar

StartChar: k
Encoding: 107 107 246
Width: 1201
VWidth: 0
Flags: W
HStem: -24 21G<956.5 1065> 0 98<26 73.6112 568.374 603 1150 1186> 1009 94<619 643.409 1084.43 1127> 1536 20G<135.714 410>
VStem: 215 206<143 1368>
DStem2: 451 558 651 602 0.623744 0.781629<159.14 513.031> 651 602 451 534 0.585491 -0.810679<0 596.995>
LayerCount: 2
Fore
SplineSet
12 0 m 1
 26 98 l 1
 215 143 l 1
 215 1368 l 1
 20 1434 l 1
 34 1528 l 1
 390 1556 l 1
 421 1525 l 1
 421 143 l 1
 618 99 l 1
 603 0 l 1
 12 0 l 1
451 534 m 1
 451 558 l 1
 771 959 l 1
 606 1009 l 1
 619 1103 l 1
 1145 1103 l 1
 1127 1012 l 1
 943 960 l 1
 651 602 l 1
 748 477 l 2
 930 246 995 122 1150 102 c 2
 1199 95 l 1
 1186 0 l 1
 1168 -5 1092 -24 1038 -24 c 0
 875 -24 783 81 581 354 c 1
 451 534 l 1
EndSplineSet
EndChar

StartChar: uni05DB
Encoding: 1499 1499 247
Width: 1079
VWidth: 0
Flags: W
HStem: -16 21G<101.667 527.059> 18 197<520.22 798.464>
VStem: 895 110<323.433 712.273>
DStem2: 260 1092 132 893 0.994159 -0.107925<0 564.665>
LayerCount: 2
Fore
SplineSet
87 20 m 1
 128 181 l 1
 678 215 l 1
 786 219 895 305 895 508 c 0
 895 713 820 818 611 841 c 2
 132 893 l 1
 101 938 l 1
 120 1209 l 1
 208 1221 l 1
 260 1092 l 1
 654 1048 l 2
 893 1021 1005 863 1005 570 c 0
 1005 301 941 128 812 18 c 1
 120 -16 l 1
 87 20 l 1
EndSplineSet
EndChar

StartChar: uni05DB.fina
Encoding: 65543 -1 248
Width: 959
VWidth: 0
Flags: W
HStem: -464 21G<705.667 851> 875 195<163 707 789.656 847>
VStem: 691 140<-434 268.068> 707 80<573.932 860>
LayerCount: 2
Fore
SplineSet
10 912 m 1xd0
 30 1187 l 1
 120 1199 l 1
 163 1070 l 1
 849 1070 l 1
 881 1032 l 1
 847 875 l 1
 787 860 l 1xd0
 831 -18 l 2
 835 -106 839 -348 851 -444 c 1
 735 -464 l 1
 691 -434 l 1xe0
 707 875 l 1
 42 875 l 1
 10 912 l 1xd0
EndSplineSet
EndChar

StartChar: kcommaaccent
Encoding: 311 311 249
Width: 1199
VWidth: 0
Flags: W
HStem: -481 65<526.148 578.907> -24 21G<956.5 1065> 0 98<26 73.6112 568.374 603 1150 1186> 1009 94<619 643.409 1084.43 1127> 1536 20G<135.714 410>
VStem: 215 206<143 1368> 623 136<-372.478 -238.791>
DStem2: 451 558 651 602 0.623744 0.781629<159.14 513.031> 651 602 451 534 0.585491 -0.810679<0 596.995>
LayerCount: 2
Fore
SplineSet
12 0 m 1
 26 98 l 1
 215 143 l 1
 215 1368 l 1
 20 1434 l 1
 34 1528 l 1
 390 1556 l 1
 421 1525 l 1
 421 1455 l 1
 421 143 l 1
 618 99 l 1
 603 0 l 1
 12 0 l 1
451 534 m 1
 451 558 l 1
 771 959 l 1
 606 1009 l 1
 619 1103 l 1
 1145 1103 l 1
 1127 1012 l 1
 943 960 l 1
 651 602 l 1
 748 477 l 2
 930 246 995 122 1150 102 c 2
 1199 95 l 1
 1186 0 l 1
 1168 -5 1092 -24 1038 -24 c 0
 875 -24 783 81 581 354 c 1
 451 534 l 1
509 -416 m 1
 596 -394 623 -349 623 -304 c 0
 623 -263 553 -211 526 -208 c 1
 537 -155 576 -105 634 -105 c 0
 683 -105 759 -141 759 -251 c 0
 759 -318 714 -438 531 -481 c 1
 509 -416 l 1
EndSplineSet
EndChar

StartChar: l
Encoding: 108 108 250
Width: 631
VWidth: 0
Flags: W
HStem: 0 98<26 86.2112 555.24 603> 1547 20G<126.296 410.667>
VStem: 215 206<143 1380>
LayerCount: 2
Fore
SplineSet
12 0 m 1
 26 98 l 1
 215 143 l 1
 215 1380 l 1
 20 1446 l 1
 34 1540 l 1
 390 1567 l 1
 421 1537 l 1
 421 143 l 1
 618 99 l 1
 603 0 l 1
 12 0 l 1
EndSplineSet
EndChar

StartChar: lacute
Encoding: 314 314 251
Width: 631
VWidth: 0
Flags: W
HStem: 0 98<26 86.2112 555.24 603> 1547 20G<126.296 410.667>
VStem: 215 206<143 1380>
LayerCount: 2
Fore
SplineSet
12 0 m 1
 26 98 l 1
 215 143 l 1
 215 1380 l 1
 20 1446 l 1
 34 1540 l 1
 390 1567 l 1
 421 1537 l 1
 421 143 l 1
 618 99 l 1
 603 0 l 1
 12 0 l 1
198 1711 m 1
 349 2112 l 1
 488 2063 l 1
 261 1672 l 1
 198 1711 l 1
EndSplineSet
EndChar

StartChar: uni05DC
Encoding: 1500 1500 252
Width: 984
VWidth: 0
Flags: W
HStem: -20 21G<275.5 470.906> 879 195<196 793.186> 1405 193<174 268>
VStem: 82 210<1405 1570> 832 111<552.083 842.028>
LayerCount: 2
Fore
SplineSet
63 924 m 1
 82 1596 l 1
 268 1598 l 1
 300 1570 l 1
 292 1405 l 1
 174 1395 l 1
 196 1074 l 1
 690 1074 l 2
 905 1074 943 992 943 759 c 0
 943 490 743 304 624 171 c 2
 453 -20 l 1
 240 4 l 1
 216 36 l 1
 369 145 l 2
 552 276 832 494 832 697 c 0
 832 848 787 879 614 879 c 2
 94 879 l 1
 63 924 l 1
EndSplineSet
EndChar

StartChar: lcaron
Encoding: 318 318 253
Width: 783
VWidth: 0
Flags: W
HStem: 0 98<26 86.2112 555.24 603> 926 86<487.166 563.07> 1358 224<533.459 650.044> 1547 20G<126.296 410.667>
VStem: 215 206<143 1380> 687 170<1142.11 1418>
LayerCount: 2
Fore
SplineSet
12 0 m 1xdc
 26 98 l 1
 215 143 l 1
 215 1380 l 1
 20 1446 l 1
 34 1540 l 1
 390 1567 l 1
 421 1537 l 1
 421 143 l 1
 618 99 l 1
 603 0 l 1
 12 0 l 1xdc
463 1012 m 1
 625 1054 687 1146 687 1225 c 0
 687 1294 632 1358 545 1358 c 0
 533 1358 520 1356 508 1355 c 1
 498 1381 489 1404 489 1433 c 0
 489 1532 579 1582 641 1582 c 0xec
 727 1582 857 1511 857 1325 c 0
 857 1210 817 1012 492 926 c 1
 463 1012 l 1
EndSplineSet
EndChar

StartChar: lcommaaccent
Encoding: 316 316 254
Width: 631
VWidth: 0
Flags: W
HStem: -481 65<199.148 251.931> 0 98<26 85.574 554.24 602> 1547 20G<125.778 409.333>
VStem: 213 207<143 1380> 296 137<-371.58 -238.791>
LayerCount: 2
Fore
SplineSet
11 0 m 1xf0
 26 98 l 1
 213 143 l 1
 213 1380 l 1
 19 1446 l 1
 34 1540 l 1
 388 1567 l 1
 420 1537 l 1
 420 143 l 1
 617 99 l 1
 602 0 l 1
 11 0 l 1xf0
182 -416 m 1
 269 -394 296 -349 296 -304 c 0
 296 -263 225 -211 198 -208 c 1
 209 -155 250 -105 308 -105 c 0
 357 -105 433 -141 433 -251 c 0xe8
 433 -318 387 -438 204 -481 c 1
 182 -416 l 1
EndSplineSet
EndChar

StartChar: less
Encoding: 60 60 255
Width: 881
VWidth: 0
Flags: W
LayerCount: 2
Fore
SplineSet
46 528 m 1
 49 562 l 1
 714 1202 l 1
 785 1112 l 1
 338 561 l 1
 809 -16 l 1
 732 -102 l 1
 46 528 l 1
EndSplineSet
EndChar

StartChar: lessequal
Encoding: 8804 8804 256
Width: 901
VWidth: 0
Flags: W
HStem: -330 128<95 830>
LayerCount: 2
Fore
SplineSet
46 528 m 1
 49 562 l 1
 714 1202 l 1
 785 1112 l 1
 338 561 l 1
 809 -16 l 1
 732 -102 l 1
 46 528 l 1
75 -330 m 1
 95 -202 l 1
 850 -194 l 1
 830 -322 l 1
 75 -330 l 1
EndSplineSet
EndChar

StartChar: logicalnot
Encoding: 172 172 257
Width: 1125
VWidth: 0
Flags: W
HStem: 690 129<106 896>
VStem: 896 132<433 690>
LayerCount: 2
Fore
SplineSet
91 690 m 1
 106 819 l 1
 1025 819 l 1
 1028 433 l 1
 896 410 l 1
 896 690 l 1
 91 690 l 1
EndSplineSet
EndChar

StartChar: lozenge
Encoding: 9674 9674 258
Width: 1165
VWidth: 0
Flags: W
LayerCount: 2
Fore
SplineSet
183 585 m 1
 583 987 l 1
 983 583 l 1
 585 167 l 1
 183 585 l 1
EndSplineSet
EndChar

StartChar: lslash
Encoding: 322 322 259
Width: 642
VWidth: 0
Flags: W
HStem: 0 98<4 63.574 532.24 581> 1547 20G<104.296 388>
VStem: 191 207<143 1380>
DStem2: 8 667 -16 507 0.778019 0.62824<0 601.871>
LayerCount: 2
Fore
SplineSet
-10 0 m 1
 4 98 l 1
 191 143 l 1
 191 1380 l 1
 -1 1446 l 1
 12 1540 l 1
 368 1567 l 1
 398 1537 l 1
 398 143 l 1
 595 99 l 1
 581 0 l 1
 -10 0 l 1
-16 507 m 1
 8 667 l 1
 569 1119 l 1
 545 960 l 1
 -16 507 l 1
EndSplineSet
EndChar

StartChar: m
Encoding: 109 109 260
Width: 1957
VWidth: 0
Flags: W
HStem: 0 91<65 118.33 585.251 623 752 798.449 1245.53 1286 1404 1448.15 1889.86 1920> 938 169<639.416 833.664 1311.92 1483.72> 951 93<65 98.056>
VStem: 251 208<141 872.559> 914 201<141 856.475> 1558 208<143 863.4>
LayerCount: 2
Fore
SplineSet
53 0 m 1xdc
 65 91 l 1
 251 141 l 1
 251 888 l 1
 53 951 l 1
 65 1044 l 1xbc
 441 1095 l 1
 463 1070 l 1
 441 914 l 1
 452 914 l 1
 531 1012 668 1107 823 1107 c 0
 934 1107 1057 1054 1095 903 c 1
 1110 903 l 1
 1189 1005 1320 1097 1475 1097 c 0
 1681 1097 1766 967 1766 752 c 2
 1766 143 l 1
 1937 99 l 1
 1920 1 l 1
 1395 1 l 1
 1404 91 l 1
 1558 141 l 1
 1558 723 l 2
 1558 841 1484 938 1351 938 c 0
 1241 938 1172 876 1115 815 c 1
 1115 141 l 1
 1298 98 l 1
 1286 0 l 1
 739 0 l 1
 752 91 l 1
 914 141 l 1
 914 723 l 2
 914 853 821 938 703 938 c 0
 612 938 521 902 459 831 c 1
 459 141 l 1
 636 98 l 1
 623 0 l 1
 53 0 l 1xdc
EndSplineSet
EndChar

StartChar: macron
Encoding: 175 175 261
Width: 787
VWidth: 0
Flags: W
HStem: 1703 124<130 659>
VStem: 114 561
LayerCount: 2
Fore
SplineSet
114 1703 m 1
 130 1827 l 1
 675 1827 l 1
 659 1703 l 1
 114 1703 l 1
EndSplineSet
EndChar

StartChar: uni05DE
Encoding: 1502 1502 262
Width: 1094
VWidth: 0
Flags: W
HStem: -12 197<443 749.675> 8 195<559.325 880.713> 871 207<544.794 723.903>
VStem: 117 147<10 438.877> 894 111<250.446 690.539>
LayerCount: 2
Fore
SplineSet
109 904 m 1x78
 117 1096 l 1
 150 1120 l 1
 279 1044 344 913 370 855 c 1
 370 855 516 1078 659 1078 c 0
 902 1078 999 811 1005 562 c 1
 1005 339 920 88 874 8 c 1x78
 435 -12 l 1
 402 14 l 1
 443 185 l 1xb8
 870 203 l 1
 884 235 890 314 894 388 c 2
 900 512 l 1
 892 679 770 871 583 871 c 0
 330 871 264 558 264 305 c 0
 264 187 266 96 278 0 c 1
 162 -20 l 1
 117 10 l 1
 121 289 153 554 290 755 c 1
 109 904 l 1x78
EndSplineSet
EndChar

StartChar: uni05DE.fina
Encoding: 65544 -1 263
Width: 1015
VWidth: 0
Flags: W
HStem: 0 197<271.156 871.281> 875 195<311.137 868.404>
VStem: 135 114<201.689 759.06> 143 90<1154.97 1187> 883 97<205.323 863.842>
LayerCount: 2
Fore
SplineSet
131 893 m 1xe8
 143 1187 l 1
 233 1199 l 1xd8
 275 1070 l 1
 849 1070 l 2
 935 1070 980 1014 980 831 c 2
 980 233 l 2
 980 28 899 0 839 0 c 2
 181 0 l 1
 149 36 l 1
 149 36 135 510 135 606 c 0
 135 662 161 781 269 855 c 1
 269 871 l 1
 153 871 l 1
 131 893 l 1xe8
249 643 m 0xe8
 249 450 259 285 279 197 c 1
 859 197 l 1
 872 227 883 303 883 363 c 2
 883 377 l 1
 875 781 l 2
 873 859 851 875 807 875 c 2
 351 875 l 1
 269 795 249 715 249 643 c 0xe8
EndSplineSet
EndChar

StartChar: minus
Encoding: 8722 8722 264
Width: 1014
VWidth: 0
Flags: W
HStem: 505 129<143 876>
LayerCount: 2
Fore
SplineSet
122 505 m 1
 143 634 l 1
 896 642 l 1
 876 513 l 1
 122 505 l 1
EndSplineSet
EndChar

StartChar: mu
Encoding: 956 956 265
Width: 1246
VWidth: 0
Flags: W
HStem: -30 160<439.5 657.2> -8 103<1171 1217> 955 111<646 688.863> 1081 20G<136.074 401.355 802 1026.77>
VStem: 171 164<-447 -246.507> 204 208<211.971 909> 833 203<139.512 159 197.622 903>
LayerCount: 2
Fore
SplineSet
34 976 m 1xb6
 50 1074 l 1
 382 1101 l 1
 412 1070 l 1
 412 388 l 2
 412 202 491 130 602 130 c 0xb6
 713 130 771 183 833 232 c 1
 833 903 l 1
 634 955 l 1
 646 1066 l 1
 1010 1101 l 1
 1036 1070 l 1
 1036 263 l 2
 1036 133 1090 125 1171 107 c 2
 1226 95 l 1
 1217 -8 l 1x76
 1140 -26 1101 -30 1028 -30 c 0
 904 -30 847 47 847 149 c 2
 847 159 l 1
 833 159 l 1
 722 35 617 -30 478 -30 c 0
 401 -30 342 -4 304 46 c 1
 295 46 l 1
 299 24 307 -27 312 -106 c 1
 335 -479 l 1
 171 -447 l 1xba
 172 -414 204 250 204 610 c 2
 204 909 l 1
 34 976 l 1xb6
EndSplineSet
EndChar

StartChar: multiply
Encoding: 215 215 266
Width: 746
VWidth: 0
Flags: W
HStem: 285 569
VStem: 83 577
DStem2: 186 846 83 765 0.705629 -0.708581<0 259.075 397.393 662.125> 83 383 166 281 0.725145 0.688596<0 268.72 403.78 671.812>
LayerCount: 2
Fore
SplineSet
83 383 m 1
 276 570 l 1
 83 765 l 1
 186 846 l 1
 375 657 l 1
 579 854 l 1
 660 751 l 1
 467 565 l 1
 663 367 l 1
 561 285 l 1
 368 479 l 1
 166 281 l 1
 83 383 l 1
EndSplineSet
EndChar

StartChar: n
Encoding: 110 110 267
Width: 1310
VWidth: 0
Flags: W
HStem: 0 90<58 110.284 584.278 619 740 787.787 1243.96 1282> 940 170<636.201 836.973>
VStem: 244 208<141 874.635> 910 206<141 866.18>
LayerCount: 2
Fore
SplineSet
46 0 m 1
 58 90 l 1
 244 141 l 1
 244 891 l 1
 54 955 l 1
 67 1048 l 1
 435 1097 l 1
 456 1073 l 1
 435 915 l 1
 447 915 l 1
 530 1014 664 1110 819 1110 c 0
 1013 1110 1116 981 1116 761 c 2
 1116 141 l 1
 1294 98 l 1
 1282 0 l 1
 727 0 l 1
 740 90 l 1
 910 141 l 1
 910 712 l 2
 910 871 817 940 695 940 c 0
 605 940 514 903 452 834 c 1
 452 141 l 1
 636 98 l 1
 619 0 l 1
 46 0 l 1
EndSplineSet
EndChar

StartChar: nacute
Encoding: 324 324 268
Width: 1310
VWidth: 0
Flags: W
HStem: 0 90<58 110.284 584.278 619 740 787.787 1243.96 1282> 940 170<636.201 836.973>
VStem: 244 208<141 874.635> 910 206<141 866.18>
LayerCount: 2
Fore
SplineSet
46 0 m 1
 58 90 l 1
 244 141 l 1
 244 891 l 1
 54 955 l 1
 67 1048 l 1
 435 1097 l 1
 456 1073 l 1
 435 915 l 1
 447 915 l 1
 530 1014 664 1110 819 1110 c 0
 1013 1110 1116 981 1116 761 c 2
 1116 141 l 1
 1294 98 l 1
 1282 0 l 1
 727 0 l 1
 740 90 l 1
 910 141 l 1
 910 712 l 2
 910 871 817 940 695 940 c 0
 605 940 514 903 452 834 c 1
 452 141 l 1
 636 98 l 1
 619 0 l 1
 46 0 l 1
562 1256 m 1
 714 1657 l 1
 852 1608 l 1
 626 1217 l 1
 562 1256 l 1
EndSplineSet
EndChar

StartChar: ncaron
Encoding: 328 328 270
Width: 1310
VWidth: 0
Flags: W
HStem: 0 90<58 110.284 584.278 619 740 787.787 1243.96 1282> 940 170<636.201 836.973>
VStem: 244 208<141 874.635> 910 206<141 866.18>
DStem2: 500 1507 401 1431 0.733148 -0.680069<0 254.538> 695 1330 690 1244 0.69226 0.721648<0 230.069>
LayerCount: 2
Fore
SplineSet
46 0 m 1
 58 90 l 1
 244 141 l 1
 244 891 l 1
 54 955 l 1
 67 1048 l 1
 435 1097 l 1
 456 1073 l 1
 435 915 l 1
 447 915 l 1
 530 1014 664 1110 819 1110 c 0
 1013 1110 1116 981 1116 761 c 2
 1116 141 l 1
 1294 98 l 1
 1282 0 l 1
 727 0 l 1
 740 90 l 1
 910 141 l 1
 910 712 l 2
 910 871 817 940 695 940 c 0
 605 940 514 903 452 834 c 1
 452 141 l 1
 636 98 l 1
 619 0 l 1
 46 0 l 1
401 1431 m 1
 500 1507 l 1
 683 1330 l 1
 695 1330 l 1
 847 1503 l 1
 902 1465 l 1
 690 1244 l 1
 622 1226 l 1
 401 1431 l 1
EndSplineSet
EndChar

StartChar: ncommaaccent
Encoding: 326 326 271
Width: 1310
VWidth: 0
Flags: W
HStem: -481 65<545.148 597.956> 0 90<58 110.284 584.278 619 740 787.787 1243.96 1282> 940 170<636.201 836.973>
VStem: 244 208<141 874.635> 642 138<-371.58 -238.791> 910 206<141 866.18>
LayerCount: 2
Fore
SplineSet
46 0 m 1
 58 90 l 1
 244 141 l 1
 244 891 l 1
 54 955 l 1
 67 1048 l 1
 435 1097 l 1
 456 1073 l 1
 435 915 l 1
 447 915 l 1
 530 1014 664 1110 819 1110 c 0
 1013 1110 1116 981 1116 761 c 2
 1116 141 l 1
 1294 98 l 1
 1282 0 l 1
 727 0 l 1
 740 90 l 1
 910 141 l 1
 910 712 l 2
 910 871 817 940 695 940 c 0
 605 940 514 903 452 834 c 1
 452 141 l 1
 636 98 l 1
 619 0 l 1
 46 0 l 1
528 -416 m 1
 615 -394 642 -349 642 -304 c 0
 642 -263 572 -211 545 -208 c 1
 556 -155 597 -105 655 -105 c 0
 704 -105 780 -141 780 -251 c 0
 780 -318 733 -438 550 -481 c 1
 528 -416 l 1
EndSplineSet
EndChar

StartChar: nine
Encoding: 57 57 272
Width: 1078
VWidth: 0
Flags: W
HStem: -33 91<239.589 329> 574.718 135.282<398.408 601.57> 1395 100<386.516 633.066>
VStem: 50 247<829.397 1198.21> 752 252<802.741 1200.66>
LayerCount: 2
Fore
SplineSet
50 991 m 0
 50 1292 298 1495 534 1495 c 0
 859 1495 1004 1232 1004 943 c 0
 1004 450 708 48 244 -33 c 1
 216 58 l 1
 621 178 713 409 737 710 c 1
 721 710 l 1
 639.936 620.226 533.078 574.718 420.25 574.718 c 0
 184 574.718 50 722.566 50 991 c 0
297 1044 m 0
 297 877 355 710 530 710 c 0
 616 710 703 756 741 818 c 1
 751 875 752 945 752 995 c 0
 752 1197 669 1395 526 1395 c 0
 343 1395 297 1264 297 1044 c 0
EndSplineSet
Colour: ffff
EndChar

StartChar: nine.osf
Encoding: 65545 -1 273
Width: 962
VWidth: 0
Flags: W
HStem: -318 91<188.431 243.87> 284 133<345.659 561.981> 1070 101<351.252 579.921>
VStem: 31 216<527.976 899.054> 698 221<507.379 899.855>
LayerCount: 2
Fore
SplineSet
31 708 m 0
 31 961 246 1171 482 1171 c 0
 807 1171 919 912 919 623 c 0
 919 209 602 -188 193 -318 c 1
 164 -227 l 1
 524 -74 633 173 682 417 c 1
 667 417 l 1
 606 334 495 284 388 284 c 0
 148 284 31 484 31 708 c 0
247 740 m 0
 247 573 303 417 478 417 c 0
 564 417 651 462 689 524 c 1
 699 581 698 628 698 678 c 0
 698 880 616 1070 473 1070 c 0
 324 1070 247 930 247 740 c 0
EndSplineSet
Colour: ffff00
EndChar

StartChar: notequal
Encoding: 8800 8800 274
Width: 933
VWidth: 0
Flags: W
HStem: 388 130<36 313.841 344 447 463 900> 684 130<40 537 547 674 698 903>
LayerCount: 2
Fore
SplineSet
21 388 m 1
 36 518 l 1
 914 518 l 1
 900 388 l 1
 21 388 l 1
25 684 m 1
 40 814 l 1
 916 814 l 1
 903 684 l 1
 25 684 l 1
46 66 m 1
 313.841 456 l 1
 344 485 l 1
 537 756 l 1
 547 792 l 1
 741 1072 l 1
 892 1076 l 1
 698 792 l 1
 674 756 l 1
 463 472 l 1
 447 436 l 1
 196 72 l 1
 46 66 l 1
EndSplineSet
Colour: ff0000
EndChar

StartChar: ntilde
Encoding: 241 241 275
Width: 1310
VWidth: 0
Flags: W
HStem: 0 90<58 110.284 584.278 619 740 787.787 1243.96 1282> 940 170<636.201 836.973> 1263 129<708.836 879.032> 1302 128<437.066 601.125>
VStem: 244 208<141 874.635> 910 206<141 866.18>
DStem2: 541 1429 497 1302 0.990655 -0.136394<-16.7439 267.101>
LayerCount: 2
Fore
SplineSet
46 0 m 1xcc
 58 90 l 1
 244 141 l 1
 244 891 l 1
 54 955 l 1
 67 1048 l 1
 435 1097 l 1
 456 1073 l 1
 435 915 l 1
 447 915 l 1
 530 1014 664 1110 819 1110 c 0
 1013 1110 1116 981 1116 761 c 2
 1116 141 l 1
 1294 98 l 1
 1282 0 l 1
 727 0 l 1
 740 90 l 1
 910 141 l 1
 910 712 l 2
 910 871 817 940 695 940 c 0
 605 940 514 903 452 834 c 1
 452 141 l 1
 636 98 l 1
 619 0 l 1
 46 0 l 1xcc
373 1254 m 1
 373 1254 414 1430 524 1430 c 0xdc
 529 1430 536 1430 541 1429 c 2
 815 1392 l 1
 820 1392 l 2
 851 1392 890 1444 890 1444 c 1
 948 1441 l 1
 948 1441 902 1263 788 1263 c 0xec
 783 1263 778 1263 773 1264 c 2
 497 1302 l 1
 494 1302 l 2xdc
 459 1302 421 1244 421 1244 c 1
 373 1254 l 1
EndSplineSet
EndChar

StartChar: numbersign
Encoding: 35 35 276
Width: 1128
VWidth: 0
Flags: W
HStem: 448 125<95 272 421 652 800 970> 834 125<163 333 481 713 860 1039>
DStem2: 239 211 369 220 0.151289 0.98849<28.564 239.265 385.368 630.05 776.002 975.9> 618 211 750 220 0.147439 0.989071<28.3636 239.423 384.878 630.198 775.505 975.433>
LayerCount: 2
Fore
SplineSet
64 448 m 1
 95 573 l 1
 295 573 l 1
 333 834 l 1
 134 834 l 1
 163 959 l 1
 353 959 l 1
 391 1175 l 1
 517 1187 l 1
 481 959 l 1
 733 959 l 1
 767 1175 l 1
 894 1186 l 1
 860 959 l 1
 1067 959 l 1
 1039 834 l 1
 839 834 l 1
 800 573 l 1
 998 573 l 1
 970 448 l 1
 778 448 l 1
 750 220 l 1
 618 211 l 1
 652 448 l 1
 401 448 l 1
 369 220 l 1
 239 211 l 1
 272 448 l 1
 64 448 l 1
421 573 m 1
 672 573 l 1
 713 834 l 1
 460 834 l 1
 421 573 l 1
EndSplineSet
EndChar

StartChar: uni05E0
Encoding: 1504 1504 277
Width: 556
VWidth: 0
Flags: W
LayerCount: 2
Fore
SplineSet
110 197 m 1
 227 197 l 2
 269 197 315 225 315 287 c 2
 315 486 l 2
 315 528 317 552 323 592 c 1
 339 741 l 1
 339 751 l 2
 339 809 289 840 243 851 c 1
 134 881 l 1
 110 910 l 1
 134 1155 l 1
 205 1161 l 1
 243 1060 l 1
 325 1034 l 2
 384 1015 425 986 425 851 c 0
 425 839 425 826 424 813 c 2
 412 582 l 2
 411 571 411 559 411 548 c 0
 411 408 452 257 452 161 c 0
 452 91 450 58 416 0 c 1
 102 0 l 1
EndSplineSet
EndChar

StartChar: o
Encoding: 111 111 278
Width: 1154
VWidth: 0
Flags: W
HStem: -33 120<469.105 741.733> 985 130<412.564 687.736>
VStem: 64 220<327.349 766.276> 869 220<304.039 735.121>
LayerCount: 2
Fore
SplineSet
64 526 m 4
 64 901 326 1115 602 1115 c 4
 906 1115 1089 885 1089 545 c 4
 1089 201 860 -33 572 -33 c 4
 246 -33 64 208 64 526 c 4
284 614 m 4
 284 359 371 87 614 87 c 4
 788 87 869 269 869 443 c 4
 869 687 785 985 550 985 c 4
 364 985 284 808 284 614 c 4
EndSplineSet
EndChar

StartChar: oacute
Encoding: 243 243 279
Width: 1154
VWidth: 0
Flags: W
HStem: -33 120<469.105 741.733> 985 130<412.564 687.736>
VStem: 64 220<327.349 766.276> 869 220<304.039 735.121>
LayerCount: 2
Fore
SplineSet
64 526 m 0
 64 901 326 1115 602 1115 c 0
 906 1115 1089 885 1089 545 c 0
 1089 201 860 -33 572 -33 c 0
 246 -33 64 208 64 526 c 0
284 614 m 0
 284 359 371 87 614 87 c 0
 788 87 869 269 869 443 c 0
 869 687 785 985 550 985 c 0
 364 985 284 808 284 614 c 0
481 1256 m 1
 632 1657 l 1
 770 1608 l 1
 543 1217 l 1
 481 1256 l 1
EndSplineSet
EndChar

StartChar: ocaron
Encoding: 466 466 280
Width: 1154
VWidth: 0
Flags: W
HStem: -33 120<469.105 741.733> 985 130<412.564 687.736>
VStem: 64 220<327.349 766.276> 869 220<304.039 735.121>
DStem2: 417 1507 318 1431 0.733148 -0.680069<0 256.005> 614 1330 607 1244 0.69226 0.721648<0 230.069>
LayerCount: 2
Fore
SplineSet
64 526 m 0
 64 901 326 1115 602 1115 c 0
 906 1115 1089 885 1089 545 c 0
 1089 201 860 -33 572 -33 c 0
 246 -33 64 208 64 526 c 0
284 614 m 0
 284 359 371 87 614 87 c 0
 788 87 869 269 869 443 c 0
 869 687 785 985 550 985 c 0
 364 985 284 808 284 614 c 0
318 1431 m 1
 417 1507 l 1
 602 1330 l 1
 614 1330 l 1
 766 1503 l 1
 819 1465 l 1
 607 1244 l 1
 539 1226 l 1
 318 1431 l 1
EndSplineSet
EndChar

StartChar: ocircumflex
Encoding: 244 244 281
Width: 1154
VWidth: 0
Flags: W
HStem: -33 120<469.105 741.733> 985 130<412.564 687.736>
VStem: 64 220<327.349 766.276> 869 220<304.039 735.121>
LayerCount: 2
Fore
SplineSet
64 526 m 0
 64 901 326 1115 602 1115 c 0
 906 1115 1089 885 1089 545 c 0
 1089 201 860 -33 572 -33 c 0
 246 -33 64 208 64 526 c 0
284 614 m 0
 284 359 371 87 614 87 c 0
 788 87 869 269 869 443 c 0
 869 687 785 985 550 985 c 0
 364 985 284 808 284 614 c 0
335 1264 m 1
 543 1486 l 1
 611 1503 l 1
 831 1274 l 1
 770 1229 l 1
 568 1364 l 1
 555 1364 l 1
 383 1226 l 1
 335 1264 l 1
EndSplineSet
EndChar

StartChar: odieresis
Encoding: 246 246 282
Width: 1154
VWidth: 0
Flags: W
HStem: -33 120<469.105 741.733> 985 130<412.564 687.736> 1240 196<327.191 501.173 657.191 833.289>
VStem: 64 220<327.349 766.276> 310 209<1257.81 1417.74> 640 212<1259.16 1416.37> 869 220<304.039 735.121>
LayerCount: 2
Fore
SplineSet
64 526 m 0
 64 901 326 1115 602 1115 c 0
 906 1115 1089 885 1089 545 c 0
 1089 201 860 -33 572 -33 c 0
 246 -33 64 208 64 526 c 0
284 614 m 0
 284 359 371 87 614 87 c 0
 788 87 869 269 869 443 c 0
 869 687 785 985 550 985 c 0
 364 985 284 808 284 614 c 0
310 1339 m 0
 310 1397 363 1436 413 1436 c 0
 467 1436 519 1396 519 1339 c 0
 519 1278 467 1240 413 1240 c 0
 360 1240 310 1278 310 1339 c 0
640 1339 m 0
 640 1397 693 1436 743 1436 c 0
 797 1436 852 1396 852 1339 c 0
 852 1278 797 1240 743 1240 c 0
 690 1240 640 1278 640 1339 c 0
EndSplineSet
EndChar

StartChar: oe
Encoding: 339 339 283
Width: 1738
VWidth: 0
Flags: W
HStem: -37 152<1221.38 1502.99> -34 128<460.026 692.261> 550 101<1034 1240.01> 989 123<396.667 644.829 1147.61 1371.21>
VStem: 67 221<328.473 781.353> 811 221<341.422 548.377> 1430 219<678.255 932.818>
LayerCount: 2
Fore
SplineSet
67 526 m 0x7e
 67 901 298 1112 574 1112 c 0
 727 1112 890 1011 932 909 c 1
 1009 1012 1148 1110 1319 1110 c 0
 1498 1110 1649 979 1649 718 c 0
 1649 680 1638 599 1628 557 c 1
 1032 550 l 1
 1032 348 1153 115 1376 115 c 0
 1463 115 1525 125 1653 194 c 1
 1683 128 l 1
 1585 26 1437 -37 1274 -37 c 0xbe
 1112 -37 997 48 911 162 c 1
 801 23 694 -34 545 -34 c 0
 219 -34 67 208 67 526 c 0x7e
288 614 m 0
 288 359 385 94 587 94 c 0x7e
 720 94 811 269 811 443 c 0
 811 687 735 989 524 989 c 0
 338 989 288 808 288 614 c 0
1034 651 m 1
 1422 678 l 1
 1427 698 1430 739 1430 759 c 0
 1430 906 1376 989 1258 989 c 0
 1159 989 1046 891 1034 651 c 1
EndSplineSet
EndChar

StartChar: ogonek
Encoding: 731 731 284
Width: 563
VWidth: 0
Flags: W
HStem: -477 63<408.137 418.557>
VStem: 114 183<-314.664 -130.011>
LayerCount: 2
Fore
SplineSet
114 -257 m 0
 114 -192 136 -126 285 4 c 1
 373 4 l 1
 300 -116 297 -161 297 -183 c 0
 297 -260 340 -349 451 -414 c 1
 409 -477 l 1
 231 -459 114 -363 114 -257 c 0
EndSplineSet
EndChar

StartChar: ograve
Encoding: 242 242 285
Width: 1154
VWidth: 0
Flags: W
HStem: -33 120<469.105 741.733> 985 130<412.564 687.736>
VStem: 64 220<327.349 766.276> 869 220<304.039 735.121>
LayerCount: 2
Fore
SplineSet
64 526 m 0
 64 901 326 1115 602 1115 c 0
 906 1115 1089 885 1089 545 c 0
 1089 201 860 -33 572 -33 c 0
 246 -33 64 208 64 526 c 0
284 614 m 0
 284 359 371 87 614 87 c 0
 788 87 869 269 869 443 c 0
 869 687 785 985 550 985 c 0
 364 985 284 808 284 614 c 0
388 1600 m 1
 531 1647 l 1
 694 1235 l 1
 623 1192 l 1
 388 1600 l 1
EndSplineSet
EndChar

StartChar: ohungarumlaut
Encoding: 337 337 286
Width: 1154
VWidth: 0
Flags: W
HStem: -33 120<469.105 741.733> 985 130<412.564 687.736> 1528 20G<651.736 693.009 903.304 945.426>
VStem: 64 220<327.349 766.276> 869 220<304.039 735.121>
LayerCount: 2
Fore
SplineSet
64 526 m 0
 64 901 326 1115 602 1115 c 0
 906 1115 1089 885 1089 545 c 0
 1089 201 860 -33 572 -33 c 0
 246 -33 64 208 64 526 c 0
284 614 m 0
 284 359 371 87 614 87 c 0
 788 87 869 269 869 443 c 0
 869 687 785 985 550 985 c 0
 364 985 284 808 284 614 c 0
363 1290 m 1
 676 1548 l 1
 767 1441 l 1
 397 1229 l 1
 363 1290 l 1
623 1290 m 1
 928 1537 l 1
 1016 1436 l 1
 659 1229 l 1
 623 1290 l 1
EndSplineSet
EndChar

StartChar: omacron
Encoding: 333 333 287
Width: 1154
VWidth: 0
Flags: W
HStem: -33 120<469.105 741.733> 985 130<412.564 687.736> 1254 124<318 846>
VStem: 64 220<327.349 766.276> 869 220<304.039 735.121>
LayerCount: 2
Fore
SplineSet
64 526 m 0
 64 901 326 1115 602 1115 c 0
 906 1115 1089 885 1089 545 c 0
 1089 201 860 -33 572 -33 c 0
 246 -33 64 208 64 526 c 0
284 614 m 0
 284 359 371 87 614 87 c 0
 788 87 869 269 869 443 c 0
 869 687 785 985 550 985 c 0
 364 985 284 808 284 614 c 0
301 1254 m 1
 318 1378 l 1
 862 1378 l 1
 846 1254 l 1
 301 1254 l 1
EndSplineSet
EndChar

StartChar: one
Encoding: 49 49 288
Width: 960
VWidth: 0
Flags: W
HStem: 0 91<58 138.578 866.389 947> 1273 95<83 161.471>
VStem: 384 252<149 1273>
LayerCount: 2
Fore
SplineSet
50 0 m 1
 58 91 l 1
 384 149 l 5
 384 1273 l 5
 75 1273 l 1
 83 1368 l 1
 603 1463 l 5
 636 1463 l 5
 636 141 l 5
 959 102 l 1
 947 0 l 1
 50 0 l 1
EndSplineSet
Colour: ffff
EndChar

StartChar: one.osf
Encoding: 65546 -1 289
Width: 727
VWidth: 0
Flags: W
HStem: 0 91<54 110.355 655.908 710> 972 97<79 137.435>
VStem: 282 207<149 971>
LayerCount: 2
Fore
SplineSet
43 0 m 1
 54 91 l 1
 282 149 l 1
 282 971 l 1
 68 972 l 1
 79 1069 l 1
 454 1161 l 1
 489 1161 l 1
 489 141 l 1
 723 99 l 1
 710 0 l 1
 43 0 l 1
EndSplineSet
Colour: ffff00
EndChar

StartChar: onehalf
Encoding: 189 189 290
Width: 1204
VWidth: 0
Flags: W
HStem: 0 69<815 1053> 530 68<837.126 985.203> 619 37<76 163.263 339.515 432> 1129 38<87 162.83>
VStem: 216 85<679 1129> 737 41<414.755 447.525> 1009 91<300.5 515.487>
DStem2: 134 -37 238 -26 0.571615 0.820522<68.4737 1490.51> 839 151 815 69 0.767701 0.640808<-70.9711 191.191>
LayerCount: 2
Fore
SplineSet
73 619 m 1
 76 656 l 1
 216 679 l 1
 216 1129 l 1
 83 1129 l 1
 87 1167 l 1
 288 1205 l 1
 301 1205 l 1
 301 676 l 1
 437 660 l 1
 432 619 l 1
 73 619 l 1
134 -37 m 1
 986 1186 l 1
 1085 1195 l 1
 238 -26 l 1
 134 -37 l 1
718 50 m 1
 839 151 l 1
 919 220 1009 306 1009 405 c 0
 1009 473 989 530 909 530 c 0
 840 530 800 461 778 405 c 1
 737 420 l 1
 756 503 835 598 938 598 c 0
 1045 598 1100 535 1100 428 c 0
 1100 288 943 185 862 106 c 1
 815 69 l 1
 1053 69 l 1
 1100 155 l 1
 1134 149 l 1
 1107 0 l 1
 723 0 l 1
 718 50 l 1
EndSplineSet
EndChar

StartChar: onequarter
Encoding: 188 188 291
Width: 1201
VWidth: 0
Flags: W
HStem: -5 21G<928 1009> 177 59<759 926 1009 1127> 619 37<75 162.886 338.515 431> 1129 38<86 162.207>
VStem: 216 84<679 1129> 928 81<7 175 236 448>
DStem2: 158 -37 261 -26 0.571163 0.820837<67.859 1489.94> 676 213 759 236 0.62997 0.776619<70.1498 339.998>
LayerCount: 2
Fore
SplineSet
72 619 m 1
 75 656 l 1
 216 679 l 1
 216 1129 l 1
 83 1129 l 1
 86 1167 l 1
 288 1205 l 1
 300 1205 l 1
 300 676 l 1
 436 660 l 1
 431 619 l 1
 72 619 l 1
158 -37 m 1
 1009 1186 l 1
 1110 1195 l 1
 261 -26 l 1
 158 -37 l 1
676 213 m 1
 981 589 l 1
 1013 581 l 1
 1010 523 1009 427 1009 337 c 2
 1009 236 l 1
 1135 236 l 1
 1127 175 l 1
 1009 175 l 1
 1009 7 l 1
 928 -5 l 1
 928 177 l 1
 687 177 l 1
 676 213 l 1
759 236 m 1
 926 236 l 1
 926 448 l 1
 759 236 l 1
EndSplineSet
EndChar

StartChar: onesuperior
Encoding: 185 185 292
Width: 330
VWidth: 0
Flags: W
HStem: 1245 29<77 132.552 203.01 263> 1536 27<83 135.895>
VStem: 139 61<1290 1536>
LayerCount: 2
Fore
SplineSet
73 1245 m 1
 77 1274 l 1
 139 1290 l 1
 139 1536 l 1
 81 1536 l 1
 83 1563 l 1
 190 1592 l 1
 200 1592 l 1
 200 1289 l 1
 268 1277 l 1
 263 1245 l 1
 73 1245 l 1
EndSplineSet
EndChar

StartChar: ordfeminine
Encoding: 170 170 293
Width: 630
VWidth: 0
Flags: W
HStem: 354 72<115 526> 501 53<225.753 314.47 496 513> 712 35<285.656 359> 909 50<235.061 331.47>
VStem: 132 87<555.108 678.921> 152 68<827.293 903.325> 359 81<564.315 712 738.918 895.946>
LayerCount: 2
Fore
SplineSet
107 354 m 1xf2
 115 426 l 1
 534 426 l 1
 526 354 l 1
 107 354 l 1xf2
132 591 m 0xfa
 132 662 181 714 359 747 c 1
 359 780 l 2
 359 847 342 909 277 909 c 0
 231 909 228 874 220 813 c 1
 194 813 152 815 152 864 c 0xf6
 152 917 249 959 318 959 c 0
 405 959 440 908 440 805 c 2
 440 626 l 2
 440 581 450 566 496 561 c 1
 520 557 l 1
 513 513 l 1
 489 509 474 504 445 504 c 0
 388 504 368 540 368 570 c 2
 368 577 l 1
 363 577 l 1
 347 543 293 501 228 501 c 0
 178 501 132 530 132 591 c 0xfa
219 614 m 0xfa
 219 573 239 554 273 554 c 0
 314 554 347 587 359 607 c 1
 359 712 l 1
 237 694 219 660 219 614 c 0xfa
EndSplineSet
EndChar

StartChar: ordmasculine
Encoding: 186 186 294
Width: 646
VWidth: 0
Flags: W
HStem: 354 72<121 531> 496 49<273.706 386.342> 903 52<252.138 371.668>
VStem: 125 91<582.67 871.53> 425 90<575.875 868.399>
LayerCount: 2
Fore
SplineSet
113 354 m 1
 121 426 l 1
 539 426 l 1
 531 354 l 1
 113 354 l 1
125 720 m 0
 125 873 222 955 329 955 c 0
 451 955 515 864 515 727 c 0
 515 590 430 496 316 496 c 0
 186 496 125 592 125 720 c 0
216 743 m 0
 216 623 264 545 329 545 c 0
 391 545 425 604 425 710 c 0
 425 821 382 903 311 903 c 0
 250 903 216 850 216 743 c 0
EndSplineSet
EndChar

StartChar: oslash
Encoding: 248 248 295
Width: 1153
VWidth: 0
Flags: W
HStem: -33 120<398.527 728.734> 985 130<399.206 674.318>
VStem: 50 222<327.349 766.276> 856 221<304.039 767.889>
LayerCount: 2
Fore
SplineSet
30 -57 m 1
 222.419 173.596 l 1
 276.506 193.98 l 1
 803.404 897.938 l 1
 800.116 945.12 l 1
 924.566 1107.88 l 1
 1116 1116 l 1
 929.663 870.812 l 1
 857.492 827.081 l 1
 334.374 133.646 l 1
 344.402 96.4922 l 1
 230.639 -50.8096 l 1
 30 -57 l 1
272 614 m 0
 272 359 359 87 602 87 c 0
 776 87 856 269 856 443 c 0
 856 687 771 985 536 985 c 0
 350 985 272 808 272 614 c 0
50 526 m 0
 50 901 313 1115 589 1115 c 0
 893 1115 1077 885 1077 545 c 0
 1077 201 846 -33 558 -33 c 0
 232 -33 50 208 50 526 c 0
EndSplineSet
EndChar

StartChar: otilde
Encoding: 245 245 296
Width: 1154
VWidth: 0
Flags: W
HStem: -33 120<469.105 741.733> 985 130<412.564 687.736> 1263 129<626.449 796.568> 1302 128<354.788 519.37>
VStem: 64 220<327.349 766.276> 869 220<304.039 735.121>
DStem2: 458 1429 416 1302 0.99107 -0.133344<-16.7478 267.687>
LayerCount: 2
Fore
SplineSet
64 526 m 0xcc
 64 901 326 1115 602 1115 c 0
 906 1115 1089 885 1089 545 c 0
 1089 201 860 -33 572 -33 c 0
 246 -33 64 208 64 526 c 0xcc
284 614 m 0
 284 359 371 87 614 87 c 0
 788 87 869 269 869 443 c 0
 869 687 785 985 550 985 c 0
 364 985 284 808 284 614 c 0
292 1254 m 1
 292 1254 331 1430 441 1430 c 0xdc
 446 1430 453 1430 458 1429 c 2
 733 1392 l 1
 739 1392 l 2
 770 1392 807 1444 807 1444 c 1
 866 1441 l 1
 866 1441 820 1263 706 1263 c 0xec
 701 1263 695 1263 690 1264 c 2
 416 1302 l 1
 413 1302 l 2xdc
 378 1302 338 1244 338 1244 c 1
 292 1254 l 1
EndSplineSet
EndChar

StartChar: overline
Encoding: 8254 8254 297
Width: 639
VWidth: 0
Flags: W
HStem: 1608 125<57 585>
VStem: 41 561
LayerCount: 2
Fore
SplineSet
41 1608 m 1
 57 1733 l 1
 602 1733 l 1
 585 1608 l 1
 41 1608 l 1
EndSplineSet
EndChar

StartChar: p
Encoding: 112 112 298
Width: 1196
VWidth: 0
Flags: W
HStem: -460 97<24 81.344 544.833 591> -24 134<464.396 777.213> 948 162<586.061 788.046> 948 96<37 70.64> 1069 20G<237 418.739>
VStem: 212 202<-316 863.013> 903 226<329.54 798.725>
LayerCount: 2
Fore
SplineSet
16 -460 m 1xe6
 24 -363 l 1
 212 -316 l 1
 212 892 l 1
 22 948 l 1
 37 1044 l 1
 397 1089 l 1xde
 422 1066 l 1
 405 907 l 1
 414 907 l 1
 476 994 593 1110 755 1110 c 0
 966 1110 1129 953 1129 577 c 0
 1129 225 897 -24 579 -24 c 0
 542 -24 504 -20 463 -12 c 1
 456 137 l 1
 513 115 547 110 645 110 c 0
 816 110 903 269 903 501 c 0
 903 794 825 948 667 948 c 0
 561 948 468 879 414 822 c 1
 414 -318 l 1
 606 -360 l 1
 591 -460 l 1
 16 -460 l 1xe6
EndSplineSet
EndChar

StartChar: paragraph
Encoding: 182 182 299
Width: 1593
VWidth: 0
Flags: W
HStem: 0 91<536 609.41 1459.77 1512> 553 121<495.397 672> 1425 112<492.32 833> 1442 95<1445.95 1510>
VStem: 54 254<868.133 1224.58> 833 196<149 1423> 1126 174<141 1395>
LayerCount: 2
Back
SplineSet
302 1040 m 0
 302 1333 583 1535 889 1535 c 2
 1114 1535 l 1
 1114 1 l 1
 716 1 l 5
 723 52 l 5
 990 90 l 1
 990 1461 l 1
 939 1464 911 1464 900 1464 c 0
 586 1464 465 1326 465 1035 c 0
 465 824 625 651 890 651 c 1
 868 589 l 1
 547 589 302 680 302 1040 c 0
1183 1535 m 1
 1533 1535 l 1
 1527 1489 l 1
 1310 1460 l 1
 1310 79 l 1
 1546 57 l 1
 1534 -2 l 1
 1183 1 l 1
 1183 1535 l 1
EndSplineSet
Fore
SplineSet
54 1022 m 0xee
 54 1315 302 1537 602 1537 c 2xee
 1029 1537 l 1xde
 1029 0 l 1
 527 0 l 1
 536 91 l 1
 833 149 l 1
 833 1423 l 1
 783 1424 714 1425 702 1425 c 0
 437 1425 308 1286 308 1066 c 0
 308 855 425 674 694 674 c 9
 672 553 l 1
 350 553 54 662 54 1022 c 0xee
1126 0 m 1
 1126 1537 l 1
 1522 1537 l 1
 1510 1442 l 1xde
 1300 1395 l 1
 1300 141 l 1
 1524 99 l 1
 1512 0 l 1
 1126 0 l 1
EndSplineSet
Colour: ffffff
EndChar

StartChar: parenleft
Encoding: 40 40 300
Width: 590
VWidth: 0
Flags: W
HStem: -463 21G<439 493.944> 1530 20G<436.5 491.878>
VStem: 60 220<183.447 923.917>
LayerCount: 2
Fore
SplineSet
60 550 m 0
 60 1198 396 1481 477 1550 c 1
 538 1468 l 1
 432 1329 280 1086 280 562 c 0
 280 49 501 -302 555 -392 c 1
 470 -463 l 1
 408 -405 60 -86 60 550 c 0
EndSplineSet
EndChar

StartChar: parenright
Encoding: 41 41 301
Width: 590
VWidth: 0
Flags: W
HStem: -463 21G<98.0563 153> 1530 20G<100.122 155.5>
VStem: 312 220<183.447 923.917>
LayerCount: 2
Fore
SplineSet
54 1468 m 1
 115 1550 l 1
 196 1481 532 1198 532 550 c 0
 532 -86 184 -405 122 -463 c 1
 37 -392 l 1
 91 -302 312 49 312 562 c 0
 312 1086 160 1329 54 1468 c 1
EndSplineSet
EndChar

StartChar: partialdiff
Encoding: 8706 8706 302
Width: 1108
VWidth: 0
Flags: W
HStem: -33 120<450.519 712.414> 1057 114<403.488 635.567>
VStem: 60 220<323.621 822.021> 820 215<305.09 785.641>
LayerCount: 2
Fore
SplineSet
60 557 m 0
 60 921 283 1171 546 1171 c 0
 595 1171 700 1152 737 1058 c 1
 746 1061 l 1
 720 1187 562 1463 391 1608 c 1
 535 1608 l 1
 881 1410 1035 983 1035 574 c 0
 1035 194 812 -33 547 -33 c 0
 205 -33 60 257 60 557 c 0
280 615 m 1
 284 280 405 87 576 87 c 0
 767 87 820 259 820 524 c 0
 820 813 673 1053 530 1057 c 1
 522 1057 l 2
 348 1057 280 876 280 615 c 1
EndSplineSet
EndChar

StartChar: uni05E4
Encoding: 1508 1508 303
Width: 1062
VWidth: 0
Flags: W
HStem: -16 197<113 419.944> 16 199<540.403 856.496> 406 196<372.658 506.489>
VStem: 100 122<624 904.301> 872 101<216.381 657.861>
DStem2: 338 1086 226 906 0.99096 -0.134155<0 541.602>
LayerCount: 2
Fore
SplineSet
73 10 m 1xb8
 113 181 l 1xb8
 852 215 l 1
 863 241 872 288 872 344 c 0
 872 358 871 373 870 388 c 2
 848 737 l 2
 844 815 824 825 780 831 c 2
 226 906 l 1
 223 889 222 872 222 857 c 0
 222 667 406 617 555 602 c 1
 556 596 556 590 556 584 c 0
 556 511 511 443 465 406 c 1
 198 417 100 540 100 708 c 0
 100 780 118 859 148 942 c 2
 244 1203 l 1
 328 1209 l 1
 338 1086 l 1
 822 1026 l 2
 908 1015 947 970 953 787 c 1
 973 331 l 1
 973 320 l 2
 973 188 870 55 808 16 c 1x78
 105 -16 l 1
 73 10 l 1xb8
EndSplineSet
EndChar

StartChar: percent
Encoding: 37 37 304
Width: 2145
VWidth: 0
Flags: W
HStem: -44 84<1066.68 1208.33> 659 70<1066.46 1196.47> 720 81<299.923 438.661> 1410 82<373.02 408 606 905.953> 1425 71<299.757 410.113>
VStem: 36 204<919.896 1283.38> 496 203<933.466 1320.21> 799 204<154.944 516.562> 1261 198<161.807 534.524>
DStem2: 654 726 845 730 0.562433 0.826843<-305.971 760.614>
LayerCount: 2
Back
SplineSet
36 1108 m 0
 36 1317 188 1495 340 1495 c 0
 515 1495 636 1325 636 1104 c 0
 636 895 488 722 343 722 c 0
 186 722 36 873 36 1108 c 0
200 1108 m 0xe7e0
 200 963 251 806 343 806 c 0
 447 806 478 961 478 1111 c 0
 478 1259 434 1425 340 1425 c 0
 235 1425 200 1249 200 1108 c 0xe7e0
EndSplineSet
Fore
SplineSet
36 1109 m 0xaf80
 36 1318 220 1496 372 1496 c 0xaf80
 394 1496 401 1495 408 1492 c 1
 420 1410 l 17x9780
 402 1418 387 1425 364 1425 c 0
 266 1425 240 1250 240 1109 c 0
 240 964 275 801 367 801 c 0
 471 801 496 961 496 1109 c 0
 496 1285 475 1405 450 1480 c 9
 1138 1494 l 25
 1150 1384 l 25
 606 1404 l 17
 668 1340 699 1171 699 1109 c 0
 699 896 512 720 367 720 c 0
 210 720 36 872 36 1109 c 0xaf80
152 -12 m 5
 654 726 l 5
 1138 1494 l 5
 1342 1490 l 5
 1340 1455 l 5
 845 730 l 5
 387 -39 l 5
 152 -12 l 5
799 342 m 0
 799 551 981 729 1133 729 c 0xc780
 1308 729 1459 559 1459 338 c 0
 1459 129 1281 -44 1136 -44 c 0
 979 -44 799 107 799 342 c 0
1003 342 m 0
 1003 197 1044 40 1136 40 c 0
 1240 40 1261 195 1261 345 c 0
 1261 493 1227 659 1133 659 c 0
 1028 659 1003 483 1003 342 c 0
EndSplineSet
Colour: ffffff
EndChar

StartChar: period
Encoding: 46 46 305
Width: 473
VWidth: 0
Flags: W
HStem: -38 291<133.375 341.375>
VStem: 90 296<6.875 210.764>
LayerCount: 2
Fore
SplineSet
90 114 m 0
 90 193 157 253 236 253 c 0
 317 253 386 190 386 111 c 0
 386 28 317 -38 236 -38 c 0
 155 -38 90 31 90 114 c 0
EndSplineSet
EndChar

StartChar: periodcentered
Encoding: 183 183 306
Width: 502
VWidth: 0
Flags: W
HStem: 471 292<147.375 356.375>
VStem: 103 298<515.875 720.241>
LayerCount: 2
Fore
SplineSet
103 623 m 0
 103 702 172 763 251 763 c 0
 332 763 401 701 401 622 c 0
 401 539 332 471 251 471 c 0
 170 471 103 540 103 623 c 0
EndSplineSet
EndChar

